<?xml version="1.0" encoding="UTF-8" standalone="no"?>
<!-- Created with Inkscape (http://www.inkscape.org/) -->

<svg
   version="1.0"
   width="96"
   height="96"
   id="svg2408"
   style="display:inline"
   inkscape:version="1.4.3 (0d15f75042, 2025-12-25)"
   sodipodi:docname="eagle.svg"
   xmlns:inkscape="http://www.inkscape.org/namespaces/inkscape"
   xmlns:sodipodi="http://sodipodi.sourceforge.net/DTD/sodipodi-0.dtd"
   xmlns:xlink="http://www.w3.org/1999/xlink"
   xmlns="http://www.w3.org/2000/svg"
   xmlns:svg="http://www.w3.org/2000/svg"
   xmlns:rdf="http://www.w3.org/1999/02/22-rdf-syntax-ns#"
   xmlns:cc="http://creativecommons.org/ns#"
   xmlns:dc="http://purl.org/dc/elements/1.1/">
  <sodipodi:namedview
     pagecolor="#fefefe"
     bordercolor="#666666"
     borderopacity="1"
     objecttolerance="10"
     gridtolerance="10"
     guidetolerance="10"
     inkscape:pageopacity="0"
     inkscape:pageshadow="2"
     inkscape:window-width="1920"
     inkscape:window-height="1020"
     id="namedview87"
     showgrid="false"
     inkscape:zoom="5.0970613"
     inkscape:cx="18.638191"
     inkscape:cy="62.585082"
     inkscape:window-x="0"
     inkscape:window-y="32"
     inkscape:window-maximized="1"
     inkscape:current-layer="layer1"
     inkscape:showpageshadow="0"
     inkscape:pagecheckerboard="0"
     inkscape:deskcolor="#505050" />
  <defs
     id="defs2410">
    <linearGradient
       id="linearGradient4716">
      <stop
         style="stop-color:#f50000;stop-opacity:1;"
         offset="0"
         id="stop4718" />
      <stop
         style="stop-color:#980f0f;stop-opacity:1;"
         offset="1"
         id="stop4720" />
    </linearGradient>
    <linearGradient
       x1="45.447727"
       y1="92.539597"
       x2="45.447727"
       y2="7.0165396"
       id="ButtonShadow"
       gradientUnits="userSpaceOnUse"
       gradientTransform="matrix(1.0058652,0,0,0.994169,100,0)">
      <stop
         id="stop3750"
         style="stop-color:#000000;stop-opacity:1"
         offset="0" />
      <stop
         id="stop3752"
         style="stop-color:#000000;stop-opacity:0.58823532"
         offset="1" />
    </linearGradient>
    <linearGradient
       id="linearGradient3737">
      <stop
         id="stop3739"
         style="stop-color:#fefefe;stop-opacity:1"
         offset="0" />
      <stop
         id="stop3741"
         style="stop-color:#fefefe;stop-opacity:0"
         offset="1" />
    </linearGradient>
    <linearGradient
       id="linearGradient3700">
      <stop
         id="stop3702"
         style="stop-color:#70a83e;stop-opacity:1"
         offset="0" />
      <stop
         id="stop3704"
         style="stop-color:#9fd058;stop-opacity:1"
         offset="1" />
    </linearGradient>
    <filter
       color-interpolation-filters="sRGB"
       id="filter3174"
       x="-0.047720931"
       y="-0.048282354"
       width="1.0954419"
       height="1.0965647">
      <feGaussianBlur
         id="feGaussianBlur3176"
         stdDeviation="1.71" />
    </filter>
    <linearGradient
       x1="36.357143"
       y1="6"
       x2="36.357143"
       y2="63.893143"
       id="linearGradient3188"
       xlink:href="#linearGradient3737"
       gradientUnits="userSpaceOnUse" />
    <filter
       x="-0.192"
       y="-0.192"
       width="1.3839999"
       height="1.3839999"
       color-interpolation-filters="sRGB"
       id="filter3794">
      <feGaussianBlur
         id="feGaussianBlur3796"
         stdDeviation="5.28" />
    </filter>
    <linearGradient
       x1="48"
       y1="20.220806"
       x2="48"
       y2="138.66119"
       id="linearGradient3613"
       xlink:href="#linearGradient3737"
       gradientUnits="userSpaceOnUse" />
    <radialGradient
       cx="48"
       cy="90.171875"
       r="42"
       fx="48"
       fy="90.171875"
       id="radialGradient3619"
       xlink:href="#linearGradient3737"
       gradientUnits="userSpaceOnUse"
       gradientTransform="matrix(1.1573129,0,0,0.99590774,-7.5510206,0.19713193)" />
    <clipPath
       id="clipPath3613">
      <rect
         width="84"
         height="84"
         rx="6"
         ry="6"
         x="6"
         y="6"
         id="rect3615"
         style="fill:#fefefe;fill-opacity:1;fill-rule:nonzero;stroke:none" />
    </clipPath>
    <linearGradient
       x1="48"
       y1="90"
       x2="48"
       y2="5.9877172"
       id="linearGradient3617"
       xlink:href="#linearGradient3700"
       gradientUnits="userSpaceOnUse" />
    <linearGradient
       x1="48"
       y1="90"
       x2="48"
       y2="5.9877172"
       id="linearGradient3878"
       xlink:href="#linearGradient3700"
       gradientUnits="userSpaceOnUse" />
    <linearGradient
       id="linearGradient3700-4">
      <stop
         id="stop3702-4"
         style="stop-color:#f7f7f7;stop-opacity:1;"
         offset="0" />
      <stop
         id="stop3704-4"
         style="stop-color:#a9a9a9;stop-opacity:1;"
         offset="1" />
    </linearGradient>
    <clipPath
       id="clipPath2973">
      <rect
         width="84"
         height="84"
         rx="6"
         ry="6"
         x="6"
         y="6"
         id="rect2975"
         style="fill:url(#linearGradient2977);fill-opacity:1;fill-rule:nonzero;stroke:none" />
    </clipPath>
    <linearGradient
       x1="48"
       y1="90"
       x2="48"
       y2="5.9877172"
       id="linearGradient2977"
       xlink:href="#linearGradient3700-4"
       gradientUnits="userSpaceOnUse" />
    <linearGradient
       x1="48"
       y1="90"
       x2="48"
       y2="5.9877172"
       id="linearGradient3708"
       xlink:href="#linearGradient3700-4"
       gradientUnits="userSpaceOnUse"
       gradientTransform="translate(0,-96)" />
    <linearGradient
       id="linearGradient2867-449-88-871-390-598-476-591-434-148">
      <stop
         id="stop4627"
         style="stop-color:#51cfee;stop-opacity:1"
         offset="0" />
      <stop
         id="stop4629"
         style="stop-color:#49a3d2;stop-opacity:1"
         offset="0.26238" />
      <stop
         id="stop4631"
         style="stop-color:#3470b4;stop-opacity:1"
         offset="0.704952" />
      <stop
         id="stop4633"
         style="stop-color:#1b5699;stop-opacity:1"
         offset="1" />
    </linearGradient>
    <linearGradient
       id="linearGradient3202">
      <stop
         id="stop3204"
         style="stop-color:#fefefe;stop-opacity:1"
         offset="0" />
      <stop
         id="stop3206"
         style="stop-color:#ced3d6;stop-opacity:1"
         offset="1" />
    </linearGradient>
    <linearGradient
       x1="116.29638"
       y1="32.374962"
       x2="116.29638"
       y2="226.17993"
       id="linearGradient2928"
       xlink:href="#linearGradient3202"
       gradientUnits="userSpaceOnUse"
       gradientTransform="matrix(0.32811093,0,0,0.34059034,6.3606404,3.973393)" />
    <linearGradient
       x1="32.251034"
       y1="6.1317081"
       x2="32.251034"
       y2="90.238609"
       id="linearGradient3721"
       xlink:href="#ButtonShadow"
       gradientUnits="userSpaceOnUse"
       gradientTransform="translate(0,-97)" />
    <linearGradient
       x1="32.251034"
       y1="6.1317081"
       x2="32.251034"
       y2="90.238609"
       id="linearGradient3725"
       xlink:href="#ButtonShadow"
       gradientUnits="userSpaceOnUse"
       gradientTransform="matrix(1.0238095,0,0,1.0119048,-1.1428571,-98.071429)" />
    <linearGradient
       x1="32.251034"
       y1="6.1317081"
       x2="32.251034"
       y2="90.238609"
       id="linearGradient3772"
       xlink:href="#ButtonShadow"
       gradientUnits="userSpaceOnUse"
       gradientTransform="matrix(1.0238095,0,0,1.0119048,-1.1428571,-98.071429)" />
    <linearGradient
       x1="32.251034"
       y1="6.1317081"
       x2="32.251034"
       y2="90.238609"
       id="linearGradient3780"
       xlink:href="#ButtonShadow"
       gradientUnits="userSpaceOnUse"
       gradientTransform="matrix(1.0238095,0,0,1.0119048,-1.1428571,-98.071429)" />
    <linearGradient
       x1="32.251034"
       y1="6.1317081"
       x2="32.251034"
       y2="90.238609"
       id="linearGradient3788"
       xlink:href="#ButtonShadow"
       gradientUnits="userSpaceOnUse"
       gradientTransform="matrix(1.0238095,0,0,1.0119048,-1.1428571,-98.071429)" />
    <linearGradient
       inkscape:collect="always"
       xlink:href="#linearGradient4716"
       id="linearGradient4722"
       x1="53.756466"
       y1="8.4986019"
       x2="53.756466"
       y2="99.977707"
       gradientUnits="userSpaceOnUse" />
  </defs>
  <metadata
     id="metadata2413">
    <rdf:RDF>
      <cc:Work
         rdf:about="">
        <dc:format>image/svg+xml</dc:format>
        <dc:type
           rdf:resource="http://purl.org/dc/dcmitype/StillImage" />
      </cc:Work>
    </rdf:RDF>
  </metadata>
  <g
     id="layer2"
     style="display:none">
    <rect
       width="86"
       height="85"
       rx="6"
       ry="6"
       x="105"
       y="7"
       id="rect3745"
       style="opacity:0.9;fill:url(#ButtonShadow);fill-opacity:1;fill-rule:nonzero;stroke:none;filter:url(#filter3174)" />
  </g>
  <g
     id="layer3">
    <path
       d="m 12,-95.03125 c -5.5110903,0 -10.03125,4.52016 -10.03125,10.03125 l 0,71 c 0,5.5110902 4.5201598,10.03125 10.03125,10.03125 l 72,0 c 5.51109,0 10.03125,-4.5201597 10.03125,-10.03125 l 0,-71 c 0,-5.51109 -4.52016,-10.03125 -10.03125,-10.03125 l -72,0 z"
       transform="scale(1,-1)"
       id="path3786"
       style="opacity:0.07999998;fill:url(#linearGradient3788);fill-opacity:1;fill-rule:nonzero;stroke:none;display:inline"
       inkscape:connector-curvature="0" />
    <path
       d="m 12,-94.03125 c -4.971633,0 -9.03125,4.059617 -9.03125,9.03125 l 0,71 c 0,4.9716329 4.0596171,9.03125 9.03125,9.03125 l 72,0 c 4.971633,0 9.03125,-4.059617 9.03125,-9.03125 l 0,-71 c 0,-4.971633 -4.059617,-9.03125 -9.03125,-9.03125 l -72,0 z"
       transform="scale(1,-1)"
       id="path3778"
       style="opacity:0.1;fill:url(#linearGradient3780);fill-opacity:1;fill-rule:nonzero;stroke:none;display:inline"
       inkscape:connector-curvature="0" />
    <path
       d="m 12,-93 c -4.4091333,0 -8,3.590867 -8,8 l 0,71 c 0,4.4091333 3.5908667,8 8,8 l 72,0 c 4.409133,0 8,-3.5908667 8,-8 l 0,-71 c 0,-4.409133 -3.590867,-8 -8,-8 l -72,0 z"
       transform="scale(1,-1)"
       id="path3770"
       style="opacity:0.2;fill:url(#linearGradient3772);fill-opacity:1;fill-rule:nonzero;stroke:none;display:inline"
       inkscape:connector-curvature="0" />
    <rect
       width="86"
       height="85"
       rx="7"
       ry="7"
       x="5"
       y="-92"
       transform="scale(1,-1)"
       id="rect3723"
       style="opacity:0.3;fill:url(#linearGradient3725);fill-opacity:1;fill-rule:nonzero;stroke:none;display:inline" />
    <rect
       width="84"
       height="84"
       rx="6"
       ry="6"
       x="6"
       y="-91"
       transform="scale(1,-1)"
       id="rect3716"
       style="opacity:0.45;fill:url(#linearGradient3721);fill-opacity:1;fill-rule:nonzero;stroke:none;display:inline" />
  </g>
  <g
     id="layer1">
    <rect
       width="84"
       height="84"
       rx="6"
       ry="6"
       x="6"
       y="-90"
       transform="scale(1,-1)"
       id="rect2419"
       style="fill:url(#linearGradient3708);fill-opacity:1;fill-rule:nonzero;stroke:none" />
    <path
       id="path4690"
       clip-path="none"
       style="display:inline;fill:url(#linearGradient4722);fill-opacity:1"
       d="M 52.972656 6 C 52.89173 6.177618 52.810941 6.3550765 52.732422 6.5332031 C 52.527036 7.0010375 52.347967 7.4540415 52.142578 7.921875 C 51.761759 8.7776696 51.387219 9.6735059 51.007812 10.529297 L 50.503906 11.623047 C 50.396909 11.834143 50.313153 12.042812 50.208984 12.253906 C 49.753996 13.171031 49.307043 14.110565 48.779297 14.986328 C 48.412733 15.558282 47.889666 16.010951 47.474609 16.542969 C 46.865576 17.324594 46.316251 18.129827 45.75 18.941406 C 45.379155 19.466293 45.017638 20.005618 44.658203 20.539062 C 44.040596 21.451909 43.400337 22.37343 42.765625 23.273438 L 41.923828 24.408203 C 41.911778 24.424123 41.892439 24.433239 41.880859 24.449219 C 41.669764 24.751601 41.492652 25.06406 41.292969 25.375 C 41.293722 25.40814 41.291569 25.431464 41.292969 25.458984 C 41.281277 25.433366 41.27358 25.39613 41.259766 25.380859 L 41.257812 25.378906 L 41.255859 25.376953 L 41.253906 25.376953 L 41.251953 25.375 L 41.25 25.375 L 40.998047 25.880859 C 40.852562 26.158991 40.722183 26.441143 40.578125 26.720703 L 40.535156 26.804688 C 40.451026 27.058574 40.238239 27.299106 39.947266 27.310547 C 39.927216 27.350487 39.922877 27.437167 39.904297 27.478516 C 39.48068 28.491206 38.715234 29.345844 37.84375 30.001953 L 37.886719 29.833984 C 37.930859 29.668535 38.007569 29.535123 38.054688 29.371094 C 38.19162 28.666491 38.525283 28.016062 38.9375 27.435547 L 38.980469 27.351562 C 39.347038 26.701161 39.708568 26.069801 40.072266 25.417969 L 40.115234 25.333984 C 40.163674 25.071541 40.277182 24.766967 40.578125 24.744141 L 41.544922 23.146484 C 41.780268 22.688635 41.967539 22.228497 42.175781 21.757812 C 41.891943 22.010272 41.609258 22.256034 41.333984 22.515625 L 41.125 22.726562 C 41.04587 22.817773 40.98749 22.923477 40.914062 23.019531 L 40.494141 23.566406 L 40.494141 23.609375 L 40.451172 23.650391 C 39.30441 25.189393 38.099128 26.665938 36.833984 28.109375 L 36.792969 28.150391 C 36.275211 29.103175 35.829866 30.076052 35.279297 31.011719 L 35.152344 31.220703 C 35.225144 31.157953 35.37311 31.031507 35.447266 30.96875 C 35.243304 31.313922 35.030353 31.639051 34.816406 31.978516 L 34.773438 32.0625 C 34.441113 32.670112 34.147698 33.321961 33.722656 33.871094 L 33.638672 33.912109 C 33.272106 34.478359 32.738154 34.898556 32.208984 35.300781 C 32.144784 35.353551 32.021227 35.458948 31.957031 35.511719 C 32.229456 34.556081 32.77659 33.741367 33.21875 32.861328 L 33.259766 32.820312 C 33.283996 32.612068 33.330936 32.385936 33.470703 32.230469 L 33.511719 32.189453 C 33.583039 31.968373 33.68538 31.758281 33.806641 31.558594 L 33.847656 31.431641 C 33.909026 31.247646 34.006008 31.094613 34.101562 30.927734 L 34.142578 30.800781 C 34.400751 30.067651 34.607822 29.349263 34.857422 28.613281 C 34.910182 28.397906 35.015601 27.944418 35.068359 27.730469 C 35.019919 27.426662 34.981235 27.151464 34.941406 26.847656 C 34.936006 26.809136 34.944006 26.718188 34.941406 26.679688 C 35.009916 26.291728 35.155209 25.913814 35.279297 25.542969 C 35.326397 25.39606 35.326397 25.269957 35.279297 25.123047 C 35.190887 24.854896 35.081411 24.589516 34.984375 24.324219 C 34.376768 25.617893 33.698161 26.859915 33.007812 28.109375 L 32.964844 28.150391 C 32.937804 28.355782 32.865506 28.554633 32.712891 28.697266 L 32.671875 28.78125 C 32.399451 29.324681 32.136385 29.874169 31.871094 30.421875 C 31.802734 30.568785 31.720655 30.692562 31.662109 30.84375 C 31.11154 32.258662 30.428653 33.64407 29.685547 34.964844 L 29.642578 35.005859 C 29.460002 35.358163 29.268294 35.700588 29.095703 36.058594 L 29.095703 36.142578 C 28.9945 36.275221 28.892637 36.380277 28.802734 36.521484 C 28.100987 37.990597 27.468832 39.647177 26.025391 40.558594 C 26.550282 38.905493 27.266652 37.28983 27.792969 35.636719 L 27.833984 35.048828 C 27.622891 34.910469 27.74234 34.544752 28.001953 34.628906 C 27.906383 34.399268 28.009908 34.173302 28.085938 33.955078 L 28.128906 33.871094 C 28.210726 33.496592 28.342969 33.146847 28.423828 32.777344 C 28.437498 32.778844 28.436364 32.777209 28.464844 32.777344 C 28.470244 32.750884 28.460744 32.720309 28.464844 32.693359 C 28.559044 32.18328 28.649044 31.646149 28.716797 31.136719 C 28.816647 29.803108 29.266382 28.552695 29.601562 27.267578 C 29.311602 27.553759 29.046097 27.920776 28.84375 28.234375 C 28.724782 28.409288 28.611953 28.596216 28.507812 28.78125 C 27.838863 30.086337 27.196992 31.409849 26.572266 32.736328 C 26.591786 32.735682 26.596944 32.736929 26.615234 32.736328 C 26.615234 32.736328 26.189764 33.941399 25.984375 34.375 L 25.941406 34.458984 C 25.937306 34.654392 25.930989 34.894771 25.689453 34.921875 L 25.648438 34.921875 C 25.619908 35.149021 25.324804 35.405906 25.269531 35.636719 C 25.266931 35.647879 25.270931 35.668577 25.269531 35.679688 C 24.476171 37.552141 23.582153 39.408029 22.871094 41.314453 C 22.870838 41.315206 22.87126 41.319517 22.871094 41.320312 C 22.869949 41.331131 22.873254 41.347038 22.871094 41.357422 L 22.869141 41.359375 L 22.867188 41.359375 L 22.865234 41.359375 C 22.857502 41.359037 22.841799 41.355806 22.833984 41.355469 L 22.832031 41.355469 L 22.830078 41.355469 L 22.830078 41.357422 C 22.731298 41.655137 22.449338 42.320182 22.367188 42.576172 C 22.170358 43.277933 21.953298 44.01503 21.652344 44.679688 C 21.611034 44.772418 21.524349 45.219261 21.484375 45.310547 C 21.512905 46.463019 21.356911 47.680039 21.863281 48.759766 C 22.488855 50.034344 23.422256 51.166958 24.427734 52.166016 L 24.427734 52.167969 L 24.427734 52.169922 L 24.427734 52.171875 L 24.427734 52.173828 C 24.430728 52.1966 24.459901 52.238961 24.511719 52.291016 L 25.605469 53.007812 C 26.120374 53.264559 26.658619 53.522805 27.162109 53.806641 L 27.203125 53.847656 C 27.696631 54.128639 28.122513 54.535093 28.464844 54.984375 C 28.59028 55.914417 28.672828 56.832119 28.716797 57.759766 C 26.575956 58.212182 24.170439 58.970471 22.367188 60.283203 C 22.375287 60.123466 22.400143 59.977212 22.408203 59.820312 C 21.493935 60.507807 20.643565 61.27702 19.884766 62.132812 C 18.136088 64.088303 16.359467 66.072469 15.259766 68.484375 C 14.863229 69.367273 14.872314 70.358519 15.007812 71.302734 C 14.905129 72.670578 13.979916 73.971657 14.501953 75.380859 C 14.828589 76.550447 16.12255 76.84925 17.152344 76.980469 C 17.006807 76.384276 16.754906 75.742231 16.900391 75.128906 C 18.522116 71.899711 22.283572 70.379979 25.732422 70.292969 C 27.00755 70.117541 27.923776 71.170686 28.84375 71.849609 C 28.89085 71.886769 29.091567 72.105487 29.138672 72.142578 C 29.612206 72.509143 30.090361 72.906684 30.525391 73.320312 C 30.598191 73.384512 30.662173 73.467068 30.736328 73.53125 C 31.078642 73.807968 31.43481 74.060507 31.787109 74.330078 L 31.830078 74.371094 C 32.118196 74.545112 32.426541 74.679782 32.671875 74.917969 C 32.832972 76.314346 32.727286 77.728636 32.628906 79.125 L 32.587891 79.25 C 32.563671 79.643672 32.564842 80.024089 32.544922 80.427734 C 32.535422 80.650241 32.513316 81.086613 32.503906 81.310547 C 32.482526 82.308972 32.47238 83.34142 32.376953 84.339844 C 32.123357 84.61648 31.763327 84.874434 31.326172 84.759766 C 30.245018 85.055017 29.171542 85.358754 28.128906 85.769531 C 27.127628 86.171762 25.843071 85.836659 25.058594 86.695312 C 24.577927 87.241604 23.874741 87.517564 23.376953 88.041016 C 23.277103 88.527402 23.70132 88.907648 23.923828 89.302734 C 23.975098 88.917635 24.031913 88.548275 24.091797 88.166016 C 24.372783 88.156516 24.904562 88.13496 25.185547 88.125 C 25.106491 89.537188 23.735408 89.680517 22.576172 90 L 28.648438 90 C 28.657667 89.991805 28.666595 89.982878 28.675781 89.974609 C 28.699701 89.982689 28.724265 89.991617 28.748047 90 L 32.396484 90 C 31.954072 89.424971 31.223393 89.061283 30.736328 88.503906 C 31.08007 88.435386 31.435334 88.25321 31.789062 88.335938 C 32.249769 88.527074 32.510183 89.003046 32.796875 89.386719 C 33.341724 89.428029 33.89265 89.467568 34.4375 89.511719 C 34.438067 89.6763 34.42978 89.83959 34.412109 90 L 35.027344 90 C 35.057949 89.500611 35.019265 88.989306 35.111328 88.503906 C 35.466484 88.011826 35.924667 87.522829 36.498047 87.283203 C 37.232592 87.472911 37.752888 88.100606 38.474609 88.335938 C 39.283322 88.574138 40.118357 88.737143 40.957031 88.839844 C 40.651796 88.583111 40.349326 88.318804 40.03125 88.082031 C 40.23664 88.080631 40.624689 88.083431 40.830078 88.082031 C 40.757398 87.822446 40.690949 87.585769 40.621094 87.326172 C 41.381318 87.177831 42.169089 87.042649 42.933594 86.904297 C 42.584148 86.743131 42.233685 86.555863 41.882812 86.400391 C 42.296442 86.336191 42.68508 86.289479 43.101562 86.232422 C 43.085822 86.031313 43.071924 85.801256 43.058594 85.601562 L 43.228516 85.642578 C 43.171466 85.450028 43.127094 85.241542 43.058594 85.054688 L 42.974609 84.970703 C 42.930329 84.922263 42.849434 84.808255 42.806641 84.759766 C 42.940676 84.57863 43.098777 84.438435 43.228516 84.255859 C 43.245606 84.221679 43.253931 84.122085 43.269531 84.087891 C 43.285271 83.896767 43.372914 83.639266 43.605469 83.625 L 43.564453 83.541016 C 43.401785 83.408318 43.106523 83.014284 43.4375 82.910156 C 44.204858 82.739007 44.983156 82.995315 45.751953 83.035156 C 45.921677 83.036556 46.086123 83.019386 46.255859 83.035156 C 46.625266 83.069336 46.983043 83.133266 47.349609 83.203125 C 47.419469 83.216635 47.533059 83.272819 47.601562 83.287109 C 47.744191 83.164509 47.924674 83.037096 48.064453 82.910156 C 48.083023 82.891586 48.085559 82.844752 48.105469 82.826172 C 48.240963 82.666433 48.380261 82.461532 48.611328 82.447266 C 48.637038 82.29466 48.665412 82.134141 48.695312 81.984375 C 49.227336 81.743336 49.803914 81.51201 50.335938 81.269531 L 50.251953 81.185547 C 49.892564 80.764806 49.518721 80.331582 49.199219 79.880859 L 49.410156 79.880859 C 49.515665 79.862289 49.724563 79.815455 49.830078 79.796875 C 50.376357 79.592913 50.907666 79.338775 51.429688 79.082031 C 51.456727 78.905173 51.486622 78.544055 51.513672 78.367188 L 51.513672 78.240234 C 51.536542 77.766702 51.616391 77.144141 52.185547 77.021484 C 53.024218 76.910184 53.870294 77.098659 54.708984 77.148438 C 54.931476 77.171297 55.158878 77.202402 55.382812 77.232422 C 55.709446 77.098387 56.064699 77.186169 56.308594 77.441406 C 56.481183 77.467116 56.638497 77.458795 56.8125 77.484375 C 56.979384 77.504305 57.148108 77.548429 57.316406 77.568359 C 57.16236 77.283095 57.007545 77.010403 56.853516 76.726562 C 57.258586 76.679462 57.66771 76.598565 58.074219 76.558594 C 57.436654 76.126418 56.758046 75.774533 56.097656 75.380859 C 56.243142 75.365089 56.370666 75.352614 56.517578 75.339844 C 56.684462 75.319914 56.855127 75.272949 57.023438 75.255859 C 57.258783 75.079004 57.581384 75.179967 57.738281 75.423828 C 57.95223 75.496628 58.153766 75.554415 58.369141 75.632812 C 58.443281 75.374655 58.853128 75.414837 58.873047 75.675781 L 59 75.675781 C 59.336607 75.567307 59.62875 75.766359 59.839844 76.011719 C 59.872674 76.025229 59.934076 76.043367 59.966797 76.054688 C 60.14224 75.853553 60.426336 75.782419 60.681641 75.84375 C 60.634541 75.75587 60.592098 75.619149 60.554688 75.548828 C 61.018234 75.694313 61.479812 75.823791 61.943359 75.970703 C 61.961799 75.859404 62.007414 75.66009 62.027344 75.548828 C 61.980244 75.480358 61.905005 75.320943 61.859375 75.253906 C 61.469984 74.710484 61.006837 74.228047 60.554688 73.740234 C 60.521847 73.717374 60.462515 73.67915 60.429688 73.65625 C 60.121598 73.453716 59.803421 73.237914 59.503906 73.025391 C 59.231465 72.841403 58.982866 72.619892 58.746094 72.394531 C 58.390938 72.042243 59.03481 71.958917 59.292969 71.974609 C 59.41557 71.938949 59.546309 71.881822 59.671875 71.847656 C 59.600555 71.522432 59.979123 71.417576 60.21875 71.511719 L 60.302734 71.554688 C 60.379714 71.325059 60.615689 71.191117 60.849609 71.216797 L 60.933594 71.216797 C 61.290175 71.196867 61.667911 71.182921 62.027344 71.175781 C 62.202788 71.171681 62.355819 71.157211 62.53125 71.175781 C 64.016047 71.212931 65.444093 71.76176 66.863281 72.142578 C 66.578017 71.718961 66.307275 71.303049 66.023438 70.880859 C 66.083327 70.832419 66.172533 70.718412 66.232422 70.669922 C 66.268092 70.640032 66.36668 70.574813 66.402344 70.544922 C 66.669066 70.266791 66.979407 70.238197 67.410156 70.417969 C 67.497236 70.411269 67.700644 70.384083 67.789062 70.376953 C 70.698769 69.973307 73.648974 69.986976 76.580078 69.830078 C 76.669988 69.825978 76.826115 69.792619 76.916016 69.787109 C 77.791769 69.748599 78.686362 69.768539 79.566406 69.787109 C 79.730436 69.789709 79.903427 69.818768 80.070312 69.830078 C 80.277129 69.698865 80.487222 69.570982 80.701172 69.451172 C 81.130102 69.296279 81.55672 69.1998 82.046875 69.199219 C 83.280646 69.100849 84.528543 69.002705 85.748047 68.777344 C 85.22601 68.42219 84.688108 68.093312 84.150391 67.769531 C 84.129011 67.428642 84.096129 67.092109 84.023438 66.759766 C 84.593965 66.099389 85.13432 65.376888 85.244141 64.488281 C 83.749358 64.521121 82.200063 64.595961 80.785156 64.025391 C 81.40988 63.289418 82.281379 62.710974 82.59375 61.753906 C 81.379951 61.887942 80.157892 62.073252 78.935547 62.091797 C 79.601628 61.388623 80.327315 60.721245 80.912109 59.945312 C 80.643962 59.918273 80.086504 59.888398 79.818359 59.861328 C 80.247682 59.332172 80.699246 58.788905 81.080078 58.222656 C 80.334105 58.142706 79.543153 57.949892 78.808594 58.136719 C 77.323797 58.782843 75.902712 59.605705 74.433594 60.283203 C 74.239616 60.415901 74.0338 60.513757 73.802734 60.535156 C 73.762894 60.583596 73.674739 60.654678 73.634766 60.703125 C 73.199682 60.780105 73.465118 60.342764 73.761719 60.451172 C 73.925748 60.291435 74.148674 60.137704 74.392578 60.15625 L 74.476562 60.199219 C 75.457869 59.307775 76.688073 58.7404 77.757812 57.96875 C 76.084733 57.99579 74.522944 58.692578 73.003906 59.314453 C 72.968246 59.328693 72.912978 59.343292 72.878906 59.357422 L 72.751953 59.441406 C 72.081576 59.910671 71.307913 60.158946 70.523438 60.367188 L 70.439453 60.367188 C 69.948801 60.546912 69.471713 60.737022 68.966797 60.871094 C 68.600228 60.980916 68.225346 61.098809 67.873047 61.25 C 67.73901 61.388401 67.550279 61.436392 67.369141 61.375 L 67.285156 61.375 C 66.965653 61.44632 66.677452 61.51748 66.359375 61.585938 C 66.065551 61.650137 65.773227 61.712598 65.476562 61.753906 C 65.003017 61.818106 64.517569 61.847724 64.046875 61.921875 L 63.962891 61.964844 C 63.790299 62.066037 63.580045 62.035855 63.416016 61.921875 L 63.289062 61.964844 C 63.095073 62.057574 62.870726 62.074509 62.658203 62.048828 L 62.617188 62.048828 C 62.189293 62.065918 61.734691 62.097123 61.3125 62.132812 C 61.24399 62.139513 61.086082 62.168641 61.017578 62.175781 C 60.599667 62.230011 60.215314 62.24802 59.798828 62.300781 L 59.714844 62.34375 C 59.314039 62.39085 58.893518 62.433222 58.494141 62.46875 C 58.344375 62.48299 58.219703 62.529854 58.074219 62.552734 C 57.7975 62.569824 57.537842 62.622429 57.275391 62.636719 L 57.191406 62.636719 C 56.662235 62.696609 56.163923 62.759059 55.634766 62.804688 L 55.509766 62.804688 C 55.255886 62.827557 54.997274 62.819332 54.751953 62.763672 L 54.583984 62.763672 C 54.501224 62.758272 54.330814 62.726213 54.248047 62.720703 C 54.637426 62.37696 55.082942 62.107646 55.550781 61.880859 C 55.844605 61.728242 56.159913 61.606081 56.476562 61.501953 L 56.560547 61.458984 C 56.636177 61.31493 56.749574 61.194362 56.896484 61.123047 C 57.041971 61.033137 57.340845 60.87697 57.486328 60.787109 C 57.613249 60.694379 57.736371 60.586329 57.863281 60.492188 C 57.555192 60.507958 57.244691 60.510936 56.939453 60.535156 C 56.741199 60.583596 56.47118 60.536948 56.476562 60.283203 L 56.433594 60.15625 C 56.412214 60.030679 56.369539 59.777856 56.349609 59.652344 C 57.068465 59.439822 57.826975 59.256147 58.580078 59.230469 L 58.621094 59.230469 C 58.803658 59.176239 58.989686 59.092804 59.167969 59.021484 C 59.127999 58.950164 59.038485 58.797878 59 58.726562 C 60.949785 58.692372 62.893066 58.60976 64.845703 58.642578 L 64.972656 58.642578 C 65.423362 58.646678 65.864782 58.695192 66.318359 58.726562 L 66.402344 58.726562 C 66.497914 58.645272 66.59828 58.554485 66.695312 58.474609 C 66.488497 58.424669 66.062285 58.315016 65.855469 58.263672 C 65.799879 58.216572 65.700115 58.14282 65.644531 58.095703 C 65.604571 58.064333 65.517871 58.001461 65.476562 57.96875 C 65.786078 57.87455 66.091413 57.763691 66.402344 57.673828 C 66.19125 57.608278 65.771642 57.487484 65.560547 57.421875 L 65.433594 57.380859 C 65.366174 56.961524 65.395094 56.494093 65.433594 56.076172 L 65.476562 55.992188 C 65.724748 55.474443 66.176128 55.108107 66.695312 54.898438 L 66.779297 54.898438 C 67.268523 54.657399 67.753096 54.397713 68.210938 54.099609 C 68.347869 53.965574 68.456669 53.81804 68.587891 53.679688 C 68.509421 53.582637 68.448759 53.484614 68.378906 53.384766 L 68.294922 53.259766 C 68.737085 52.908894 69.186705 52.564883 69.681641 52.291016 C 70.065326 52.121293 70.4147 51.999461 70.818359 51.871094 C 70.357649 51.537339 69.927643 51.199378 69.472656 50.861328 C 70.220041 50.437712 70.977681 50.074413 71.742188 49.683594 C 71.150261 49.418303 70.565621 49.15578 69.976562 48.884766 C 70.790982 47.823559 72.250497 48.037947 73.425781 47.833984 C 73.403031 47.765474 73.364707 47.606098 73.341797 47.539062 C 72.92958 47.253799 72.471967 47.058126 72.121094 46.697266 C 72.276565 45.984107 73.006088 45.60738 73.466797 45.099609 C 73.059591 45.118059 72.739792 45.126271 72.316406 45.167969 C 72.784881 45.09137 73.239624 44.95568 73.677734 44.763672 C 73.17852 44.611067 72.678965 44.476055 72.164062 44.384766 C 72.095552 44.375266 71.981956 44.351757 71.912109 44.341797 C 71.752357 44.337697 71.518763 44.273828 71.490234 44.089844 C 71.424684 43.921547 71.370712 43.757103 71.322266 43.585938 C 71.470589 42.869925 72.0951 42.391927 72.542969 41.861328 C 72.529459 41.693032 72.599744 41.524304 72.583984 41.357422 C 72.594794 41.356546 72.611353 41.358014 72.626953 41.357422 C 72.083515 40.287678 71.048913 39.394279 71.070312 38.119141 C 71.994568 37.159226 73.335519 36.864364 74.603516 36.6875 C 74.440925 36.33092 74.268821 35.98902 74.097656 35.636719 C 74.074906 35.589659 74.036552 35.472846 74.013672 35.425781 L 74.097656 35.425781 C 74.370082 35.25177 74.69984 35.104266 74.939453 34.878906 C 74.932753 34.445304 74.707801 34.038133 74.519531 33.660156 L 74.433594 33.617188 C 73.806014 33.294823 73.204616 32.931892 72.626953 32.525391 L 72.541016 32.482422 C 72.115972 32.209996 71.714496 31.870435 71.322266 31.556641 L 71.28125 31.515625 C 70.928953 31.357316 70.589376 31.229249 70.228516 31.09375 L 70.103516 31.052734 C 69.704138 30.91724 68.570187 30.414914 68.167969 30.337891 C 67.879852 30.239461 67.57042 30.139963 67.285156 30.042969 C 67.282556 29.928867 67.286556 29.694179 67.285156 29.580078 C 67.029971 29.365241 66.741868 29.193805 66.443359 29.033203 C 66.763199 29.099133 67.09815 29.157508 67.410156 29.244141 C 69.1417 29.455236 70.901101 29.413207 72.626953 29.707031 L 72.794922 29.707031 C 73.475282 29.257738 74.088269 28.704152 74.644531 28.109375 C 74.419184 27.946776 74.20515 27.794823 73.972656 27.646484 L 73.888672 27.603516 C 73.430818 27.515076 72.959281 27.455862 72.5 27.394531 C 72.385864 27.383131 72.275362 27.374561 72.164062 27.394531 C 71.981486 27.471551 71.790901 27.445544 71.658203 27.308594 C 71.417148 27.210164 71.153384 27.11797 70.902344 27.056641 C 70.751167 27.020991 70.630232 27.006876 70.480469 26.972656 C 70.473769 26.84001 70.442133 26.683956 70.439453 26.552734 C 70.516433 26.532764 70.698409 26.528306 70.775391 26.509766 C 70.959381 26.461276 71.135407 26.387437 71.322266 26.341797 C 72.262213 26.109304 73.243118 26.216784 74.181641 25.962891 C 74.225781 25.954291 74.307419 25.930475 74.351562 25.921875 C 75.228753 25.749289 76.127088 25.621408 77 25.416016 L 77.042969 25.375 C 77.880215 25.06121 78.784273 24.822249 79.691406 24.912109 C 79.749946 24.914709 79.843798 24.952258 79.902344 24.955078 C 80.130559 24.637009 80.363124 24.317236 80.574219 23.986328 C 80.116365 23.795201 79.687783 23.582434 79.228516 23.398438 L 79.103516 23.355469 C 78.697018 23.265609 78.292166 23.21352 77.882812 23.146484 L 77.798828 23.103516 C 77.537816 23.076406 77.281169 23.020792 77.042969 22.976562 C 76.793368 22.928093 76.536182 22.865836 76.285156 22.851562 C 72.930435 22.905752 69.589082 23.186411 66.234375 23.019531 C 66.220135 22.217938 66.627263 21.604781 67.326172 21.253906 L 67.369141 21.210938 C 67.573102 21.056897 67.841505 20.950595 68.083984 20.875 L 68.251953 20.832031 C 68.471606 20.742171 68.691874 20.67582 68.925781 20.623047 L 69.050781 20.539062 C 69.196266 20.407834 69.423638 20.394826 69.597656 20.496094 C 69.714603 20.517454 69.86526 20.577394 69.976562 20.496094 C 70.424418 20.2037 70.83856 19.918516 71.279297 19.613281 L 71.322266 19.570312 C 72.219415 18.797245 73.169305 18.062268 74.140625 17.384766 L 74.224609 17.341797 C 74.907823 16.814058 75.641714 16.377089 76.369141 15.912109 L 76.453125 15.869141 C 77.236176 15.076106 78.060869 14.324011 78.976562 13.683594 C 79.866596 13.205777 80.123669 12.148079 80.490234 11.285156 L 80.533203 11.160156 C 80.038259 11.419748 79.474704 11.612548 78.935547 11.748047 C 78.651711 11.827917 78.394352 11.906043 78.134766 12.042969 C 77.937939 12.165625 77.726413 12.239298 77.503906 12.294922 L 77.419922 12.337891 C 77.245906 12.414891 77.057049 12.467344 76.873047 12.505859 C 76.680499 12.554349 76.505895 12.634962 76.326172 12.714844 C 75.952474 12.89171 75.600929 13.073445 75.234375 13.261719 L 75.148438 13.304688 C 73.6722 14.193285 72.129481 14.914176 70.523438 15.533203 L 70.439453 15.576172 C 69.95308 15.794398 69.450331 15.984525 68.966797 16.207031 L 68.882812 16.248047 C 67.626214 16.931256 66.284692 17.437956 64.929688 17.888672 L 64.886719 17.929688 C 64.694158 18.050919 64.489767 18.159172 64.255859 18.140625 C 64.138912 18.143225 63.994379 18.134925 63.878906 18.140625 C 63.858976 18.049345 63.812899 17.895975 63.792969 17.804688 C 63.701719 17.580754 63.800061 17.339281 63.962891 17.173828 L 64.046875 17.046875 C 64.751489 16.019925 65.702593 15.257993 66.695312 14.523438 C 67.964748 13.617722 68.908234 12.360952 69.976562 11.244141 C 70.64122 10.516721 71.447122 9.8500129 71.785156 8.8886719 L 71.826172 8.8046875 C 72.211271 8.0373254 73.037317 7.6502594 73.677734 7.1210938 C 73.761864 7.0383677 73.832484 6.9351099 73.886719 6.828125 C 73.806919 6.823855 73.591055 6.7879803 73.509766 6.7851562 C 73.887277 6.4734701 74.352153 6.2939312 74.742188 6 L 69.552734 6 C 69.23898 6.2500815 68.935857 6.4818893 68.671875 6.6582031 L 68.587891 6.7441406 C 68.37109 6.9238559 68.175256 7.1136227 67.957031 7.2890625 L 67.873047 7.3320312 C 66.262722 8.705578 64.610844 9.998771 62.785156 11.074219 C 62.673857 11.145529 62.557085 11.258237 62.447266 11.328125 C 62.421686 11.202623 62.389001 10.947779 62.363281 10.822266 C 62.339061 10.701034 62.300717 10.563167 62.279297 10.443359 C 62.493245 10.255083 62.703342 10.052302 62.910156 9.8554688 L 62.994141 9.8125 C 63.419178 9.2348426 63.856668 8.6546678 64.298828 8.0898438 C 64.092012 7.7560567 63.871944 7.4138386 63.667969 7.0800781 L 63.792969 7.0800781 L 63.919922 7.0800781 C 64.215173 7.0201771 64.5476 6.9404621 64.845703 6.8691406 C 64.888305 6.542437 64.985387 6.256212 65.125 6 L 61.541016 6 C 61.451248 6.0658916 61.35994 6.1321553 61.269531 6.1972656 C 59.730522 7.2655813 58.463839 8.6742939 56.980469 9.8125 L 56.939453 9.8554688 C 56.745462 10.048023 56.535039 10.283789 56.349609 10.486328 C 56.236554 10.500418 56.000394 10.427144 55.71875 10.402344 C 55.569 9.5765035 55.674324 8.7429117 55.802734 7.9199219 C 55.825604 7.8172267 55.865299 7.6026992 55.886719 7.5 C 55.923869 7.3787566 55.936513 7.2423281 55.970703 7.1210938 C 56.017133 6.912139 56.114452 6.6243053 56.138672 6.4902344 C 56.138836 6.3239293 56.135639 6.1616718 56.128906 6 L 52.972656 6 z " />
    <path
       d="M 12,6 C 8.676,6 6,8.676 6,12 l 0,2 0,68 0,2 c 0,0.334721 0.04135,0.6507 0.09375,0.96875 0.0487,0.295596 0.09704,0.596915 0.1875,0.875 0.00988,0.03038 0.020892,0.0636 0.03125,0.09375 0.098865,0.287771 0.2348802,0.547452 0.375,0.8125 0.1445918,0.273507 0.3156161,0.535615 0.5,0.78125 0.1843839,0.245635 0.3737765,0.473472 0.59375,0.6875 0.439947,0.428056 0.94291,0.814526 1.5,1.09375 0.278545,0.139612 0.5734731,0.246947 0.875,0.34375 -0.2562018,-0.100222 -0.4867109,-0.236272 -0.71875,-0.375 -0.00741,-0.0044 -0.023866,0.0045 -0.03125,0 -0.031933,-0.0193 -0.062293,-0.04251 -0.09375,-0.0625 -0.120395,-0.0767 -0.2310226,-0.163513 -0.34375,-0.25 -0.1061728,-0.0808 -0.2132809,-0.161112 -0.3125,-0.25 C 8.4783201,88.557317 8.3087904,88.373362 8.15625,88.1875 8.0486711,88.057245 7.9378561,87.922215 7.84375,87.78125 7.818661,87.74287 7.805304,87.69538 7.78125,87.65625 7.716487,87.553218 7.6510225,87.451733 7.59375,87.34375 7.4927417,87.149044 7.3880752,86.928049 7.3125,86.71875 7.30454,86.69694 7.288911,86.6782 7.28125,86.65625 7.2494249,86.5643 7.2454455,86.469419 7.21875,86.375 7.1884177,86.268382 7.1483606,86.171969 7.125,86.0625 7.0521214,85.720988 7,85.364295 7,85 L 7,83 7,15 7,13 C 7,10.218152 9.2181517,8 12,8 l 2,0 68,0 2,0 c 2.781848,0 5,2.218152 5,5 l 0,2 0,68 0,2 c 0,0.364295 -0.05212,0.720988 -0.125,1.0625 -0.04415,0.206893 -0.08838,0.397658 -0.15625,0.59375 -0.0077,0.02195 -0.0233,0.04069 -0.03125,0.0625 -0.06274,0.173739 -0.138383,0.367449 -0.21875,0.53125 -0.04158,0.0828 -0.07904,0.169954 -0.125,0.25 -0.0546,0.09721 -0.126774,0.18835 -0.1875,0.28125 -0.09411,0.140965 -0.204921,0.275995 -0.3125,0.40625 -0.143174,0.17445 -0.303141,0.346998 -0.46875,0.5 -0.01117,0.0102 -0.01998,0.02115 -0.03125,0.03125 -0.138386,0.125556 -0.285091,0.234436 -0.4375,0.34375 -0.102571,0.07315 -0.204318,0.153364 -0.3125,0.21875 -0.0074,0.0045 -0.02384,-0.0044 -0.03125,0 -0.232039,0.138728 -0.462548,0.274778 -0.71875,0.375 0.301527,-0.0968 0.596455,-0.204138 0.875,-0.34375 0.55709,-0.279224 1.060053,-0.665694 1.5,-1.09375 0.219973,-0.214028 0.409366,-0.441865 0.59375,-0.6875 0.184384,-0.245635 0.355408,-0.507743 0.5,-0.78125 0.14012,-0.265048 0.276135,-0.524729 0.375,-0.8125 0.01041,-0.03078 0.02133,-0.06274 0.03125,-0.09375 0.09046,-0.278085 0.1388,-0.579404 0.1875,-0.875 C 89.95865,84.6507 90,84.334721 90,84 l 0,-2 0,-68 0,-2 C 90,8.676 87.324,6 84,6 L 12,6 z"
       inkscape:connector-curvature="0"
       id="rect3728"
       style="opacity:0.4;fill:url(#linearGradient3188);fill-opacity:1;fill-rule:nonzero;stroke:none" />
    <path
       d="M 12,90 C 8.676,90 6,87.324 6,84 L 6,82 6,14 6,12 c 0,-0.334721 0.04135,-0.6507 0.09375,-0.96875 0.0487,-0.295596 0.09704,-0.596915 0.1875,-0.875 C 6.29113,10.12587 6.302142,10.09265 6.3125,10.0625 6.411365,9.774729 6.5473802,9.515048 6.6875,9.25 6.8320918,8.976493 7.0031161,8.714385 7.1875,8.46875 7.3718839,8.223115 7.5612765,7.995278 7.78125,7.78125 8.221197,7.353194 8.72416,6.966724 9.28125,6.6875 9.559795,6.547888 9.8547231,6.440553 10.15625,6.34375 9.9000482,6.443972 9.6695391,6.580022 9.4375,6.71875 c -0.00741,0.0044 -0.023866,-0.0045 -0.03125,0 -0.031933,0.0193 -0.062293,0.04251 -0.09375,0.0625 -0.120395,0.0767 -0.2310226,0.163513 -0.34375,0.25 -0.1061728,0.0808 -0.2132809,0.161112 -0.3125,0.25 C 8.4783201,7.442683 8.3087904,7.626638 8.15625,7.8125 8.0486711,7.942755 7.9378561,8.077785 7.84375,8.21875 7.818661,8.25713 7.805304,8.30462 7.78125,8.34375 7.716487,8.446782 7.6510225,8.548267 7.59375,8.65625 7.4927417,8.850956 7.3880752,9.071951 7.3125,9.28125 7.30454,9.30306 7.288911,9.3218 7.28125,9.34375 7.2494249,9.4357 7.2454455,9.530581 7.21875,9.625 7.1884177,9.731618 7.1483606,9.828031 7.125,9.9375 7.0521214,10.279012 7,10.635705 7,11 l 0,2 0,68 0,2 c 0,2.781848 2.2181517,5 5,5 l 2,0 68,0 2,0 c 2.781848,0 5,-2.218152 5,-5 l 0,-2 0,-68 0,-2 C 89,10.635705 88.94788,10.279012 88.875,9.9375 88.83085,9.730607 88.78662,9.539842 88.71875,9.34375 88.71105,9.3218 88.69545,9.30306 88.6875,9.28125 88.62476,9.107511 88.549117,8.913801 88.46875,8.75 88.42717,8.6672 88.38971,8.580046 88.34375,8.5 88.28915,8.40279 88.216976,8.31165 88.15625,8.21875 88.06214,8.077785 87.951329,7.942755 87.84375,7.8125 87.700576,7.63805 87.540609,7.465502 87.375,7.3125 87.36383,7.3023 87.35502,7.29135 87.34375,7.28125 87.205364,7.155694 87.058659,7.046814 86.90625,6.9375 86.803679,6.86435 86.701932,6.784136 86.59375,6.71875 c -0.0074,-0.0045 -0.02384,0.0044 -0.03125,0 -0.232039,-0.138728 -0.462548,-0.274778 -0.71875,-0.375 0.301527,0.0968 0.596455,0.204138 0.875,0.34375 0.55709,0.279224 1.060053,0.665694 1.5,1.09375 0.219973,0.214028 0.409366,0.441865 0.59375,0.6875 0.184384,0.245635 0.355408,0.507743 0.5,0.78125 0.14012,0.265048 0.276135,0.524729 0.375,0.8125 0.01041,0.03078 0.02133,0.06274 0.03125,0.09375 0.09046,0.278085 0.1388,0.579404 0.1875,0.875 C 89.95865,11.3493 90,11.665279 90,12 l 0,2 0,68 0,2 c 0,3.324 -2.676,6 -6,6 l -72,0 z"
       inkscape:connector-curvature="0"
       id="path3615"
       style="opacity:0.2;fill:url(#radialGradient3619);fill-opacity:1;fill-rule:nonzero;stroke:none" />
  </g>
</svg>
