<?xml version="1.0" encoding="UTF-8" standalone="no"?>
<!-- Created with Inkscape (http://www.inkscape.org/) -->

<svg
   width="96"
   height="96"
   viewBox="0 0 96 96.000004"
   version="1.1"
   id="svg1"
   xml:space="preserve"
   sodipodi:docname="missioncenter.svg"
   inkscape:version="1.4.3 (0d15f75042, 2025-12-25)"
   inkscape:export-filename="../16/missioncenter.png"
   inkscape:export-xdpi="16"
   inkscape:export-ydpi="16"
   xmlns:inkscape="http://www.inkscape.org/namespaces/inkscape"
   xmlns:sodipodi="http://sodipodi.sourceforge.net/DTD/sodipodi-0.dtd"
   xmlns:xlink="http://www.w3.org/1999/xlink"
   xmlns="http://www.w3.org/2000/svg"
   xmlns:svg="http://www.w3.org/2000/svg"
   xmlns:rdf="http://www.w3.org/1999/02/22-rdf-syntax-ns#"
   xmlns:cc="http://creativecommons.org/ns#"><sodipodi:namedview
     id="namedview1"
     pagecolor="#b2b2b2"
     bordercolor="#111111"
     borderopacity="1"
     inkscape:showpageshadow="true"
     inkscape:pageopacity="0"
     inkscape:pagecheckerboard="true"
     inkscape:deskcolor="#505050"
     inkscape:document-units="px"
     inkscape:zoom="8"
     inkscape:cx="49.25"
     inkscape:cy="53.625"
     inkscape:window-width="1872"
     inkscape:window-height="1020"
     inkscape:window-x="48"
     inkscape:window-y="32"
     inkscape:window-maximized="1"
     inkscape:current-layer="layer1"
     showborder="true"
     showgrid="false" /><defs
     id="defs1"><linearGradient
       id="linearGradient29"
       inkscape:collect="always"><stop
         style="stop-color:#f6f5f4;stop-opacity:1;"
         offset="0"
         id="stop29" /><stop
         style="stop-color:#8c8c8b;stop-opacity:1;"
         offset="1"
         id="stop30" /></linearGradient><linearGradient
       id="linearGradient8-1"><stop
         style="stop-color:#fffdf8;stop-opacity:0;"
         offset="0"
         id="stop25" /><stop
         style="stop-color:#fffcf8;stop-opacity:1;"
         offset="0.5"
         id="stop26" /></linearGradient><linearGradient
       id="linearGradient8"><stop
         style="stop-color:#d5d3cf;stop-opacity:0;"
         offset="0"
         id="stop15" /><stop
         style="stop-color:#e4e1de;stop-opacity:1;"
         offset="0.04"
         id="stop16" /><stop
         style="stop-color:#d5d3cf;stop-opacity:0;"
         offset="0.07"
         id="stop17" /><stop
         style="stop-color:#d5d3cf;stop-opacity:0;"
         offset="0.93000001"
         id="stop18" /><stop
         style="stop-color:#e4e1de;stop-opacity:1;"
         offset="0.95999998"
         id="stop19" /><stop
         style="stop-color:#d5d3cf;stop-opacity:0;"
         offset="1"
         id="stop20" /></linearGradient><linearGradient
       id="linearGradient8-2"><stop
         style="stop-color:#fffdf8;stop-opacity:0;"
         offset="0"
         id="stop7" /><stop
         style="stop-color:#fffcf8;stop-opacity:1;"
         offset="1"
         id="stop9" /></linearGradient><linearGradient
       id="linearGradient10"
       inkscape:collect="always"><stop
         style="stop-color:#f6f5f4;stop-opacity:1;"
         offset="0"
         id="stop1" /><stop
         style="stop-color:#c4c4c3;stop-opacity:1;"
         offset="1"
         id="stop2" /></linearGradient><linearGradient
       id="linearGradient13"
       inkscape:collect="always"><stop
         style="stop-color:#ffffff;stop-opacity:1;"
         offset="0"
         id="stop13" /><stop
         style="stop-color:#ffffff;stop-opacity:0;"
         offset="1"
         id="stop14" /></linearGradient><linearGradient
       id="linearGradient9"
       inkscape:collect="always"><stop
         style="stop-color:#000000;stop-opacity:1;"
         offset="0"
         id="stop3" /><stop
         style="stop-color:#000000;stop-opacity:0.58999997;"
         offset="1"
         id="stop4" /></linearGradient><linearGradient
       inkscape:collect="always"
       xlink:href="#linearGradient9"
       id="linearGradient2"
       x1="49"
       y1="93"
       x2="49"
       y2="7"
       gradientUnits="userSpaceOnUse"
       gradientTransform="translate(-1,-1)" /><linearGradient
       inkscape:collect="always"
       xlink:href="#linearGradient9"
       id="linearGradient3"
       gradientUnits="userSpaceOnUse"
       gradientTransform="matrix(1.0238095,0,0,1.0119048,-2.1666666,-1.0952381)"
       x1="49"
       y1="93"
       x2="49"
       y2="7" /><linearGradient
       inkscape:collect="always"
       xlink:href="#linearGradient9"
       id="linearGradient4"
       gradientUnits="userSpaceOnUse"
       gradientTransform="matrix(1.047619,0,0,1.0357143,-3.3333332,-2.2857148)"
       x1="49"
       y1="93"
       x2="49"
       y2="7" /><linearGradient
       inkscape:collect="always"
       xlink:href="#linearGradient9"
       id="linearGradient5"
       gradientUnits="userSpaceOnUse"
       gradientTransform="matrix(1.0714286,0,0,1.0714286,-4.5,-3.5714292)"
       x1="49"
       y1="93"
       x2="49"
       y2="7" /><linearGradient
       inkscape:collect="always"
       xlink:href="#linearGradient9"
       id="linearGradient6"
       gradientUnits="userSpaceOnUse"
       gradientTransform="matrix(1.0952381,0,0,1.0833334,-5.6666665,-4.6666672)"
       x1="49"
       y1="93"
       x2="49"
       y2="7" /><linearGradient
       inkscape:collect="always"
       xlink:href="#linearGradient13"
       id="linearGradient12"
       x1="6"
       y1="6"
       x2="6"
       y2="64"
       gradientUnits="userSpaceOnUse" /><radialGradient
       inkscape:collect="always"
       xlink:href="#linearGradient13"
       id="radialGradient14"
       cx="48"
       cy="90"
       fx="48"
       fy="90"
       r="42"
       gradientUnits="userSpaceOnUse" /><linearGradient
       inkscape:collect="always"
       xlink:href="#linearGradient10"
       id="linearGradient1"
       gradientUnits="userSpaceOnUse"
       x1="48"
       y1="6"
       x2="48"
       y2="90" /><linearGradient
       x1="45.447727"
       y1="92.539597"
       x2="45.447727"
       y2="7.0165396"
       id="ButtonShadow"
       gradientUnits="userSpaceOnUse"
       gradientTransform="scale(1.0058652,0.994169)"><stop
         id="stop3750"
         style="stop-color:#000000;stop-opacity:1"
         offset="0" /><stop
         id="stop3752"
         style="stop-color:#000000;stop-opacity:0.58823532"
         offset="1" /></linearGradient><filter
       color-interpolation-filters="sRGB"
       id="filter3174"
       x="-0.047720931"
       y="-0.048282354"
       width="1.0954419"
       height="1.0965647"><feGaussianBlur
         id="feGaussianBlur3176"
         stdDeviation="1.71" /></filter><filter
       x="-0.19578789"
       y="-0.19578789"
       width="1.3915758"
       height="1.3915758"
       color-interpolation-filters="sRGB"
       id="filter3794"><feGaussianBlur
         id="feGaussianBlur3796"
         stdDeviation="5.28" /></filter><linearGradient
       x1="48"
       y1="20.220806"
       x2="48"
       y2="138.66119"
       id="linearGradient3613"
       xlink:href="#linearGradient13"
       gradientUnits="userSpaceOnUse" /><clipPath
       id="clipPath3613"><rect
         width="84"
         height="84"
         rx="6"
         ry="6"
         x="6"
         y="6"
         id="rect3615"
         style="fill:#ffffff;fill-opacity:1;fill-rule:nonzero;stroke:none" /></clipPath><linearGradient
       inkscape:collect="always"
       xlink:href="#linearGradient8"
       id="linearGradient14"
       x1="6"
       y1="48"
       x2="90"
       y2="48"
       gradientUnits="userSpaceOnUse" /><mask
       maskUnits="userSpaceOnUse"
       id="mask21"><rect
         style="display:inline;opacity:1;fill:url(#linearGradient21);stroke:none;stroke-width:2;stroke-linecap:round;stroke-linejoin:round;paint-order:stroke markers fill"
         id="rect21"
         width="84"
         height="84"
         x="6"
         y="6"
         rx="6"
         ry="6" /></mask><linearGradient
       inkscape:collect="always"
       xlink:href="#linearGradient8-1"
       id="linearGradient21"
       gradientUnits="userSpaceOnUse"
       x1="48"
       y1="90"
       x2="48"
       y2="6" /><linearGradient
       inkscape:collect="always"
       xlink:href="#linearGradient8-2"
       id="linearGradient25"
       x1="48"
       y1="6"
       x2="48"
       y2="90"
       gradientUnits="userSpaceOnUse" /><linearGradient
       inkscape:collect="always"
       xlink:href="#linearGradient29"
       id="linearGradient30"
       x1="63.25"
       y1="87"
       x2="63.25"
       y2="9"
       gradientUnits="userSpaceOnUse"
       gradientTransform="matrix(1.0421053,0,0,0.62820512,-2.6631579,2.3461539)" /><linearGradient
       inkscape:collect="always"
       xlink:href="#linearGradient29"
       id="linearGradient32"
       x1="23.25"
       y1="87"
       x2="23.25"
       y2="9"
       gradientUnits="userSpaceOnUse"
       gradientTransform="matrix(1.0701754,0,0,1.025641,-1.6315789,-1.2307692)" /><linearGradient
       id="h"
       x1="93.539001"
       x2="58.923"
       y1="240.42"
       y2="240.42"
       gradientTransform="matrix(0.4875,0,0,0.32057286,43.025024,-9.0965331)"
       xlink:href="#g" /><linearGradient
       id="g"
       gradientUnits="userSpaceOnUse"><stop
         stop-color="#4fd2fd"
         offset="0"
         id="stop1-2" /><stop
         stop-color="#4fd2fd"
         stop-opacity="0"
         offset="1"
         id="stop2-9" /></linearGradient><clipPath
       id="f"><rect
         width="192"
         height="152"
         id="rect10"
         x="0"
         y="0" /></clipPath><mask
       id="e"><g
         filter="url(#b)"
         id="g11"><rect
           width="128"
           height="128"
           fill-opacity="0.236"
           id="rect11"
           x="0"
           y="0" /></g></mask><filter
       id="b"
       x="0"
       y="0"
       width="1"
       height="1"><feColorMatrix
         in="SourceGraphic"
         values="0 0 0 0 1 0 0 0 0 1 0 0 0 0 1 0 0 0 1 0"
         id="feColorMatrix3" /></filter><linearGradient
       inkscape:collect="always"
       xlink:href="#linearGradient29"
       id="linearGradient2294"
       gradientUnits="userSpaceOnUse"
       gradientTransform="matrix(1.0421053,0,0,0.39743589,-2.6631579,53.423077)"
       x1="63.25"
       y1="87"
       x2="63.25"
       y2="9" /><linearGradient
       inkscape:collect="always"
       xlink:href="#g"
       id="linearGradient2402"
       gradientTransform="matrix(0.4875,0,0,0.32057286,43.025024,-9.0965331)"
       x1="93.539001"
       y1="240.42"
       x2="58.923"
       y2="240.42" /><linearGradient
       inkscape:collect="always"
       xlink:href="#g"
       id="linearGradient2436"
       gradientTransform="matrix(0.4875,0,0,0.32057286,43.025024,-9.0965331)"
       x1="93.539001"
       y1="240.42"
       x2="58.923"
       y2="240.42" /><linearGradient
       inkscape:collect="always"
       xlink:href="#g"
       id="linearGradient2444"
       gradientTransform="matrix(0.4875,0,0,0.32057286,43.025024,-9.0965331)"
       x1="93.539001"
       y1="240.42"
       x2="58.923"
       y2="240.42" /><linearGradient
       inkscape:collect="always"
       xlink:href="#g"
       id="linearGradient2452"
       gradientTransform="matrix(0.4875,0,0,0.32057286,43.025024,-9.0965331)"
       x1="93.539001"
       y1="240.42"
       x2="58.923"
       y2="240.42" /></defs><g
     inkscape:label="Layer 1"
     inkscape:groupmode="layer"
     id="layer1"><g
       id="layer2"
       style="display:none"
       transform="translate(1.1040001,1.104)"><rect
         width="86"
         height="85"
         rx="6"
         ry="6"
         x="5"
         y="7"
         id="rect3745"
         style="opacity:0.9;fill:url(#ButtonShadow);fill-opacity:1;fill-rule:nonzero;stroke:none;filter:url(#filter3174)" /></g><g
       id="g6"
       inkscape:label="layer3"
       style="display:inline"><rect
         style="display:inline;opacity:0.08;fill:url(#linearGradient6);stroke:none;stroke-width:2;stroke-linecap:round;stroke-linejoin:round;paint-order:stroke markers fill"
         id="rect5"
         width="92"
         height="91"
         x="2"
         y="4"
         rx="10"
         ry="10" /><rect
         style="display:inline;opacity:0.1;fill:url(#linearGradient5);stroke:none;stroke-width:2;stroke-linecap:round;stroke-linejoin:round;paint-order:stroke markers fill"
         id="rect4"
         width="90"
         height="89"
         x="3"
         y="5"
         rx="9"
         ry="9" /><rect
         style="display:inline;opacity:0.2;fill:url(#linearGradient4);stroke:none;stroke-width:2;stroke-linecap:round;stroke-linejoin:round;paint-order:stroke markers fill"
         id="rect3"
         width="88"
         height="87"
         x="4"
         y="6"
         rx="8"
         ry="8" /><rect
         style="display:inline;opacity:0.3;fill:url(#linearGradient3);stroke:none;stroke-width:2;stroke-linecap:round;stroke-linejoin:round;paint-order:stroke markers fill"
         id="rect2"
         width="86"
         height="85"
         x="5"
         y="7.0000005"
         rx="7"
         ry="7" /><rect
         style="display:inline;opacity:0.45;fill:url(#linearGradient2);stroke:none;stroke-width:2;stroke-linecap:round;stroke-linejoin:round;paint-order:stroke markers fill"
         id="rect1"
         width="84"
         height="84"
         x="6"
         y="7"
         rx="6"
         ry="6" /></g><g
       id="g26"
       style="display:inline"
       inkscape:label="layer1"><rect
         style="display:inline;opacity:1;fill:url(#linearGradient1);stroke:none;stroke-width:2;stroke-linecap:round;stroke-linejoin:round;paint-order:stroke markers fill"
         id="rect6"
         width="84"
         height="84"
         x="6"
         y="6"
         rx="6"
         ry="6" /><rect
         style="display:inline;opacity:1;fill:url(#linearGradient14);stroke:none;stroke-width:2;stroke-linecap:round;stroke-linejoin:round;paint-order:stroke markers fill"
         id="rect7"
         width="84"
         height="84"
         x="6"
         y="6"
         rx="6"
         ry="6"
         mask="url(#mask21)"
         transform="rotate(180,48,48)" /><path
         id="rect9"
         style="display:inline;opacity:0.4;fill:url(#linearGradient12);stroke-width:1.99999;stroke-linecap:round;stroke-linejoin:round;paint-order:stroke markers fill"
         d="M 12,6 C 8.676,6 6,8.676 6,12 V 64 H 7 V 14 C 7,10.676 9.676,8 13,8 h 70 c 3.324,0 6,2.676 6,6 v 50 h 1 V 12 C 90,8.676 87.324,6 84,6 Z" /><path
         id="rect12"
         style="display:inline;opacity:0.2;fill:url(#radialGradient14);fill-opacity:1;stroke-width:2;stroke-linecap:round;stroke-linejoin:round;paint-order:stroke markers fill"
         d="M 12,6 C 8.676,6 6,8.676 6,12 v 72 c 0,3.324 2.676,6 6,6 h 72 c 3.324,0 6,-2.676 6,-6 V 12 C 90,8.676 87.324,6 84,6 h -1 c 3.324,0 6,2.676 6,6 v 70 c 0,3.324 -2.676,6 -6,6 H 13 C 9.676,88 7,85.324 7,82 V 12 C 7,8.676 9.676,6 13,6 Z" /><rect
         style="display:inline;fill:url(#linearGradient30);stroke-width:0.782624;stroke-linecap:round;paint-order:markers fill stroke"
         id="rect29"
         width="49.5"
         height="49"
         x="38.5"
         y="8"
         rx="8"
         ry="8" /><rect
         style="fill:#241f31;fill-opacity:1;stroke-width:0.769484;stroke-linecap:round;paint-order:markers fill stroke"
         id="rect22"
         width="45.5"
         height="45"
         x="40.5"
         y="10"
         rx="5.9999995"
         ry="6" /><rect
         style="display:inline;fill:url(#linearGradient32);stroke-width:0.999992;stroke-linecap:round;paint-order:markers fill stroke"
         id="rect30"
         width="30.499998"
         height="80"
         x="7.9999995"
         y="8"
         rx="8"
         ry="8" /><rect
         style="fill:#241f31;fill-opacity:1;stroke-width:0.999993;stroke-linecap:round;paint-order:markers fill stroke"
         id="rect23"
         width="26.5"
         height="76"
         x="10"
         y="10"
         rx="5.9999995"
         ry="6" /><rect
         style="display:inline;fill:url(#linearGradient2294);stroke-width:0.622495;stroke-linecap:round;paint-order:markers fill stroke"
         id="rect2292"
         width="49.5"
         height="31"
         x="38.5"
         y="57"
         rx="8"
         ry="8" /><path
         id="rect24"
         style="display:inline;fill:url(#linearGradient25);fill-opacity:1;stroke-linecap:round;paint-order:markers fill stroke"
         d="M 16 10 C 12.676 10 10 12.676 10 16 L 10 48.894531 A 84 31.5 0 0 1 36.5 34.214844 L 36.5 16 C 36.5 12.676 33.824 10 30.5 10 L 16 10 z M 46.5 10 C 43.176 10 40.5 12.676 40.5 16 L 40.5 33.050781 A 84 31.5 0 0 1 86 27.035156 L 86 16 C 86 12.676 83.324 10 80 10 L 46.5 10 z " /><g
         id="g33"
         transform="matrix(1.3333457,0,0,1.3333294,-47.417761,-55.636231)"
         style="stroke-width:0.999995"><path
           transform="matrix(0.4875,0,0,0.32057286,43.025024,-9.0965333)"
           d="m 54.308,243.08 20.768923,-0.005 5.769231,-13.2698 3.461538,22.50073 4.615385,-9.23073 20.769023,0.004"
           fill="none"
           stroke="#4fd2fd"
           stroke-miterlimit="10"
           stroke-width="5.73343"
           id="path28"
           style="display:inline;opacity:0.25;stroke-width:3.82282357;stroke-dasharray:none"
           sodipodi:nodetypes="cccccc" /><path
           d="m 70.263524,68.826723 h 9.3615 l 2.8125,-4.253936 1.6875,7.213124 2.25,-2.959124 h 1.6875"
           fill="none"
           stroke="url(#h)"
           stroke-linecap="round"
           stroke-miterlimit="10"
           stroke-width="2.2665"
           id="path29"
           style="stroke:url(#h);stroke-width:1.51124522;stroke-dasharray:none" /></g><rect
         style="fill:#241f31;fill-opacity:1;stroke-width:0.59604;stroke-linecap:round;paint-order:markers fill stroke"
         id="rect2297"
         width="45.5"
         height="27"
         x="40.5"
         y="59"
         rx="5.9999995"
         ry="6" /><path
         id="path2136"
         d="m 55.703125,69.904296 v 0.375 h 0.769531 v 2.648438 c 0,0.336804 0.07813,0.597222 0.234375,0.78125 0.157986,0.184027 0.379557,0.277344 0.666016,0.277344 h 0.607422 v -0.40625 h -0.560547 c -0.154514,0 -0.271702,-0.05469 -0.351563,-0.164063 -0.07812,-0.109375 -0.117187,-0.273004 -0.117187,-0.488281 v -3.023438 z m 4.208984,0.0293 v 0.607423 h 0.478521 v -0.607423 z m 12.843751,0 v 0.607423 h 0.47852 V 69.933595 Z M 69.25,70.240237 v 0.828125 h -0.77734 v 0.373046 H 69.25 v 1.583985 c 0,0.35243 0.0751,0.600043 0.22266,0.74414 0.14757,0.144096 0.40039,0.216798 0.75976,0.216798 h 0.58594 V 73.603515 H 70.2793 c -0.20313,0 -0.34614,-0.04384 -0.42774,-0.128906 -0.0816,-0.08507 -0.12109,-0.233942 -0.12109,-0.449219 v -1.583984 h 1.08789 v -0.373047 h -1.08789 v -0.828125 z m -22.054688,0.757812 c -0.152777,0 -0.309461,0.01801 -0.472656,0.05273 -0.161458,0.03299 -0.330729,0.08268 -0.507813,0.150389 v 0.480469 c 0.157986,-0.09028 0.319662,-0.160158 0.486329,-0.207031 0.166666,-0.04687 0.330946,-0.07031 0.49414,-0.07031 0.255209,0 0.442275,0.05425 0.558594,0.160157 0.116322,0.104167 0.174048,0.271268 0.175781,0.503906 v 0.07617 h -0.642578 c -0.421874,0 -0.742188,0.08355 -0.960937,0.251952 C 46.109159,72.564885 46,72.812065 46,73.136717 c 0,0.28125 0.08854,0.505426 0.265625,0.673828 0.177083,0.166667 0.414063,0.25 0.710937,0.25 0.222223,0 0.411893,-0.0395 0.566407,-0.121094 0.156249,-0.08333 0.284288,-0.213108 0.386718,-0.386718 v 0.433594 h 0.482422 v -1.664063 c 0,-0.255208 -0.01324,-0.447483 -0.04102,-0.574219 -0.02778,-0.128472 -0.07465,-0.23546 -0.140624,-0.322265 -0.105903,-0.142362 -0.246094,-0.249133 -0.417969,-0.320313 -0.170139,-0.07118 -0.375869,-0.107422 -0.617188,-0.107422 z m 3.425781,0 c -0.17361,0 -0.327256,0.03885 -0.460937,0.115234 -0.131944,0.07465 -0.238498,0.184028 -0.318359,0.328125 v -0.373046 h -0.482422 v 4.027342 h 0.482422 v -1.476562 c 0.07639,0.144097 0.180555,0.25369 0.3125,0.330078 0.13368,0.07465 0.289714,0.111328 0.466796,0.111328 0.350695,0 0.626737,-0.133246 0.828126,-0.402344 C 51.650607,73.387372 51.75,73.014976 51.75,72.541018 c 0,-0.482639 -0.09939,-0.860243 -0.300781,-1.132813 -0.199653,-0.272569 -0.475695,-0.410156 -0.828126,-0.410156 z m 3.210938,0 c -0.17361,0 -0.327257,0.03885 -0.460938,0.115234 -0.131944,0.07465 -0.238498,0.184028 -0.318359,0.328125 v -0.373046 h -0.482422 v 4.027342 h 0.482422 v -1.476562 c 0.07639,0.144097 0.180556,0.25369 0.3125,0.330078 0.133681,0.07465 0.289714,0.111328 0.466797,0.111328 0.350694,0 0.626736,-0.133246 0.828125,-0.402344 0.201388,-0.270832 0.300781,-0.643229 0.300781,-1.117187 0,-0.482638 -0.09939,-0.860243 -0.300781,-1.132813 -0.199652,-0.272568 -0.475695,-0.410156 -0.828125,-0.410155 z m 9.824219,0 c -0.45139,0 -0.80339,0.135416 -1.05859,0.40625 -0.25348,0.270833 -0.38086,0.645834 -0.38086,1.125 0,0.479166 0.12738,0.854167 0.38086,1.125 0.2552,0.270833 0.6072,0.406249 1.05859,0.406249 0.14236,0 0.28255,-0.01845 0.41797,-0.05664 0.13715,-0.03646 0.26996,-0.09136 0.39844,-0.166016 v -0.498047 c -0.11285,0.107642 -0.23525,0.188156 -0.36719,0.240236 -0.13195,0.05035 -0.28255,0.07422 -0.44922,0.07422 -0.29861,0 -0.52821,-0.09657 -0.69141,-0.291016 -0.16145,-0.196181 -0.24218,-0.474609 -0.24218,-0.833984 0,-0.36111 0.0807,-0.637588 0.24218,-0.832031 0.16146,-0.194445 0.39106,-0.292969 0.69141,-0.292969 0.16146,0 0.30686,0.02583 0.43359,0.07617 0.12848,0.05035 0.25608,0.131294 0.38282,0.244141 v -0.501953 c -0.13542,-0.07639 -0.27062,-0.133462 -0.4043,-0.169922 -0.13368,-0.03646 -0.27149,-0.05469 -0.41211,-0.05469 z m 2.80469,0 c -0.15278,0 -0.30946,0.01801 -0.47266,0.05273 -0.16146,0.03299 -0.33073,0.08268 -0.50781,0.150389 v 0.480469 c 0.15798,-0.09028 0.31966,-0.160158 0.48633,-0.207031 0.16666,-0.04687 0.33094,-0.07031 0.49414,-0.07031 0.2552,0 0.44227,0.05425 0.55859,0.160157 0.11632,0.104167 0.17405,0.271268 0.17578,0.503906 v 0.07617 h -0.64258 c -0.42187,0 -0.74218,0.08355 -0.96093,0.251952 -0.21702,0.168403 -0.32617,0.415582 -0.32617,0.740235 0,0.28125 0.0885,0.505426 0.26562,0.673827 0.17708,0.166667 0.41406,0.250001 0.71094,0.250001 0.22222,0 0.41189,-0.0395 0.5664,-0.121094 0.15625,-0.08333 0.28429,-0.213108 0.38672,-0.386718 v 0.433594 h 0.48242 v -1.664063 c 0,-0.255208 -0.0132,-0.447483 -0.041,-0.574219 -0.0278,-0.128472 -0.0746,-0.23546 -0.14062,-0.322265 -0.1059,-0.142362 -0.2461,-0.249133 -0.41797,-0.320313 -0.17014,-0.07118 -0.37587,-0.107422 -0.61719,-0.107422 z m 9.69531,0 c -0.40451,0 -0.71224,0.132378 -0.92578,0.394532 -0.21354,0.262151 -0.32031,0.64019 -0.32031,1.136718 0,0.498263 0.10677,0.878472 0.32031,1.140625 0.21354,0.260416 0.52127,0.390624 0.92578,0.390624 0.40625,0 0.71614,-0.130208 0.92969,-0.390625 0.21354,-0.262152 0.32031,-0.642362 0.32031,-1.140625 0,-0.496527 -0.10699,-0.874566 -0.32227,-1.136718 -0.21354,-0.262153 -0.52322,-0.394532 -0.92773,-0.394531 z m 3.45898,0 c -0.19965,0 -0.37174,0.04405 -0.51757,0.130859 -0.14584,0.08507 -0.26259,0.210287 -0.34766,0.376954 v -0.4375 h -0.47852 v 2.917969 H 78.75 v -1.648438 c 0,-0.296875 0.0599,-0.525608 0.17969,-0.683594 0.12153,-0.159722 0.29557,-0.238281 0.51953,-0.238281 0.19618,0 0.33962,0.06033 0.43164,0.183594 0.092,0.123264 0.13867,0.315972 0.13867,0.578125 v 1.808594 H 80.5 v -1.808597 c 0,-0.395833 -0.0731,-0.690322 -0.2207,-0.884766 -0.14584,-0.19618 -0.36719,-0.294922 -0.66407,-0.294922 z m -20.451168,0.07031 v 0.373047 h 0.748047 v 2.171875 h -0.951172 v 0.373047 H 61.3418 v -0.373047 h -0.95117 v -2.544922 z m 12.843748,0 v 0.373047 h 0.74805 v 2.171875 h -0.95117 v 0.373047 h 2.38086 v -0.373047 h -0.95117 v -2.544922 z m -21.457029,0.335937 c 0.230902,0 0.403212,0.09592 0.519531,0.285156 0.118055,0.189236 0.177735,0.468317 0.177735,0.839844 0,0.371527 -0.05968,0.652561 -0.177735,0.841797 -0.116319,0.189235 -0.288629,0.283203 -0.519531,0.283203 -0.232638,0 -0.409505,-0.09418 -0.529297,-0.285156 -0.119791,-0.190973 -0.179687,-0.471789 -0.179687,-0.839844 0,-0.369792 0.0599,-0.648656 0.179687,-0.83789 0.119792,-0.190972 0.296659,-0.28711 0.529297,-0.28711 z m 3.210938,0 c 0.230902,0 0.403212,0.09592 0.519531,0.285156 0.118055,0.189236 0.177734,0.468317 0.177734,0.839844 0,0.371527 -0.05968,0.652561 -0.177734,0.841797 -0.116319,0.189235 -0.288629,0.283203 -0.519531,0.283203 -0.23264,0 -0.409506,-0.09418 -0.529297,-0.285156 -0.119792,-0.190973 -0.179688,-0.471789 -0.179688,-0.839844 0,-0.369792 0.0599,-0.648656 0.179688,-0.83789 0.119791,-0.190972 0.296657,-0.28711 0.529297,-0.28711 z m 22.394531,0 c 0.24479,0 0.42969,0.09592 0.55469,0.285156 0.125,0.189236 0.1875,0.468317 0.1875,0.839844 0,0.369791 -0.0625,0.650824 -0.1875,0.841797 -0.125,0.189235 -0.3099,0.283203 -0.55469,0.283203 -0.24305,0 -0.42578,-0.09397 -0.55078,-0.283203 -0.125,-0.190973 -0.1875,-0.472006 -0.1875,-0.841797 0,-0.371527 0.0625,-0.650608 0.1875,-0.839844 0.125,-0.189236 0.30773,-0.285156 0.55078,-0.285156 z m -28.832031,1.115235 h 0.158203 0.447265 v 0.107421 c -0.0017,0.322917 -0.07747,0.575739 -0.228515,0.759766 -0.151042,0.182291 -0.359159,0.273438 -0.623047,0.273438 -0.1875,0 -0.333551,-0.04926 -0.439453,-0.146485 -0.105903,-0.09722 -0.158204,-0.232856 -0.158203,-0.408203 0,-0.194445 0.07031,-0.340278 0.210937,-0.4375 0.142361,-0.09896 0.353299,-0.148437 0.632813,-0.148437 z m 19.265621,0 h 0.15821 0.44726 v 0.107421 c -0.002,0.322917 -0.0775,0.575739 -0.22851,0.759766 -0.15105,0.182291 -0.35916,0.273438 -0.62305,0.273438 -0.1875,0 -0.33355,-0.04926 -0.43945,-0.146485 -0.10591,-0.09722 -0.15821,-0.232856 -0.15821,-0.408203 0,-0.194445 0.0703,-0.340278 0.21094,-0.4375 0.14236,-0.09896 0.3533,-0.148437 0.63281,-0.148437 z"
         style="font-size:5.33333px;font-family:'DejaVu Sans Mono';-inkscape-font-specification:'DejaVu Sans Mono, Normal';display:inline;fill:#4fd2fd" /><g
         id="g2466"><g
           id="g2400"
           transform="matrix(0.88889964,0,0,0.88887478,-50.528694,-38.356695)"
           style="stroke-width:0.999995"><path
             transform="matrix(0.4875,0,0,0.32057286,43.025024,-9.0965333)"
             d="m 54.308,243.08 20.768923,-0.005 5.769231,-13.2698 3.461538,22.50073 4.615385,-9.23073 20.769023,0.004"
             fill="none"
             stroke="#4fd2fd"
             stroke-miterlimit="10"
             stroke-width="5.73343"
             id="path2396"
             style="display:inline;opacity:0.25;stroke-width:3.82282;stroke-dasharray:none"
             sodipodi:nodetypes="cccccc" /><path
             d="m 70.263524,68.826723 h 9.3615 l 2.8125,-4.253936 1.6875,7.213124 2.25,-2.959124 h 1.6875"
             fill="none"
             stroke="url(#h)"
             stroke-linecap="round"
             stroke-miterlimit="10"
             stroke-width="2.2665"
             id="path2398"
             style="stroke:url(#linearGradient2402);stroke-width:1.51125;stroke-dasharray:none" /></g><g
           id="g2432"
           transform="matrix(0.88889964,0,0,0.88887478,-50.528694,-21.130895)"
           style="stroke-width:0.999995"><path
             transform="matrix(0.4875,0,0,0.32057286,43.025024,-9.0965333)"
             d="m 54.308,243.08 20.768923,-0.005 5.769231,-13.2698 3.461538,22.50073 4.615385,-9.23073 20.769023,0.004"
             fill="none"
             stroke="#4fd2fd"
             stroke-miterlimit="10"
             stroke-width="5.73343"
             id="path2428"
             style="display:inline;opacity:0.25;stroke-width:3.82282;stroke-dasharray:none"
             sodipodi:nodetypes="cccccc" /><path
             d="m 70.263524,68.826723 h 9.3615 l 2.8125,-4.253936 1.6875,7.213124 2.25,-2.959124 h 1.6875"
             fill="none"
             stroke="url(#h)"
             stroke-linecap="round"
             stroke-miterlimit="10"
             stroke-width="2.2665"
             id="path2430"
             style="stroke:url(#linearGradient2436);stroke-width:1.51125;stroke-dasharray:none" /></g><g
           id="g2442"
           transform="matrix(0.88889964,0,0,0.88887478,-50.528694,-3.9046947)"
           style="stroke-width:0.999995"><path
             transform="matrix(0.4875,0,0,0.32057286,43.025024,-9.0965333)"
             d="m 54.308,243.08 20.768923,-0.005 5.769231,-13.2698 3.461538,22.50073 4.615385,-9.23073 20.769023,0.004"
             fill="none"
             stroke="#4fd2fd"
             stroke-miterlimit="10"
             stroke-width="5.73343"
             id="path2438"
             style="display:inline;opacity:0.25;stroke-width:3.82282;stroke-dasharray:none"
             sodipodi:nodetypes="cccccc" /><path
             d="m 70.263524,68.826723 h 9.3615 l 2.8125,-4.253936 1.6875,7.213124 2.25,-2.959124 h 1.6875"
             fill="none"
             stroke="url(#h)"
             stroke-linecap="round"
             stroke-miterlimit="10"
             stroke-width="2.2665"
             id="path2440"
             style="stroke:url(#linearGradient2444);stroke-width:1.51125;stroke-dasharray:none" /></g><g
           id="g2450"
           transform="matrix(0.88889964,0,0,0.88887478,-50.528694,13.321305)"
           style="stroke-width:0.999995"><path
             transform="matrix(0.4875,0,0,0.32057286,43.025024,-9.0965333)"
             d="m 54.308,243.08 20.768923,-0.005 5.769231,-13.2698 3.461538,22.50073 4.615385,-9.23073 20.769023,0.004"
             fill="none"
             stroke="#4fd2fd"
             stroke-miterlimit="10"
             stroke-width="5.73343"
             id="path2446"
             style="display:inline;opacity:0.25;stroke-width:3.82282;stroke-dasharray:none"
             sodipodi:nodetypes="cccccc" /><path
             d="m 70.263524,68.826723 h 9.3615 l 2.8125,-4.253936 1.6875,7.213124 2.25,-2.959124 h 1.6875"
             fill="none"
             stroke="url(#h)"
             stroke-linecap="round"
             stroke-miterlimit="10"
             stroke-width="2.2665"
             id="path2448"
             style="stroke:url(#linearGradient2452);stroke-width:1.51125;stroke-dasharray:none" /></g></g></g><g
       id="layer5"
       style="display:inline"><rect
         width="66"
         height="66"
         rx="12"
         ry="12"
         x="15"
         y="15"
         clip-path="url(#clipPath3613)"
         id="rect3171"
         style="opacity:0.1;fill:url(#linearGradient3613);fill-opacity:1;fill-rule:nonzero;stroke:#ffffff;stroke-width:0.5;stroke-linecap:round;stroke-linejoin:miter;stroke-miterlimit:4;stroke-dasharray:none;stroke-dashoffset:0;stroke-opacity:1;filter:url(#filter3794)" /></g></g><metadata
     id="metadata1"><rdf:RDF><cc:Work
         rdf:about="" /></rdf:RDF></metadata></svg>
