<?xml version="1.0" encoding="UTF-8" standalone="no"?>
<!-- Created with Inkscape (http://www.inkscape.org/) -->

<svg
   width="96"
   height="96"
   viewBox="0 0 96 96.000004"
   version="1.1"
   id="svg1"
   xml:space="preserve"
   sodipodi:docname="steam_icon_362890.svg"
   inkscape:version="1.4.3 (0d15f75042, 2025-12-25)"
   inkscape:export-filename="../48/BlackMesa.png"
   inkscape:export-xdpi="48"
   inkscape:export-ydpi="48"
   xmlns:inkscape="http://www.inkscape.org/namespaces/inkscape"
   xmlns:sodipodi="http://sodipodi.sourceforge.net/DTD/sodipodi-0.dtd"
   xmlns:xlink="http://www.w3.org/1999/xlink"
   xmlns="http://www.w3.org/2000/svg"
   xmlns:svg="http://www.w3.org/2000/svg"
   xmlns:rdf="http://www.w3.org/1999/02/22-rdf-syntax-ns#"
   xmlns:cc="http://creativecommons.org/ns#"><sodipodi:namedview
     id="namedview1"
     pagecolor="#505050"
     bordercolor="#eeeeee"
     borderopacity="1"
     inkscape:showpageshadow="0"
     inkscape:pageopacity="0"
     inkscape:pagecheckerboard="0"
     inkscape:deskcolor="#505050"
     inkscape:document-units="px"
     inkscape:zoom="0.70710681"
     inkscape:cx="-312.54118"
     inkscape:cy="91.923877"
     inkscape:window-width="1872"
     inkscape:window-height="1020"
     inkscape:window-x="48"
     inkscape:window-y="32"
     inkscape:window-maximized="1"
     inkscape:current-layer="layer1" /><defs
     id="defs1"><linearGradient
       id="linearGradient8"
       inkscape:collect="always"><stop
         style="stop-color:#ffffff;stop-opacity:1;"
         offset="0.80000001"
         id="stop8" /><stop
         style="stop-color:#e5e5e5;stop-opacity:1;"
         offset="1"
         id="stop9" /></linearGradient><linearGradient
       id="linearGradient10"
       inkscape:collect="always"><stop
         style="stop-color:#f17511;stop-opacity:1;"
         offset="0"
         id="stop1" /><stop
         style="stop-color:#bf5d0d;stop-opacity:1;"
         offset="1"
         id="stop2" /></linearGradient><linearGradient
       id="linearGradient13"
       inkscape:collect="always"><stop
         style="stop-color:#ffffff;stop-opacity:1;"
         offset="0"
         id="stop13" /><stop
         style="stop-color:#ffffff;stop-opacity:0;"
         offset="1"
         id="stop14" /></linearGradient><linearGradient
       id="linearGradient9"
       inkscape:collect="always"><stop
         style="stop-color:#000000;stop-opacity:1;"
         offset="0"
         id="stop3" /><stop
         style="stop-color:#000000;stop-opacity:0.58999997;"
         offset="1"
         id="stop4" /></linearGradient><linearGradient
       inkscape:collect="always"
       xlink:href="#linearGradient9"
       id="linearGradient2"
       x1="49"
       y1="93"
       x2="49"
       y2="7"
       gradientUnits="userSpaceOnUse"
       gradientTransform="translate(-1,-1)" /><linearGradient
       inkscape:collect="always"
       xlink:href="#linearGradient9"
       id="linearGradient3"
       gradientUnits="userSpaceOnUse"
       gradientTransform="matrix(1.0238095,0,0,1.0119048,-2.1666666,-1.0952381)"
       x1="49"
       y1="93"
       x2="49"
       y2="7" /><linearGradient
       inkscape:collect="always"
       xlink:href="#linearGradient9"
       id="linearGradient4"
       gradientUnits="userSpaceOnUse"
       gradientTransform="matrix(1.047619,0,0,1.0357143,-3.3333332,-2.2857148)"
       x1="49"
       y1="93"
       x2="49"
       y2="7" /><linearGradient
       inkscape:collect="always"
       xlink:href="#linearGradient9"
       id="linearGradient5"
       gradientUnits="userSpaceOnUse"
       gradientTransform="matrix(1.0714286,0,0,1.0714286,-4.5,-3.5714292)"
       x1="49"
       y1="93"
       x2="49"
       y2="7" /><linearGradient
       inkscape:collect="always"
       xlink:href="#linearGradient9"
       id="linearGradient6"
       gradientUnits="userSpaceOnUse"
       gradientTransform="matrix(1.0952381,0,0,1.0833334,-5.6666665,-4.6666672)"
       x1="49"
       y1="93"
       x2="49"
       y2="7" /><linearGradient
       inkscape:collect="always"
       xlink:href="#linearGradient13"
       id="linearGradient12"
       x1="6"
       y1="6"
       x2="6"
       y2="64"
       gradientUnits="userSpaceOnUse" /><radialGradient
       inkscape:collect="always"
       xlink:href="#linearGradient13"
       id="radialGradient14"
       cx="48"
       cy="90"
       fx="48"
       fy="90"
       r="42"
       gradientUnits="userSpaceOnUse" /><linearGradient
       inkscape:collect="always"
       xlink:href="#linearGradient10"
       id="linearGradient1"
       gradientUnits="userSpaceOnUse"
       x1="48"
       y1="6"
       x2="48"
       y2="90" /><linearGradient
       x1="45.447727"
       y1="92.539597"
       x2="45.447727"
       y2="7.0165396"
       id="ButtonShadow"
       gradientUnits="userSpaceOnUse"
       gradientTransform="scale(1.0058652,0.994169)"><stop
         id="stop3750"
         style="stop-color:#000000;stop-opacity:1"
         offset="0" /><stop
         id="stop3752"
         style="stop-color:#000000;stop-opacity:0.58823532"
         offset="1" /></linearGradient><filter
       color-interpolation-filters="sRGB"
       id="filter3174"
       x="-0.047720931"
       y="-0.048282354"
       width="1.0954419"
       height="1.0965647"><feGaussianBlur
         id="feGaussianBlur3176"
         stdDeviation="1.71" /></filter><filter
       x="-0.19578789"
       y="-0.19578789"
       width="1.3915758"
       height="1.3915758"
       color-interpolation-filters="sRGB"
       id="filter3794"><feGaussianBlur
         id="feGaussianBlur3796"
         stdDeviation="5.28" /></filter><linearGradient
       x1="48"
       y1="20.220806"
       x2="48"
       y2="138.66119"
       id="linearGradient3613"
       xlink:href="#linearGradient13"
       gradientUnits="userSpaceOnUse" /><clipPath
       id="clipPath3613"><rect
         width="84"
         height="84"
         rx="6"
         ry="6"
         x="6"
         y="6"
         id="rect3615"
         style="fill:#ffffff;fill-opacity:1;fill-rule:nonzero;stroke:none" /></clipPath><filter
       inkscape:collect="always"
       style="color-interpolation-filters:sRGB"
       id="filter7"
       x="-0.048"
       y="-0.048"
       width="1.096"
       height="1.096"><feGaussianBlur
         inkscape:collect="always"
         stdDeviation="1.24"
         id="feGaussianBlur7" /></filter><radialGradient
       inkscape:collect="always"
       xlink:href="#linearGradient8"
       id="radialGradient9"
       cx="48"
       cy="48"
       fx="48"
       fy="48"
       r="31"
       gradientUnits="userSpaceOnUse" /><linearGradient
       gradientUnits="userSpaceOnUse"
       xlink:href="#linearGradient4750"
       id="linearGradient3680"
       y2="5.9877172"
       x2="48"
       y1="90"
       x1="48" /><linearGradient
       x1="45.447727"
       y1="92.539597"
       x2="45.447727"
       y2="7.0165396"
       id="linearGradient4750"
       gradientUnits="userSpaceOnUse"
       gradientTransform="scale(1.0058652,0.994169)"><stop
         id="stop4746"
         style="stop-color:#323232;stop-opacity:1"
         offset="0" /><stop
         id="stop4748"
         style="stop-color:#505050;stop-opacity:1;"
         offset="1" /></linearGradient></defs><g
     inkscape:label="Layer 1"
     inkscape:groupmode="layer"
     id="layer1"><g
       id="layer2"
       style="display:none"
       transform="translate(1.1040001,1.104)"><rect
         width="86"
         height="85"
         rx="6"
         ry="6"
         x="5"
         y="7"
         id="rect3745"
         style="opacity:0.9;fill:url(#ButtonShadow);fill-opacity:1;fill-rule:nonzero;stroke:none;filter:url(#filter3174)" /></g><g
       id="g6"
       inkscape:label="layer3"
       style="display:inline"><rect
         style="display:inline;opacity:0.08;fill:url(#linearGradient6);stroke:none;stroke-width:2;stroke-linecap:round;stroke-linejoin:round;paint-order:stroke markers fill"
         id="rect5"
         width="92"
         height="91"
         x="2"
         y="4"
         rx="10"
         ry="10" /><rect
         style="display:inline;opacity:0.1;fill:url(#linearGradient5);stroke:none;stroke-width:2;stroke-linecap:round;stroke-linejoin:round;paint-order:stroke markers fill"
         id="rect4"
         width="90"
         height="89"
         x="3"
         y="5"
         rx="9"
         ry="9" /><rect
         style="display:inline;opacity:0.2;fill:url(#linearGradient4);stroke:none;stroke-width:2;stroke-linecap:round;stroke-linejoin:round;paint-order:stroke markers fill"
         id="rect3"
         width="88"
         height="87"
         x="4"
         y="6"
         rx="8"
         ry="8" /><rect
         style="display:inline;opacity:0.3;fill:url(#linearGradient3);stroke:none;stroke-width:2;stroke-linecap:round;stroke-linejoin:round;paint-order:stroke markers fill"
         id="rect2"
         width="86"
         height="85"
         x="5"
         y="7.0000005"
         rx="7"
         ry="7" /><rect
         style="display:inline;opacity:0.45;fill:url(#linearGradient2);stroke:none;stroke-width:2;stroke-linecap:round;stroke-linejoin:round;paint-order:stroke markers fill"
         id="rect1"
         width="84"
         height="84"
         x="6"
         y="7"
         rx="6"
         ry="6" /></g><g
       id="g26"
       style="display:inline"
       inkscape:label="layer1"><rect
         style="display:inline;opacity:1;fill:url(#linearGradient1);stroke:none;stroke-width:2;stroke-linecap:round;stroke-linejoin:round;paint-order:stroke markers fill"
         id="rect6"
         width="84"
         height="84"
         x="6"
         y="6"
         rx="6"
         ry="6" /><path
         id="rect9"
         style="display:inline;opacity:0.4;fill:url(#linearGradient12);stroke-width:1.99999;stroke-linecap:round;stroke-linejoin:round;paint-order:stroke markers fill"
         d="M 12,6 C 8.676,6 6,8.676 6,12 V 64 H 7 V 14 C 7,10.676 9.676,8 13,8 h 70 c 3.324,0 6,2.676 6,6 v 50 h 1 V 12 C 90,8.676 87.324,6 84,6 Z" /><path
         id="rect12"
         style="display:inline;opacity:0.2;fill:url(#radialGradient14);fill-opacity:1;stroke-width:2;stroke-linecap:round;stroke-linejoin:round;paint-order:stroke markers fill"
         d="M 12,6 C 8.676,6 6,8.676 6,12 v 72 c 0,3.324 2.676,6 6,6 h 72 c 3.324,0 6,-2.676 6,-6 V 12 C 90,8.676 87.324,6 84,6 h -1 c 3.324,0 6,2.676 6,6 v 70 c 0,3.324 -2.676,6 -6,6 H 13 C 9.676,88 7,85.324 7,82 V 12 C 7,8.676 9.676,6 13,6 Z" /></g><g
       id="g7"
       inkscape:label="Layer4"><path
         id="path7"
         style="display:inline;fill:#000000;stroke-linecap:round;stroke-linejoin:round;paint-order:stroke fill markers;opacity:0.5;fill-opacity:1;filter:url(#filter7)"
         d="M 48 17 A 31 31 0 0 0 17 48 A 31 31 0 0 0 48 79 A 31 31 0 0 0 79 48 A 31 31 0 0 0 48 17 z M 48 23 A 25 25 0 0 1 73 48 A 25 25 0 0 1 71.585938 56.289062 L 64 46.507812 L 40 46.507812 L 40 62.5 L 27.634766 62.5 A 25 25 0 0 1 23 48 A 25 25 0 0 1 48 23 z " /><path
         id="path1"
         style="display:inline;fill:url(#radialGradient9);stroke-linecap:round;stroke-linejoin:round;paint-order:stroke fill markers;opacity:1;fill-opacity:1"
         d="M 48 17 A 31 31 0 0 0 17 48 A 31 31 0 0 0 48 79 A 31 31 0 0 0 79 48 A 31 31 0 0 0 48 17 z M 48 23 A 25 25 0 0 1 73 48 A 25 25 0 0 1 71.585938 56.289062 L 64 46.507812 L 40 46.507812 L 40 62.5 L 27.634766 62.5 A 25 25 0 0 1 23 48 A 25 25 0 0 1 48 23 z " /></g><g
       id="layer5"
       style="display:inline"><rect
         width="66"
         height="66"
         rx="12"
         ry="12"
         x="15"
         y="15"
         clip-path="url(#clipPath3613)"
         id="rect3171"
         style="opacity:0.1;fill:url(#linearGradient3613);fill-opacity:1;fill-rule:nonzero;stroke:#ffffff;stroke-width:0.5;stroke-linecap:round;stroke-linejoin:miter;stroke-miterlimit:4;stroke-dasharray:none;stroke-dashoffset:0;stroke-opacity:1;filter:url(#filter3794)" /></g></g><metadata
     id="metadata1"><rdf:RDF><cc:Work
         rdf:about="" /></rdf:RDF></metadata></svg>
