<?xml version="1.0" encoding="UTF-8" standalone="no"?>
<!-- Created with Inkscape (http://www.inkscape.org/) -->

<svg
   width="96"
   height="96"
   viewBox="0 0 96 96.000004"
   version="1.1"
   id="svg1"
   xml:space="preserve"
   sodipodi:docname="steam_icon_945360.svg"
   inkscape:version="1.4.3 (0d15f75042, 2025-12-25)"
   inkscape:export-filename="../16/steam_icon_945360.png"
   inkscape:export-xdpi="16"
   inkscape:export-ydpi="16"
   xmlns:inkscape="http://www.inkscape.org/namespaces/inkscape"
   xmlns:sodipodi="http://sodipodi.sourceforge.net/DTD/sodipodi-0.dtd"
   xmlns:xlink="http://www.w3.org/1999/xlink"
   xmlns="http://www.w3.org/2000/svg"
   xmlns:svg="http://www.w3.org/2000/svg"
   xmlns:rdf="http://www.w3.org/1999/02/22-rdf-syntax-ns#"
   xmlns:cc="http://creativecommons.org/ns#"><sodipodi:namedview
     id="namedview1"
     pagecolor="#505050"
     bordercolor="#eeeeee"
     borderopacity="1"
     inkscape:showpageshadow="0"
     inkscape:pageopacity="0"
     inkscape:pagecheckerboard="0"
     inkscape:deskcolor="#505050"
     inkscape:document-units="px"
     inkscape:zoom="7.8336"
     inkscape:cx="17.680249"
     inkscape:cy="45.317606"
     inkscape:window-width="1920"
     inkscape:window-height="1020"
     inkscape:window-x="0"
     inkscape:window-y="32"
     inkscape:window-maximized="1"
     inkscape:current-layer="g26" /><defs
     id="defs1"><linearGradient
       id="linearGradient11"
       inkscape:collect="always"><stop
         style="stop-color:#ffffff;stop-opacity:1;"
         offset="0"
         id="stop11" /><stop
         style="stop-color:#74dbf4;stop-opacity:1;"
         offset="1"
         id="stop12" /></linearGradient><linearGradient
       id="linearGradient10"
       inkscape:collect="always"><stop
         style="stop-color:#ffde2a;stop-opacity:1;"
         offset="0"
         id="stop1" /><stop
         style="stop-color:#ccb222;stop-opacity:1;"
         offset="1"
         id="stop2" /></linearGradient><linearGradient
       id="linearGradient13"
       inkscape:collect="always"><stop
         style="stop-color:#ffffff;stop-opacity:1;"
         offset="0"
         id="stop13" /><stop
         style="stop-color:#ffffff;stop-opacity:0;"
         offset="1"
         id="stop14" /></linearGradient><linearGradient
       id="linearGradient9"
       inkscape:collect="always"><stop
         style="stop-color:#000000;stop-opacity:1;"
         offset="0"
         id="stop3" /><stop
         style="stop-color:#000000;stop-opacity:0.58999997;"
         offset="1"
         id="stop4" /></linearGradient><linearGradient
       id="linearGradient7"
       inkscape:collect="always"><stop
         style="stop-color:#7d4698;stop-opacity:1;"
         offset="0"
         id="stop7" /><stop
         style="stop-color:#59316b;stop-opacity:1;"
         offset="1"
         id="stop8" /></linearGradient><linearGradient
       inkscape:collect="always"
       xlink:href="#linearGradient9"
       id="linearGradient2"
       x1="49"
       y1="93"
       x2="49"
       y2="7"
       gradientUnits="userSpaceOnUse"
       gradientTransform="translate(-1,-1)" /><linearGradient
       inkscape:collect="always"
       xlink:href="#linearGradient9"
       id="linearGradient3"
       gradientUnits="userSpaceOnUse"
       gradientTransform="matrix(1.0238095,0,0,1.0119048,-2.1666666,-1.0952381)"
       x1="49"
       y1="93"
       x2="49"
       y2="7" /><linearGradient
       inkscape:collect="always"
       xlink:href="#linearGradient9"
       id="linearGradient4"
       gradientUnits="userSpaceOnUse"
       gradientTransform="matrix(1.047619,0,0,1.0357143,-3.3333332,-2.2857148)"
       x1="49"
       y1="93"
       x2="49"
       y2="7" /><linearGradient
       inkscape:collect="always"
       xlink:href="#linearGradient9"
       id="linearGradient5"
       gradientUnits="userSpaceOnUse"
       gradientTransform="matrix(1.0714286,0,0,1.0714286,-4.5,-3.5714292)"
       x1="49"
       y1="93"
       x2="49"
       y2="7" /><linearGradient
       inkscape:collect="always"
       xlink:href="#linearGradient9"
       id="linearGradient6"
       gradientUnits="userSpaceOnUse"
       gradientTransform="matrix(1.0952381,0,0,1.0833334,-5.6666665,-4.6666672)"
       x1="49"
       y1="93"
       x2="49"
       y2="7" /><linearGradient
       inkscape:collect="always"
       xlink:href="#linearGradient7"
       id="linearGradient8"
       x1="48"
       y1="6"
       x2="48"
       y2="90"
       gradientUnits="userSpaceOnUse" /><linearGradient
       x1="198.26646"
       y1="346.52609"
       x2="198.26646"
       y2="20.550627"
       id="linearGradient-1"
       gradientTransform="scale(0.7086423,1.4111492)"
       gradientUnits="userSpaceOnUse"><stop
         stop-color="#420C5D"
         offset="0%"
         id="stop1-3" /><stop
         stop-color="#951AD1"
         offset="100%"
         id="stop2-6" /></linearGradient><path
       d="M25,29 C152.577777,29 256,131.974508 256,259 C256,386.025492 152.577777,489 25,489 L25,29 Z"
       id="path-2" /><filter
       x="-0.13852814"
       y="-0.052173913"
       width="1.2424242"
       height="1.1043478"
       filterUnits="objectBoundingBox"
       id="filter-3"><feOffset
         dx="-8"
         dy="0"
         in="SourceAlpha"
         result="shadowOffsetOuter1"
         id="feOffset2" /><feGaussianBlur
         stdDeviation="10"
         in="shadowOffsetOuter1"
         result="shadowBlurOuter1"
         id="feGaussianBlur2" /><feColorMatrix
         values="0 0 0 0 0.250980392   0 0 0 0 0.250980392   0 0 0 0 0.250980392  0 0 0 0.2 0"
         type="matrix"
         in="shadowBlurOuter1"
         id="feColorMatrix2" /></filter><linearGradient
       inkscape:collect="always"
       xlink:href="#linearGradient13"
       id="linearGradient12"
       x1="6"
       y1="6"
       x2="6"
       y2="64"
       gradientUnits="userSpaceOnUse" /><radialGradient
       inkscape:collect="always"
       xlink:href="#linearGradient13"
       id="radialGradient14"
       cx="48"
       cy="90"
       fx="48"
       fy="90"
       r="42"
       gradientUnits="userSpaceOnUse" /><path
       d="M25,29 C152.577777,29 256,131.974508 256,259 C256,386.025492 152.577777,489 25,489 L25,29 Z"
       id="path-2-5" /><filter
       x="-0.034633829"
       y="-9.0131971e-07"
       width="1.0346356"
       height="1.0000018"
       filterUnits="objectBoundingBox"
       id="filter-3-3"><feOffset
         dx="-8"
         dy="0"
         in="SourceAlpha"
         result="shadowOffsetOuter1"
         id="feOffset2-5" /><feGaussianBlur
         stdDeviation="0.00017274414"
         in="shadowOffsetOuter1"
         result="shadowBlurOuter1"
         id="feGaussianBlur2-6" /><feColorMatrix
         values="0 0 0 0 0.250980392   0 0 0 0 0.250980392   0 0 0 0 0.250980392  0 0 0 0.2 0"
         type="matrix"
         in="shadowBlurOuter1"
         id="feColorMatrix2-2" /></filter><clipPath
       clipPathUnits="userSpaceOnUse"
       id="clipPath22"><rect
         style="opacity:1;fill:url(#linearGradient8);stroke:none;stroke-width:2;stroke-linecap:round;stroke-linejoin:round;paint-order:stroke markers fill"
         id="rect23"
         width="84"
         height="84"
         x="6"
         y="6"
         rx="6"
         ry="6" /></clipPath><clipPath
       clipPathUnits="userSpaceOnUse"
       id="clipPath26"><rect
         style="display:inline;opacity:1;fill:url(#linearGradient8);stroke:none;stroke-width:2;stroke-linecap:round;stroke-linejoin:round;paint-order:stroke markers fill"
         id="rect27"
         width="84"
         height="84"
         x="6"
         y="6"
         rx="6"
         ry="6" /></clipPath><linearGradient
       inkscape:collect="always"
       xlink:href="#linearGradient10"
       id="linearGradient1"
       gradientUnits="userSpaceOnUse"
       x1="48"
       y1="6"
       x2="48"
       y2="90" /><linearGradient
       x1="45.447727"
       y1="92.539597"
       x2="45.447727"
       y2="7.0165396"
       id="ButtonShadow"
       gradientUnits="userSpaceOnUse"
       gradientTransform="scale(1.0058652,0.994169)"><stop
         id="stop3750"
         style="stop-color:#000000;stop-opacity:1"
         offset="0" /><stop
         id="stop3752"
         style="stop-color:#000000;stop-opacity:0.58823532"
         offset="1" /></linearGradient><linearGradient
       id="linearGradient3700"><stop
         id="stop3702"
         style="stop-color:#2295c5;stop-opacity:1"
         offset="0" /><stop
         id="stop3704"
         style="stop-color:#68d8f4;stop-opacity:1"
         offset="1" /></linearGradient><filter
       color-interpolation-filters="sRGB"
       id="filter3174"
       x="-0.047720931"
       y="-0.048282354"
       width="1.0954419"
       height="1.0965647"><feGaussianBlur
         id="feGaussianBlur3176"
         stdDeviation="1.71" /></filter><linearGradient
       x1="36.357143"
       y1="6"
       x2="36.357143"
       y2="63.893143"
       id="linearGradient3188"
       xlink:href="#linearGradient13"
       gradientUnits="userSpaceOnUse" /><filter
       x="-0.19578789"
       y="-0.19578789"
       width="1.3915758"
       height="1.3915758"
       color-interpolation-filters="sRGB"
       id="filter3794"><feGaussianBlur
         id="feGaussianBlur3796"
         stdDeviation="5.28" /></filter><linearGradient
       x1="48"
       y1="20.220806"
       x2="48"
       y2="138.66119"
       id="linearGradient3613"
       xlink:href="#linearGradient13"
       gradientUnits="userSpaceOnUse" /><radialGradient
       cx="48"
       cy="90.171875"
       r="42"
       fx="48"
       fy="90.171875"
       id="radialGradient3619"
       xlink:href="#linearGradient13"
       gradientUnits="userSpaceOnUse"
       gradientTransform="matrix(1.1573129,0,0,0.99590774,-7.5510206,0.19713193)" /><clipPath
       id="clipPath3613"><rect
         width="84"
         height="84"
         rx="6"
         ry="6"
         x="6"
         y="6"
         id="rect3615"
         style="fill:#ffffff;fill-opacity:1;fill-rule:nonzero;stroke:none" /></clipPath><linearGradient
       x1="48"
       y1="90"
       x2="48"
       y2="5.9877172"
       id="linearGradient3617"
       xlink:href="#linearGradient3700"
       gradientUnits="userSpaceOnUse" /><linearGradient
       x1="45.447727"
       y1="92.539597"
       x2="45.447727"
       y2="7.0165396"
       id="ButtonShadow-0"
       gradientUnits="userSpaceOnUse"
       gradientTransform="matrix(1.0058652,0,0,0.994169,100,0)"><stop
         id="stop3750-8"
         style="stop-color:#000000;stop-opacity:1"
         offset="0" /><stop
         id="stop3752-5"
         style="stop-color:#000000;stop-opacity:0.58823532"
         offset="1" /></linearGradient><linearGradient
       x1="32.251034"
       y1="6.1317081"
       x2="32.251034"
       y2="90.238609"
       id="linearGradient3780"
       xlink:href="#ButtonShadow-0"
       gradientUnits="userSpaceOnUse"
       gradientTransform="matrix(1.0238095,0,0,1.0119048,-1.1428571,-98.071429)" /><linearGradient
       x1="32.251034"
       y1="6.1317081"
       x2="32.251034"
       y2="90.238609"
       id="linearGradient3721"
       xlink:href="#ButtonShadow-0"
       gradientUnits="userSpaceOnUse"
       gradientTransform="translate(0,-97)" /><linearGradient
       inkscape:collect="always"
       xlink:href="#linearGradient11"
       id="linearGradient14"
       x1="32.456005"
       y1="35.409752"
       x2="34.525333"
       y2="48.564117"
       gradientUnits="userSpaceOnUse" /></defs><g
     inkscape:label="Layer 1"
     inkscape:groupmode="layer"
     id="layer1"><g
       id="layer2"
       style="display:none"
       transform="translate(1.1040001,1.104)"><rect
         width="86"
         height="85"
         rx="6"
         ry="6"
         x="5"
         y="7"
         id="rect3745"
         style="opacity:0.9;fill:url(#ButtonShadow);fill-opacity:1;fill-rule:nonzero;stroke:none;filter:url(#filter3174)" /></g><g
       id="g6"
       inkscape:label="layer3"
       style="display:inline"><rect
         style="display:inline;opacity:0.08;fill:url(#linearGradient6);stroke:none;stroke-width:2;stroke-linecap:round;stroke-linejoin:round;paint-order:stroke markers fill"
         id="rect5"
         width="92"
         height="91"
         x="2"
         y="4"
         rx="10"
         ry="10" /><rect
         style="display:inline;opacity:0.1;fill:url(#linearGradient5);stroke:none;stroke-width:2;stroke-linecap:round;stroke-linejoin:round;paint-order:stroke markers fill"
         id="rect4"
         width="90"
         height="89"
         x="3"
         y="5"
         rx="9"
         ry="9" /><rect
         style="display:inline;opacity:0.2;fill:url(#linearGradient4);stroke:none;stroke-width:2;stroke-linecap:round;stroke-linejoin:round;paint-order:stroke markers fill"
         id="rect3"
         width="88"
         height="87"
         x="4"
         y="6"
         rx="8"
         ry="8" /><rect
         style="display:inline;opacity:0.3;fill:url(#linearGradient3);stroke:none;stroke-width:2;stroke-linecap:round;stroke-linejoin:round;paint-order:stroke markers fill"
         id="rect2"
         width="86"
         height="85"
         x="5"
         y="7.0000005"
         rx="7"
         ry="7" /><rect
         style="display:inline;opacity:0.45;fill:url(#linearGradient2);stroke:none;stroke-width:2;stroke-linecap:round;stroke-linejoin:round;paint-order:stroke markers fill"
         id="rect1"
         width="84"
         height="84"
         x="6"
         y="7"
         rx="6"
         ry="6" /></g><g
       id="g26"
       style="display:inline"
       inkscape:label="layer1"><rect
         style="display:inline;opacity:1;fill:url(#linearGradient1);stroke:none;stroke-width:2;stroke-linecap:round;stroke-linejoin:round;paint-order:stroke markers fill"
         id="rect6"
         width="84"
         height="84"
         x="6"
         y="6"
         rx="6"
         ry="6" /><g
         id="g17"
         inkscape:label="Layer4"><path
           id="rect15"
           style="paint-order:stroke markers fill;fill:#000000;fill-opacity:1"
           d="M 77.345703 41.464844 C 74.149556 41.471417 71.359375 42.685547 71.359375 42.685547 L 71.359375 90 L 84 90 C 85.800924 90 87.411801 89.215297 88.509766 87.966797 C 88.916166 75.399851 88.315836 55.092754 85.761719 47.482422 C 84.142938 42.65905 80.54185 41.458271 77.345703 41.464844 z " /><path
           id="rect16"
           style="fill-opacity:1;paint-order:stroke markers fill;fill:#880933"
           d="M 76.6875 45.835938 C 74.974299 45.942832 73.59375 46.449219 73.59375 46.449219 L 74.179688 90 L 84 90 C 85.66626 85.085966 84.437202 50.814333 81.777344 47.619141 C 80.447415 46.021544 78.400701 45.729043 76.6875 45.835938 z " /><path
           id="rect17"
           style="fill:#f21717;fill-opacity:1;paint-order:stroke markers fill"
           d="M 76.6875 45.835938 C 74.974594 45.942813 73.594225 46.449045 73.59375 46.449219 L 73.720703 55.820312 C 76.314909 57.893525 83.485459 57.714478 83.425781 54.464844 C 82.972246 50.948113 82.416336 48.386739 81.777344 47.619141 C 80.447415 46.021544 78.400701 45.729042 76.6875 45.835938 z " /><path
           id="rect7"
           style="fill:#000000;fill-opacity:1;paint-order:stroke markers fill"
           d="M 47.818624,14.75116 C 37.645812,14.855988 28.310759,19.682583 23.186971,27.632283 12.926962,43.550973 15.027192,69.81064 15.09375,90 H 72.832031 C 71.806327,71.520425 74.691139,36.570085 65.608215,23.909098 61.569314,18.27914 55.73081,14.669627 47.818624,14.75116 Z"
           sodipodi:nodetypes="ssccss" /><path
           id="path15"
           style="fill:#880933;fill-opacity:1;paint-order:stroke markers fill"
           d="M 47.443359 17.785156 C 27.271121 17.712205 18.913772 35.784029 18.474609 52.330078 C 18.039192 68.73501 17.955002 80.981046 18.197266 90 L 70.140625 90 C 70.106455 80.433188 69.935432 69.194828 69.615234 56.060547 C 69.140541 36.588974 65.945525 17.852068 47.443359 17.785156 z " /><path
           id="path14"
           style="fill-opacity:1;paint-order:stroke markers fill;fill:#f21717"
           d="M 66.45711,53.01921 C 66.653534,77.643717 55.063479,84.555073 42.296206,84.978066 25.00727,85.550867 19.171062,78.108768 21.060352,51.84919 22.248134,35.339987 31.261917,18.334245 47.32729,18.954317 64.659367,19.623281 66.301749,33.542471 66.45711,53.01921 Z"
           sodipodi:nodetypes="sssss" /><path
           id="path1"
           style="fill:#000000;fill-opacity:1;paint-order:stroke markers fill"
           d="M 56.175624,44.758486 C 56.076887,54.688075 49.931542,61.537948 36.014021,60.97413 22.194576,60.414285 11.349819,55.368572 11.053911,46.826808 10.594677,33.570433 20.611456,29.84084 38.165076,29.9493 c 16.229881,0.10028 18.095507,6.265184 18.010548,14.809186 z"
           sodipodi:nodetypes="sssss" /><path
           id="path2"
           style="fill:#225584;fill-opacity:1;paint-order:stroke markers fill"
           d="m 52.535377,44.427554 c -0.57913,6.807033 -2.783194,11.390705 -16.604089,11.913535 -10.935129,0.413664 -18.888738,-1.42022 -20.327069,-9.845213 -1.20383,-7.051409 3.178397,-13.217487 21.402597,-12.823597 9.186345,0.19855 16.252889,2.241607 15.528561,10.755275 z"
           sodipodi:nodetypes="sssss" /><path
           id="path3"
           style="fill:url(#linearGradient14);fill-opacity:1;paint-order:stroke markers fill;opacity:1"
           d="m 48.481466,40.704574 c -1.092133,2.598318 -0.326934,8.768765 -16.024959,7.859625 -10.365364,-0.600303 -15.883911,1.569729 -15.114898,-4.467576 0.579244,-4.547482 5.590395,-9.970419 17.183221,-8.686953 8.435256,0.933885 15.504432,1.612512 13.956636,5.294904 z"
           sodipodi:nodetypes="sssss" /></g><path
         id="rect9"
         style="display:inline;opacity:0.4;fill:url(#linearGradient12);stroke-width:1.99999;stroke-linecap:round;stroke-linejoin:round;paint-order:stroke markers fill"
         d="M 12,6 C 8.676,6 6,8.676 6,12 V 64 H 7 V 14 C 7,10.676 9.676,8 13,8 h 70 c 3.324,0 6,2.676 6,6 v 50 h 1 V 12 C 90,8.676 87.324,6 84,6 Z" /><path
         id="rect12"
         style="display:inline;opacity:0.2;fill:url(#radialGradient14);fill-opacity:1;stroke-width:2;stroke-linecap:round;stroke-linejoin:round;paint-order:stroke markers fill"
         d="M 12,6 C 8.676,6 6,8.676 6,12 v 72 c 0,3.324 2.676,6 6,6 h 72 c 3.324,0 6,-2.676 6,-6 V 12 C 90,8.676 87.324,6 84,6 h -1 c 3.324,0 6,2.676 6,6 v 70 c 0,3.324 -2.676,6 -6,6 H 13 C 9.676,88 7,85.324 7,82 V 12 C 7,8.676 9.676,6 13,6 Z" /></g><g
       id="layer5"
       style="display:none"><rect
         width="66"
         height="66"
         rx="12"
         ry="12"
         x="15"
         y="15"
         clip-path="url(#clipPath3613)"
         id="rect3171"
         style="opacity:0.1;fill:url(#linearGradient3613);fill-opacity:1;fill-rule:nonzero;stroke:#ffffff;stroke-width:0.5;stroke-linecap:round;stroke-linejoin:miter;stroke-miterlimit:4;stroke-dasharray:none;stroke-dashoffset:0;stroke-opacity:1;filter:url(#filter3794)" /></g></g><metadata
     id="metadata1"><rdf:RDF><cc:Work
         rdf:about="" /></rdf:RDF></metadata></svg>
