<?xml version="1.0" encoding="UTF-8" standalone="no"?>
<!-- Created with Inkscape (http://www.inkscape.org/) -->

<svg
   width="96"
   height="96"
   viewBox="0 0 96.000001 96.000001"
   version="1.1"
   id="svg1"
   sodipodi:docname="tor.svg"
   inkscape:version="1.4.3 (0d15f75042, 2025-12-25)"
   xml:space="preserve"
   inkscape:export-filename="tor.png"
   inkscape:export-xdpi="96"
   inkscape:export-ydpi="96"
   xmlns:inkscape="http://www.inkscape.org/namespaces/inkscape"
   xmlns:sodipodi="http://sodipodi.sourceforge.net/DTD/sodipodi-0.dtd"
   xmlns:xlink="http://www.w3.org/1999/xlink"
   xmlns="http://www.w3.org/2000/svg"
   xmlns:svg="http://www.w3.org/2000/svg"
   xmlns:rdf="http://www.w3.org/1999/02/22-rdf-syntax-ns#"
   xmlns:cc="http://creativecommons.org/ns#"><sodipodi:namedview
     id="namedview1"
     pagecolor="#505050"
     bordercolor="#eeeeee"
     borderopacity="1"
     inkscape:showpageshadow="0"
     inkscape:pageopacity="0"
     inkscape:pagecheckerboard="0"
     inkscape:deskcolor="#505050"
     inkscape:document-units="px"
     inkscape:zoom="7.8336"
     inkscape:cx="50.232333"
     inkscape:cy="22.850286"
     inkscape:window-width="1920"
     inkscape:window-height="1020"
     inkscape:window-x="0"
     inkscape:window-y="32"
     inkscape:window-maximized="1"
     inkscape:current-layer="layer1" /><defs
     id="defs1"><linearGradient
       id="linearGradient39"
       inkscape:collect="always"><stop
         style="stop-color:#f2e4ff;stop-opacity:1;"
         offset="0"
         id="stop39" /><stop
         style="stop-color:#c7bdd1;stop-opacity:1;"
         offset="1"
         id="stop40" /></linearGradient><linearGradient
       id="linearGradient13"
       inkscape:collect="always"><stop
         style="stop-color:#ffffff;stop-opacity:1;"
         offset="0"
         id="stop13" /><stop
         style="stop-color:#ffffff;stop-opacity:0;"
         offset="1"
         id="stop14" /></linearGradient><linearGradient
       id="linearGradient11"
       inkscape:collect="always"><stop
         style="stop-color:#ffffff;stop-opacity:1;"
         offset="0"
         id="stop11" /><stop
         style="stop-color:#ffffff;stop-opacity:0;"
         offset="1"
         id="stop12" /></linearGradient><linearGradient
       id="linearGradient9"
       inkscape:collect="always"><stop
         style="stop-color:#000000;stop-opacity:1;"
         offset="0"
         id="stop3" /><stop
         style="stop-color:#000000;stop-opacity:0.58999997;"
         offset="1"
         id="stop4" /></linearGradient><linearGradient
       id="linearGradient7"
       inkscape:collect="always"><stop
         style="stop-color:#7d4698;stop-opacity:1;"
         offset="0"
         id="stop7" /><stop
         style="stop-color:#59316b;stop-opacity:1;"
         offset="1"
         id="stop8" /></linearGradient><linearGradient
       id="linearGradient1"
       inkscape:collect="always"><stop
         style="stop-color:#000000;stop-opacity:1;"
         offset="0"
         id="stop1" /><stop
         style="stop-color:#000000;stop-opacity:0.58999997;"
         offset="1"
         id="stop2" /></linearGradient><linearGradient
       inkscape:collect="always"
       xlink:href="#linearGradient1"
       id="linearGradient2"
       x1="49"
       y1="93"
       x2="49"
       y2="7"
       gradientUnits="userSpaceOnUse"
       gradientTransform="translate(-1,-1)" /><linearGradient
       inkscape:collect="always"
       xlink:href="#linearGradient9"
       id="linearGradient3"
       gradientUnits="userSpaceOnUse"
       gradientTransform="matrix(1.0238095,0,0,1.0119048,-2.1666666,-1.0952381)"
       x1="49"
       y1="93"
       x2="49"
       y2="7" /><linearGradient
       inkscape:collect="always"
       xlink:href="#linearGradient1"
       id="linearGradient4"
       gradientUnits="userSpaceOnUse"
       gradientTransform="matrix(1.047619,0,0,1.0357143,-3.3333332,-2.2857148)"
       x1="49"
       y1="93"
       x2="49"
       y2="7" /><linearGradient
       inkscape:collect="always"
       xlink:href="#linearGradient1"
       id="linearGradient5"
       gradientUnits="userSpaceOnUse"
       gradientTransform="matrix(1.0714286,0,0,1.0714286,-4.5,-3.5714292)"
       x1="49"
       y1="93"
       x2="49"
       y2="7" /><linearGradient
       inkscape:collect="always"
       xlink:href="#linearGradient1"
       id="linearGradient6"
       gradientUnits="userSpaceOnUse"
       gradientTransform="matrix(1.0952381,0,0,1.0833334,-5.6666665,-4.6666672)"
       x1="49"
       y1="93"
       x2="49"
       y2="7" /><linearGradient
       inkscape:collect="always"
       xlink:href="#linearGradient7"
       id="linearGradient8"
       x1="48"
       y1="6"
       x2="48"
       y2="90"
       gradientUnits="userSpaceOnUse" /><linearGradient
       x1="198.26646"
       y1="346.52609"
       x2="198.26646"
       y2="20.550627"
       id="linearGradient-1"
       gradientTransform="scale(0.7086423,1.4111492)"
       gradientUnits="userSpaceOnUse"><stop
         stop-color="#420C5D"
         offset="0%"
         id="stop1-3" /><stop
         stop-color="#951AD1"
         offset="100%"
         id="stop2-6" /></linearGradient><path
       d="M25,29 C152.577777,29 256,131.974508 256,259 C256,386.025492 152.577777,489 25,489 L25,29 Z"
       id="path-2" /><filter
       x="-0.13852814"
       y="-0.052173913"
       width="1.2424242"
       height="1.1043478"
       filterUnits="objectBoundingBox"
       id="filter-3"><feOffset
         dx="-8"
         dy="0"
         in="SourceAlpha"
         result="shadowOffsetOuter1"
         id="feOffset2" /><feGaussianBlur
         stdDeviation="10"
         in="shadowOffsetOuter1"
         result="shadowBlurOuter1"
         id="feGaussianBlur2" /><feColorMatrix
         values="0 0 0 0 0.250980392   0 0 0 0 0.250980392   0 0 0 0 0.250980392  0 0 0 0.2 0"
         type="matrix"
         in="shadowBlurOuter1"
         id="feColorMatrix2" /></filter><linearGradient
       inkscape:collect="always"
       xlink:href="#linearGradient11"
       id="linearGradient12"
       x1="6"
       y1="6"
       x2="6"
       y2="64"
       gradientUnits="userSpaceOnUse" /><radialGradient
       inkscape:collect="always"
       xlink:href="#linearGradient13"
       id="radialGradient14"
       cx="48"
       cy="90"
       fx="48"
       fy="90"
       r="42"
       gradientUnits="userSpaceOnUse" /><linearGradient
       inkscape:collect="always"
       xlink:href="#linearGradient-1"
       id="linearGradient15"
       x1="48"
       y1="105"
       x2="48"
       y2="-9"
       gradientUnits="userSpaceOnUse" /><linearGradient
       x1="198.26646"
       y1="346.52609"
       x2="198.26646"
       y2="20.550627"
       id="linearGradient-1-3"
       gradientTransform="scale(0.7086423,1.4111492)"
       gradientUnits="userSpaceOnUse"><stop
         stop-color="#420C5D"
         offset="0%"
         id="stop1-6" /><stop
         stop-color="#951AD1"
         offset="100%"
         id="stop2-7" /></linearGradient><path
       d="M25,29 C152.577777,29 256,131.974508 256,259 C256,386.025492 152.577777,489 25,489 L25,29 Z"
       id="path-2-5" /><filter
       x="-0.034633829"
       y="-9.0131971e-07"
       width="1.0346356"
       height="1.0000018"
       filterUnits="objectBoundingBox"
       id="filter-3-3"><feOffset
         dx="-8"
         dy="0"
         in="SourceAlpha"
         result="shadowOffsetOuter1"
         id="feOffset2-5" /><feGaussianBlur
         stdDeviation="0.00017274414"
         in="shadowOffsetOuter1"
         result="shadowBlurOuter1"
         id="feGaussianBlur2-6" /><feColorMatrix
         values="0 0 0 0 0.250980392   0 0 0 0 0.250980392   0 0 0 0 0.250980392  0 0 0 0.2 0"
         type="matrix"
         in="shadowBlurOuter1"
         id="feColorMatrix2-2" /></filter><filter
       inkscape:collect="always"
       style="color-interpolation-filters:sRGB"
       id="filter22"
       x="-0.1045458"
       y="-0.052272902"
       width="1.2090916"
       height="1.1045458"><feGaussianBlur
         inkscape:collect="always"
         stdDeviation="2.4829628"
         id="feGaussianBlur22" /></filter><clipPath
       clipPathUnits="userSpaceOnUse"
       id="clipPath22"><rect
         style="opacity:1;fill:url(#linearGradient23);stroke:none;stroke-width:2;stroke-linecap:round;stroke-linejoin:round;paint-order:stroke markers fill"
         id="rect23"
         width="84"
         height="84"
         x="6"
         y="6"
         rx="6"
         ry="6" /></clipPath><linearGradient
       inkscape:collect="always"
       xlink:href="#linearGradient7"
       id="linearGradient23"
       gradientUnits="userSpaceOnUse"
       x1="48"
       y1="6"
       x2="48"
       y2="90" /><filter
       inkscape:collect="always"
       style="color-interpolation-filters:sRGB"
       id="filter26"
       x="-0.033292801"
       y="-0.016646401"
       width="1.0665856"
       height="1.0332928"><feGaussianBlur
         inkscape:collect="always"
         stdDeviation="0.582624"
         id="feGaussianBlur26" /></filter><clipPath
       clipPathUnits="userSpaceOnUse"
       id="clipPath26"><rect
         style="display:inline;opacity:1;fill:url(#linearGradient27);stroke:none;stroke-width:2;stroke-linecap:round;stroke-linejoin:round;paint-order:stroke markers fill"
         id="rect27"
         width="84"
         height="84"
         x="6"
         y="6"
         rx="6"
         ry="6" /></clipPath><linearGradient
       inkscape:collect="always"
       xlink:href="#linearGradient7"
       id="linearGradient27"
       gradientUnits="userSpaceOnUse"
       x1="48"
       y1="6"
       x2="48"
       y2="90" /><linearGradient
       inkscape:collect="always"
       xlink:href="#linearGradient39"
       id="linearGradient40"
       x1="48"
       y1="6"
       x2="48"
       y2="90"
       gradientUnits="userSpaceOnUse" /></defs><g
     inkscape:label="Layer 1"
     inkscape:groupmode="layer"
     id="layer1"><path
       id="path28"
       style="display:none;opacity:1;fill:#000000;fill-opacity:1;stroke:none;stroke-width:4;stroke-linecap:round;stroke-linejoin:round;stroke-dasharray:none;stroke-opacity:1;paint-order:stroke markers fill"
       d="M 48,-5.11 V 2.6478342 C 72.575065,2.7187994 92.474252,22.658225 92.474252,47.249522 92.474252,71.842596 72.575065,91.782197 48,91.853162 V 99.611 C 76.859558,99.54 100.232,76.127133 100.232,47.249522 100.232,18.373686 76.859558,-5.0372598 48,-5.11 Z m 0,19.398492 v 7.755881 c 13.861174,0.07274 25.081829,11.326085 25.081829,25.205149 0,13.880841 -11.220655,25.134364 -25.081829,25.207102 v 7.755881 C 66.147439,80.141535 80.83958,65.4149 80.83958,47.249522 80.83958,29.085918 66.147439,14.359457 48,14.288492 Z m 0,19.392633 V 60.819872 C 55.435322,60.748902 61.445204,54.704443 61.445204,47.249522 61.445204,39.796378 55.435323,33.75209 48,33.681125 Z" /><g
       id="g6"
       inkscape:label="layer3"><rect
         style="display:inline;opacity:0.08;fill:url(#linearGradient6);stroke:none;stroke-width:2;stroke-linecap:round;stroke-linejoin:round;paint-order:stroke markers fill"
         id="rect5"
         width="92"
         height="91"
         x="2"
         y="4"
         rx="10"
         ry="10" /><rect
         style="display:inline;opacity:0.1;fill:url(#linearGradient5);stroke:none;stroke-width:2;stroke-linecap:round;stroke-linejoin:round;paint-order:stroke markers fill"
         id="rect4"
         width="90"
         height="89"
         x="3"
         y="5"
         rx="9"
         ry="9" /><rect
         style="display:inline;opacity:0.2;fill:url(#linearGradient4);stroke:none;stroke-width:2;stroke-linecap:round;stroke-linejoin:round;paint-order:stroke markers fill"
         id="rect3"
         width="88"
         height="87"
         x="4"
         y="6"
         rx="8"
         ry="8" /><rect
         style="display:inline;opacity:0.3;fill:url(#linearGradient3);stroke:none;stroke-width:2;stroke-linecap:round;stroke-linejoin:round;paint-order:stroke markers fill"
         id="rect2"
         width="86"
         height="85"
         x="5"
         y="7.0000005"
         rx="7"
         ry="7" /><rect
         style="display:inline;opacity:0.45;fill:url(#linearGradient2);stroke:none;stroke-width:2;stroke-linecap:round;stroke-linejoin:round;paint-order:stroke markers fill"
         id="rect1"
         width="84"
         height="84"
         x="6"
         y="7"
         rx="6"
         ry="6" /></g><g
       id="g26"
       style="display:inline"
       inkscape:label="layer1"><rect
         style="display:inline;opacity:1;fill:url(#linearGradient8);stroke:none;stroke-width:2;stroke-linecap:round;stroke-linejoin:round;paint-order:stroke markers fill"
         id="rect6"
         width="84"
         height="84"
         x="6"
         y="6"
         rx="6"
         ry="6" /></g><g
       id="g25"
       inkscape:label="layer4"
       style="display:inline"><path
         id="path26"
         style="display:inline;opacity:0.826;fill:#000000;fill-opacity:1;stroke:none;stroke-width:4;stroke-linecap:round;stroke-linejoin:round;stroke-dasharray:none;stroke-opacity:1;paint-order:stroke markers fill;filter:url(#filter26)"
         d="M 64.869141,6 C 76.592578,10.836032 85.803769,20.524159 90,32.5625 V 16.150391 C 87.180823,12.338031 83.855762,8.9210496 80.125,6 Z M 48,14.287109 v 7.75586 c 13.861174,0.07274 25.082031,11.326053 25.082031,25.205078 0,13.880802 -11.220857,25.134294 -25.082031,25.207031 v 7.75586 C 66.147439,80.139967 80.839844,65.413374 80.839844,47.248047 80.839844,29.084494 66.147439,14.358074 48,14.287109 Z m 0,19.392579 V 60.818359 C 55.435322,60.747389 61.445312,54.702947 61.445312,47.248047 61.445312,39.794924 55.435323,33.750653 48,33.679688 Z M 90,61.935547 C 85.309843,75.391602 74.354706,85.909917 60.628906,90 H 78.111328 C 82.666555,86.772225 86.682738,82.833841 90,78.347656 Z"
         clip-path="url(#clipPath26)" /><path
         id="circle16"
         style="display:inline;opacity:1;fill:url(#linearGradient40);stroke:none;stroke-width:4;stroke-linecap:round;stroke-linejoin:round;stroke-dasharray:none;stroke-opacity:1;paint-order:stroke markers fill"
         d="M 64.869141,6 C 76.592578,10.836032 85.803769,20.524159 90,32.5625 V 16.150391 C 87.180823,12.338031 83.855762,8.9210496 80.125,6 Z M 48,14.287109 v 7.75586 c 13.861174,0.07274 25.082031,11.326053 25.082031,25.205078 0,13.880802 -11.220857,25.134294 -25.082031,25.207031 v 7.75586 C 66.147439,80.139967 80.839844,65.413374 80.839844,47.248047 80.839844,29.084494 66.147439,14.358074 48,14.287109 Z m 0,19.392579 V 60.818359 C 55.435322,60.747389 61.445312,54.702947 61.445312,47.248047 61.445312,39.794924 55.435323,33.750653 48,33.679688 Z M 90,61.935547 C 85.309843,75.391602 74.354706,85.909917 60.628906,90 H 78.111328 C 82.666555,86.772225 86.682738,82.833841 90,78.347656 Z" /><g
         id="g27"
         style="display:inline"><path
           id="path33"
           style="display:inline;opacity:0.1;fill:#000000;fill-opacity:1;stroke:none;stroke-width:4;stroke-linecap:round;stroke-linejoin:round;stroke-dasharray:none;stroke-opacity:1;paint-order:stroke markers fill"
           d="M 77.683594,6 C 82.415326,9.2826372 86.579282,13.325257 90,17.951172 V 16.150391 C 87.180222,12.337363 83.854714,8.9213628 80.123047,6 Z M 48,14.289062 v 1.798829 c 17.846761,0.06979 32.352368,14.31488 32.828125,32.0625 0.008,-0.299037 0.01172,-0.599416 0.01172,-0.900391 C 80.839843,29.086396 66.147439,14.360028 48,14.289062 Z m 0,19.392579 v 1.798828 c 7.13366,0.06809 12.95538,5.636053 13.416016,12.669922 0.01948,-0.29751 0.0293,-0.597933 0.0293,-0.900391 0,-7.453144 -6.009989,-13.497394 -13.445312,-13.568359 z m 25.066406,14.46875 C 72.593805,61.614392 61.560291,72.385872 48,72.457031 v 1.798828 c 13.861174,-0.07274 25.082031,-11.32619 25.082031,-25.207031 0,-0.301223 -0.0051,-0.599776 -0.01563,-0.898437 z M 90,61.935547 C 85.310959,75.389991 74.359747,85.90844 60.636719,90 h 4.939453 C 76.962335,85.070716 85.888271,75.531876 90,63.736328 Z" /><path
           id="path31"
           style="display:inline;opacity:0.4;fill:#000000;fill-opacity:1;stroke:none;stroke-width:4;stroke-linecap:round;stroke-linejoin:round;stroke-dasharray:none;stroke-opacity:1;paint-order:stroke markers fill"
           d="M 78.390625,6 C 82.83031,9.1898489 86.75098,13.057539 90,17.451172 V 16.150391 C 87.180223,12.337352 83.85472,8.9213694 80.123047,6 Z M 48,14.289062 v 1.298829 c 17.930479,0.07012 32.48847,14.448836 32.833984,32.3125 0.0042,-0.216173 0.0059,-0.433216 0.0059,-0.650391 C 80.839804,29.086396 66.147439,14.360028 48,14.289062 Z m 0,19.392579 v 1.298828 c 7.217961,0.06889 13.09238,5.768412 13.429688,12.919922 0.01016,-0.215411 0.01563,-0.432456 0.01562,-0.650391 0,-7.453144 -6.009989,-13.497394 -13.445312,-13.568359 z m 25.074219,14.21875 C 72.730422,61.480847 61.644147,72.385432 48,72.457031 v 1.298828 c 13.861174,-0.07274 25.082031,-11.32619 25.082031,-25.207031 0,-0.217307 -0.0023,-0.43245 -0.0078,-0.648437 z M 90,61.935547 C 85.311205,75.390418 74.359988,85.908349 60.636719,90 h 3.736328 C 76.332377,85.234896 85.74452,75.444262 90,63.236328 Z" /><path
           id="path27"
           style="display:inline;opacity:0.2;fill:#000000;fill-opacity:1;stroke:none;stroke-width:4;stroke-linecap:round;stroke-linejoin:round;stroke-dasharray:none;stroke-opacity:1;paint-order:stroke markers fill"
           d="M 79.076172,6 C 83.235174,9.0911265 86.918882,12.784437 90,16.951172 V 16.150391 C 87.180224,12.337346 83.854723,8.921373 80.123047,6 Z M 48,14.289062 v 0.798829 c 18.014044,0.07044 32.624088,14.58317 32.837891,32.5625 0.0016,-0.133151 0.002,-0.266864 0.002,-0.400391 C 80.839797,29.086396 66.147439,14.360028 48,14.289062 Z m 0,19.392579 v 0.798828 c 7.301863,0.06969 13.229028,5.901671 13.439453,13.169922 0.0038,-0.132877 0.0059,-0.266579 0.0059,-0.400391 0,-7.453144 -6.009989,-13.497394 -13.445312,-13.568359 z m 25.078125,13.96875 C 72.865018,61.346776 61.727776,72.384993 48,72.457031 v 0.798828 c 13.861174,-0.07274 25.082031,-11.32619 25.082031,-25.207031 0,-0.13357 -0.0018,-0.265361 -0.0039,-0.398437 z M 90,61.9375 C 85.310492,75.391113 74.359282,85.908616 60.636719,90 h 2.421875 C 75.641551,85.444042 85.589702,75.3884 90,62.736328 Z" /></g><path
         style="display:none;fill:#000000;fill-opacity:1;stroke-width:4.00002;stroke-linecap:round;stroke-linejoin:round;paint-order:stroke markers fill;filter:url(#filter22)"
         id="path22"
         sodipodi:type="arc"
         sodipodi:cx="48"
         sodipodi:cy="48"
         sodipodi:rx="57"
         sodipodi:ry="57"
         sodipodi:start="1.5707963"
         sodipodi:end="4.712389"
         sodipodi:arc-type="slice"
         d="M 48,105 A 57,57 0 0 1 -1.3634477,76.500001 57,57 0 0 1 -1.3634479,19.5 57,57 0 0 1 48,-9 v 57 z"
         clip-path="url(#clipPath22)" /><path
         id="path1"
         style="display:inline;fill:url(#linearGradient15);stroke-width:4.00002;stroke-linecap:round;stroke-linejoin:round;paint-order:stroke markers fill"
         d="M 12,6 C 8.676,6 6,8.676 6,12 v 72 c 0,3.324 2.676,6 6,6 H 48 V 48 6 Z" /><path
         id="path2"
         style="display:inline;opacity:0.3;fill:#ffffff;fill-opacity:1;stroke:none;stroke-width:4;stroke-linecap:round;stroke-linejoin:round;stroke-dasharray:none;stroke-opacity:1;paint-order:stroke markers fill"
         d="M 63.330078,6 C 75.784626,10.601902 85.622219,20.60319 90,33.164062 V 32.5625 C 85.802968,20.522986 76.590674,10.835238 64.865234,6 Z M 48,22.044922 v 0.599609 c 13.761172,0.07221 24.919786,11.16342 25.080078,24.904297 0.0012,-0.09987 0.002,-0.198684 0.002,-0.298828 C 73.081984,33.370936 61.861174,22.117662 48,22.044922 Z M 61.441406,47.548828 C 61.28273,54.865232 55.335315,60.750297 48,60.820312 v 0.59961 c 7.435322,-0.07097 13.445312,-6.115392 13.445312,-13.570313 0,-0.100246 -0.0017,-0.201055 -0.0039,-0.300781 z m 19.396485,0.002 C 80.675794,65.576811 66.046556,80.142315 48,80.212891 V 80.8125 c 18.147439,-0.07097 32.839844,-14.797513 32.839844,-32.962891 0,-0.09923 -0.0011,-0.199795 -0.002,-0.298828 z M 90,78.349609 C 86.683259,82.83543 82.667732,86.772263 78.113281,90 h 0.830078 C 83.156722,86.889078 86.886109,83.16219 90,78.951172 Z" /><g
         id="g7"
         style="display:inline"><rect
           style="opacity:0.08;fill:#000000;fill-opacity:1;stroke-width:4;stroke-linecap:round;stroke-linejoin:round;paint-order:stroke markers fill"
           id="rect13"
           width="5"
           height="84"
           x="48"
           y="6" /><rect
           style="opacity:0.1;fill:#000000;fill-opacity:1;stroke-width:4;stroke-linecap:round;stroke-linejoin:round;paint-order:stroke markers fill"
           id="rect11"
           width="4"
           height="84"
           x="48"
           y="6" /><rect
           style="opacity:0.2;fill:#000000;fill-opacity:1;stroke-width:4;stroke-linecap:round;stroke-linejoin:round;paint-order:stroke markers fill"
           id="rect10"
           width="3"
           height="84"
           x="48"
           y="6" /><rect
           style="display:inline;opacity:0.3;fill:#000000;fill-opacity:1;stroke-width:4;stroke-linecap:round;stroke-linejoin:round;paint-order:stroke markers fill"
           id="rect8"
           width="2"
           height="84"
           x="48"
           y="6" /><rect
           style="opacity:0.45;fill:#000000;fill-opacity:1;stroke-width:4;stroke-linecap:round;stroke-linejoin:round;paint-order:stroke markers fill"
           id="rect7"
           width="1"
           height="84"
           x="48"
           y="6"
           ry="2.8421709e-14" /></g></g><g
       id="g14"
       inkscape:label="layer5"
       style="display:inline"><path
         id="rect9"
         style="display:inline;opacity:0.4;fill:url(#linearGradient12);stroke-width:1.99999;stroke-linecap:round;stroke-linejoin:round;paint-order:stroke markers fill"
         d="M 12,6 C 8.676,6 6,8.676 6,12 V 64 H 7 V 14 C 7,10.676 9.676,8 13,8 h 70 c 3.324,0 6,2.676 6,6 v 50 h 1 V 12 C 90,8.676 87.324,6 84,6 Z" /><path
         id="rect12"
         style="display:inline;opacity:0.2;fill:url(#radialGradient14);fill-opacity:1;stroke-width:2;stroke-linecap:round;stroke-linejoin:round;paint-order:stroke markers fill"
         d="M 12,6 C 8.676,6 6,8.676 6,12 v 72 c 0,3.324 2.676,6 6,6 h 72 c 3.324,0 6,-2.676 6,-6 V 12 C 90,8.676 87.324,6 84,6 h -1 c 3.324,0 6,2.676 6,6 v 70 c 0,3.324 -2.676,6 -6,6 H 13 C 9.676,88 7,85.324 7,82 V 12 C 7,8.676 9.676,6 13,6 Z" /></g></g><metadata
     id="metadata1"><rdf:RDF><cc:Work
         rdf:about="" /></rdf:RDF></metadata></svg>
