<?xml version="1.0" encoding="UTF-8" standalone="no"?>
<svg
   id="svg90"
   version="1.1"
   width="96"
   height="96"
   sodipodi:docname="ttf-mscore-fonts.svg"
   xml:space="preserve"
   inkscape:version="1.4.3 (0d15f75042, 2025-12-25)"
   xmlns:inkscape="http://www.inkscape.org/namespaces/inkscape"
   xmlns:sodipodi="http://sodipodi.sourceforge.net/DTD/sodipodi-0.dtd"
   xmlns:xlink="http://www.w3.org/1999/xlink"
   xmlns="http://www.w3.org/2000/svg"
   xmlns:svg="http://www.w3.org/2000/svg"
   xmlns:rdf="http://www.w3.org/1999/02/22-rdf-syntax-ns#"
   xmlns:cc="http://creativecommons.org/ns#"
   xmlns:dc="http://purl.org/dc/elements/1.1/"><sodipodi:namedview
     id="namedview1"
     pagecolor="#505050"
     bordercolor="#eeeeee"
     borderopacity="1"
     inkscape:showpageshadow="0"
     inkscape:pageopacity="0"
     inkscape:pagecheckerboard="0"
     inkscape:deskcolor="#505050"
     inkscape:zoom="11.313709"
     inkscape:cx="54.226251"
     inkscape:cy="41.896077"
     inkscape:window-width="1920"
     inkscape:window-height="1020"
     inkscape:window-x="0"
     inkscape:window-y="32"
     inkscape:window-maximized="1"
     inkscape:current-layer="svg90" /><metadata
     id="metadata94"><rdf:RDF><cc:Work
         rdf:about=""><dc:format>image/svg+xml</dc:format><dc:type
           rdf:resource="http://purl.org/dc/dcmitype/StillImage" /></cc:Work></rdf:RDF></metadata><defs
     id="defs56"><linearGradient
       x1="48"
       y1="72"
       x2="48"
       gradientUnits="userSpaceOnUse"
       y2="24"
       id="linearGradient132"
       spreadMethod="pad"><stop
         id="stop131"
         offset="0"
         stop-color="#2b4777"
         style="stop-color:#000000;stop-opacity:1;" /><stop
         id="stop132"
         offset="1"
         stop-color="#5672a0" /></linearGradient><linearGradient
       x1="48"
       y1="72"
       x2="48"
       gradientUnits="userSpaceOnUse"
       y2="24"
       id="linearGradient130"
       spreadMethod="pad"><stop
         id="stop129"
         offset="0"
         stop-color="#2b4777"
         style="stop-color:#ffba08;stop-opacity:1;" /><stop
         id="stop130"
         offset="1"
         stop-color="#5672a0"
         style="stop-color:#ffc026;stop-opacity:1;" /></linearGradient><linearGradient
       x1="48"
       y1="72"
       x2="48"
       gradientUnits="userSpaceOnUse"
       y2="24"
       id="linearGradient128"
       spreadMethod="pad"><stop
         id="stop127"
         offset="0"
         stop-color="#2b4777"
         style="stop-color:#05a6f0;stop-opacity:1;" /><stop
         id="stop128"
         offset="1"
         stop-color="#5672a0"
         style="stop-color:#05b0ff;stop-opacity:1;" /></linearGradient><linearGradient
       x1="48"
       y1="72"
       x2="48"
       gradientUnits="userSpaceOnUse"
       y2="24"
       id="linearGradient126"
       spreadMethod="pad"><stop
         id="stop125"
         offset="0"
         stop-color="#2b4777"
         style="stop-color:#81bc06;stop-opacity:1;" /><stop
         id="stop126"
         offset="1"
         stop-color="#5672a0"
         style="stop-color:#afff06;stop-opacity:1;" /></linearGradient><linearGradient
       x1="48"
       y1="72"
       x2="48"
       gradientUnits="userSpaceOnUse"
       y2="24"
       id="linearGradient123"
       spreadMethod="pad"><stop
         id="stop122"
         offset="0"
         stop-color="#2b4777" /><stop
         id="stop123"
         offset="1"
         stop-color="#5672a0"
         style="stop-color:#5672a0;stop-opacity:0.75554442;" /></linearGradient><linearGradient
       x1="48"
       y1="72"
       x2="48"
       gradientUnits="userSpaceOnUse"
       y2="24"
       id="linearGradient121"
       spreadMethod="pad"><stop
         id="stop120"
         offset="0"
         stop-color="#2b4777" /><stop
         id="stop121"
         offset="1"
         stop-color="#5672a0"
         style="stop-color:#5672a0;stop-opacity:0.75448936;" /></linearGradient><linearGradient
       x1="48"
       y1="72"
       x2="48"
       gradientUnits="userSpaceOnUse"
       y2="24"
       id="linearGradient119"
       spreadMethod="pad"><stop
         id="stop118"
         offset="0"
         stop-color="#2b4777" /><stop
         id="stop119"
         offset="1"
         stop-color="#5672a0"
         style="stop-color:#5672a0;stop-opacity:0.75208104;" /></linearGradient><linearGradient
       x1="48"
       y1="72"
       x2="48"
       gradientUnits="userSpaceOnUse"
       y2="24"
       id="linearGradient117"
       spreadMethod="pad"><stop
         id="stop116"
         offset="0"
         stop-color="#2b4777" /><stop
         id="stop117"
         offset="1"
         stop-color="#5672a0"
         style="stop-color:#5672a0;stop-opacity:0.74694419;" /></linearGradient><linearGradient
       x1="48"
       y1="72"
       x2="48"
       gradientUnits="userSpaceOnUse"
       y2="24"
       id="linearGradient115"
       spreadMethod="pad"><stop
         id="stop114"
         offset="0"
         stop-color="#2b4777" /><stop
         id="stop115"
         offset="1"
         stop-color="#5672a0"
         style="stop-color:#5672a0;stop-opacity:0.74373907;" /></linearGradient><linearGradient
       x1="48"
       y1="72"
       x2="48"
       gradientUnits="userSpaceOnUse"
       y2="24"
       id="linearGradient113"
       spreadMethod="pad"><stop
         id="stop112"
         offset="0"
         stop-color="#2b4777" /><stop
         id="stop113"
         offset="1"
         stop-color="#5672a0"
         style="stop-color:#5672a0;stop-opacity:0.73994184;" /></linearGradient><linearGradient
       x1="48"
       y1="72"
       x2="48"
       gradientUnits="userSpaceOnUse"
       y2="24"
       id="linearGradient111"
       spreadMethod="pad"><stop
         id="stop110"
         offset="0"
         stop-color="#2b4777" /><stop
         id="stop111"
         offset="1"
         stop-color="#5672a0"
         style="stop-color:#5672a0;stop-opacity:0.73888701;" /></linearGradient><linearGradient
       x1="48"
       y1="72"
       x2="48"
       gradientUnits="userSpaceOnUse"
       y2="24"
       id="linearGradient109"
       spreadMethod="pad"><stop
         id="stop108"
         offset="0"
         stop-color="#2b4777" /><stop
         id="stop109"
         offset="1"
         stop-color="#5672a0"
         style="stop-color:#5672a0;stop-opacity:0.72242409;" /></linearGradient><linearGradient
       x1="48"
       y1="72"
       x2="48"
       gradientUnits="userSpaceOnUse"
       y2="24"
       id="linearGradient107"
       spreadMethod="pad"><stop
         id="stop106"
         offset="0"
         stop-color="#2b4777" /><stop
         id="stop107"
         offset="1"
         stop-color="#5672a0"
         style="stop-color:#5672a0;stop-opacity:0.70748013;" /></linearGradient><linearGradient
       x1="48"
       y1="72"
       x2="48"
       gradientUnits="userSpaceOnUse"
       y2="24"
       id="linearGradient105"
       spreadMethod="pad"><stop
         id="stop104"
         offset="0"
         stop-color="#2b4777" /><stop
         id="stop105"
         offset="1"
         stop-color="#5672a0"
         style="stop-color:#5672a0;stop-opacity:0.70642519;" /></linearGradient><linearGradient
       x1="48"
       y1="72"
       x2="48"
       gradientUnits="userSpaceOnUse"
       y2="24"
       id="linearGradient103"
       spreadMethod="pad"><stop
         id="stop102"
         offset="0"
         stop-color="#2b4777" /><stop
         id="stop103"
         offset="1"
         stop-color="#5672a0"
         style="stop-color:#5672a0;stop-opacity:0.67679834;" /></linearGradient><linearGradient
       x1="48"
       y1="72"
       x2="48"
       gradientUnits="userSpaceOnUse"
       y2="24"
       id="linearGradient101"
       spreadMethod="pad"><stop
         id="stop100"
         offset="0"
         stop-color="#2b4777" /><stop
         id="stop101"
         offset="1"
         stop-color="#5672a0"
         style="stop-color:#5672a0;stop-opacity:0.67679834;" /></linearGradient><linearGradient
       x1="48"
       y1="72"
       x2="48"
       gradientUnits="userSpaceOnUse"
       y2="24"
       id="linearGradient99"
       spreadMethod="pad"><stop
         id="stop98"
         offset="0"
         stop-color="#2b4777" /><stop
         id="stop99"
         offset="1"
         stop-color="#5672a0"
         style="stop-color:#5b79a9;stop-opacity:1;" /></linearGradient><linearGradient
       x1="48"
       y1="72"
       x2="48"
       gradientUnits="userSpaceOnUse"
       y2="24"
       id="linearGradient97"
       spreadMethod="pad"><stop
         id="stop96"
         offset="0"
         stop-color="#2b4777" /><stop
         id="stop97"
         offset="1"
         stop-color="#5672a0"
         style="stop-color:#5a77a7;stop-opacity:1;" /></linearGradient><linearGradient
       x1="48"
       y1="72"
       x2="48"
       gradientUnits="userSpaceOnUse"
       y2="24"
       id="linearGradient95"
       spreadMethod="pad"><stop
         id="stop94"
         offset="0"
         stop-color="#2b4777" /><stop
         id="stop95"
         offset="1"
         stop-color="#5672a0"
         style="stop-color:#5975a5;stop-opacity:1;" /></linearGradient><linearGradient
       x1="48"
       y1="72"
       x2="48"
       gradientUnits="userSpaceOnUse"
       y2="24"
       id="linearGradient93"
       spreadMethod="pad"><stop
         id="stop92"
         offset="0"
         stop-color="#2b4777" /><stop
         id="stop93"
         offset="1"
         stop-color="#5672a0"
         style="stop-color:#5875a4;stop-opacity:1;" /></linearGradient><linearGradient
       x1="48"
       y1="72"
       x2="48"
       gradientUnits="userSpaceOnUse"
       y2="24"
       id="linearGradient91"
       spreadMethod="pad"><stop
         id="stop90"
         offset="0"
         stop-color="#2b4777" /><stop
         id="stop91"
         offset="1"
         stop-color="#5672a0"
         style="stop-color:#4d668f;stop-opacity:1;" /></linearGradient><linearGradient
       x1="48"
       y1="72"
       x2="48"
       gradientUnits="userSpaceOnUse"
       y2="24"
       id="linearGradient89"
       spreadMethod="pad"><stop
         id="stop88"
         offset="0"
         stop-color="#2b4777" /><stop
         id="stop89"
         offset="1"
         stop-color="#5672a0"
         style="stop-color:#4d668f;stop-opacity:1;" /></linearGradient><linearGradient
       x1="48"
       y1="72"
       x2="48"
       gradientUnits="userSpaceOnUse"
       y2="24"
       id="linearGradient87"
       spreadMethod="pad"><stop
         id="stop86"
         offset="0"
         stop-color="#2b4777" /><stop
         id="stop87"
         offset="1"
         stop-color="#5672a0"
         style="stop-color:#4f6892;stop-opacity:1;" /></linearGradient><linearGradient
       x1="48"
       y1="72"
       x2="48"
       gradientUnits="userSpaceOnUse"
       y2="24"
       id="linearGradient85"
       spreadMethod="pad"><stop
         id="stop84"
         offset="0"
         stop-color="#2b4777" /><stop
         id="stop85"
         offset="1"
         stop-color="#5672a0"
         style="stop-color:#506a95;stop-opacity:1;" /></linearGradient><linearGradient
       x1="48"
       y1="72"
       x2="48"
       gradientUnits="userSpaceOnUse"
       y2="24"
       id="linearGradient83"
       spreadMethod="pad"><stop
         id="stop82"
         offset="0"
         stop-color="#2b4777" /><stop
         id="stop83"
         offset="1"
         stop-color="#5672a0"
         style="stop-color:#516b97;stop-opacity:1;" /></linearGradient><linearGradient
       x1="48"
       y1="72"
       x2="48"
       gradientUnits="userSpaceOnUse"
       y2="24"
       id="linearGradient81"
       spreadMethod="pad"><stop
         id="stop80"
         offset="0"
         stop-color="#2b4777" /><stop
         id="stop81"
         offset="1"
         stop-color="#5672a0"
         style="stop-color:#516c97;stop-opacity:1;" /></linearGradient><linearGradient
       x1="48"
       y1="72"
       x2="48"
       gradientUnits="userSpaceOnUse"
       y2="24"
       id="linearGradient79"
       spreadMethod="pad"><stop
         id="stop78"
         offset="0"
         stop-color="#2b4777" /><stop
         id="stop79"
         offset="1"
         stop-color="#5672a0"
         style="stop-color:#536d9a;stop-opacity:1;" /></linearGradient><linearGradient
       x1="48"
       y1="72"
       x2="48"
       gradientUnits="userSpaceOnUse"
       y2="24"
       id="linearGradient77"
       spreadMethod="pad"><stop
         id="stop76"
         offset="0"
         stop-color="#2b4777" /><stop
         id="stop77"
         offset="1"
         stop-color="#5672a0"
         style="stop-color:#536e9a;stop-opacity:1;" /></linearGradient><linearGradient
       x1="48"
       y1="72"
       x2="48"
       gradientUnits="userSpaceOnUse"
       y2="24"
       id="linearGradient75"
       spreadMethod="pad"><stop
         id="stop74"
         offset="0"
         stop-color="#2b4777" /><stop
         id="stop75"
         offset="1"
         stop-color="#5672a0"
         style="stop-color:#536e9a;stop-opacity:1;" /></linearGradient><linearGradient
       x1="48"
       y1="72"
       x2="48"
       gradientUnits="userSpaceOnUse"
       y2="24"
       id="linearGradient73"
       spreadMethod="pad"><stop
         id="stop72"
         offset="0"
         stop-color="#2b4777" /><stop
         id="stop73"
         offset="1"
         stop-color="#5672a0"
         style="stop-color:#81bc06;stop-opacity:1;" /></linearGradient><linearGradient
       x1="48"
       y1="72"
       x2="48"
       gradientUnits="userSpaceOnUse"
       y2="24"
       id="linearGradient71"
       spreadMethod="pad"><stop
         id="stop70"
         offset="0"
         stop-color="#2b4777"
         style="stop-color:#81bc06;stop-opacity:1;" /><stop
         id="stop71"
         offset="1"
         stop-color="#5672a0" /></linearGradient><linearGradient
       x1="48"
       y1="72"
       x2="48"
       gradientUnits="userSpaceOnUse"
       y2="24"
       id="linearGradient69"
       spreadMethod="pad"><stop
         id="stop68"
         offset="0"
         stop-color="#2b4777"
         style="stop-color:#81bc06;stop-opacity:1;" /><stop
         id="stop69"
         offset="1"
         stop-color="#5672a0" /></linearGradient><linearGradient
       x1="48"
       y1="72"
       x2="48"
       gradientUnits="userSpaceOnUse"
       y2="24"
       id="linearGradient66"
       spreadMethod="pad"><stop
         id="stop65"
         offset="0"
         stop-color="#2b4777"
         style="stop-color:#81bc06;stop-opacity:1;" /><stop
         id="stop66"
         offset="1"
         stop-color="#5672a0" /></linearGradient><linearGradient
       x1="48"
       y1="72"
       x2="48"
       gradientUnits="userSpaceOnUse"
       y2="24"
       id="linearGradient64"
       spreadMethod="pad"><stop
         id="stop63"
         offset="0"
         stop-color="#2b4777"
         style="stop-color:#f35325;stop-opacity:1;" /><stop
         id="stop64"
         offset="1"
         stop-color="#5672a0"
         style="stop-color:#ff5627;stop-opacity:1;" /></linearGradient><linearGradient
       x1="48"
       y1="72"
       x2="48"
       gradientUnits="userSpaceOnUse"
       y2="24"
       id="linearGradient61"
       spreadMethod="pad"><stop
         id="stop60"
         offset="0"
         stop-color="#2b4777" /><stop
         id="stop61"
         offset="1"
         stop-color="#5672a0"
         style="stop-color:#672a0f;stop-opacity:1;" /></linearGradient><linearGradient
       x1="48"
       y1="72"
       x2="48"
       gradientUnits="userSpaceOnUse"
       y2="24"
       id="linearGradient59"
       spreadMethod="pad"><stop
         id="stop58"
         offset="0"
         stop-color="#2b4777" /><stop
         id="stop59"
         offset="1"
         stop-color="#5672a0"
         style="stop-color:#72a0ff;stop-opacity:1;" /></linearGradient><linearGradient
       x1="48"
       y1="72"
       x2="48"
       gradientUnits="userSpaceOnUse"
       y2="24"
       id="linearGradient57"
       spreadMethod="pad"><stop
         id="stop56"
         offset="0"
         stop-color="#2b4777" /><stop
         id="stop57"
         offset="1"
         stop-color="#5672a0"
         style="stop-color:#672a0f;stop-opacity:1;" /></linearGradient><linearGradient
       x1="48"
       y1="72"
       x2="48"
       gradientUnits="userSpaceOnUse"
       y2="24"
       id="linearGradient55"
       spreadMethod="pad"><stop
         id="stop54"
         offset="0"
         stop-color="#2b4777" /><stop
         id="stop55"
         offset="1"
         stop-color="#5672a0"
         style="stop-color:#72a0ff;stop-opacity:1;" /></linearGradient><linearGradient
       x1="48"
       y1="72"
       x2="48"
       gradientUnits="userSpaceOnUse"
       y2="24"
       id="linearGradient53"
       spreadMethod="pad"><stop
         id="stop52"
         offset="0"
         stop-color="#2b4777" /><stop
         id="stop53"
         offset="1"
         stop-color="#5672a0"
         style="stop-color:#672a0f;stop-opacity:1;" /></linearGradient><linearGradient
       x1="48"
       y1="72"
       x2="48"
       gradientUnits="userSpaceOnUse"
       y2="24"
       id="linearGradient50"
       spreadMethod="pad"><stop
         id="stop48"
         offset="0"
         stop-color="#2b4777" /><stop
         id="stop50"
         offset="1"
         stop-color="#5672a0"
         style="stop-color:#672a0f;stop-opacity:1;" /></linearGradient><linearGradient
       x1="48"
       y1="72"
       x2="48"
       gradientUnits="userSpaceOnUse"
       y2="24"
       id="linearGradient47"
       spreadMethod="pad"><stop
         id="stop45"
         offset="0"
         stop-color="#2b4777" /><stop
         id="stop47"
         offset="1"
         stop-color="#5672a0"
         style="stop-color:#672a0f;stop-opacity:1;" /></linearGradient><linearGradient
       x1="48"
       y1="72"
       x2="48"
       gradientUnits="userSpaceOnUse"
       y2="24"
       id="linearGradient43"
       spreadMethod="pad"><stop
         id="stop42"
         offset="0"
         stop-color="#2b4777" /><stop
         id="stop43"
         offset="1"
         stop-color="#5672a0"
         style="stop-color:#672a0f;stop-opacity:1;" /></linearGradient><linearGradient
       x1="48"
       y1="72"
       x2="48"
       gradientUnits="userSpaceOnUse"
       y2="24"
       id="linearGradient40"
       spreadMethod="pad"><stop
         id="stop38"
         offset="0"
         stop-color="#2b4777" /><stop
         id="stop40"
         offset="1"
         stop-color="#5672a0"
         style="stop-color:#672a0f;stop-opacity:1;" /></linearGradient><linearGradient
       x1="48"
       y1="72"
       x2="48"
       gradientUnits="userSpaceOnUse"
       y2="24"
       id="linearGradient37"
       spreadMethod="pad"><stop
         id="stop36"
         offset="0"
         stop-color="#2b4777" /><stop
         id="stop37"
         offset="1"
         stop-color="#5672a0"
         style="stop-color:#672a0f;stop-opacity:1;" /></linearGradient><linearGradient
       x1="48"
       y1="72"
       x2="48"
       gradientUnits="userSpaceOnUse"
       y2="24"
       id="linearGradient35"
       spreadMethod="pad"><stop
         id="stop34"
         offset="0"
         stop-color="#2b4777" /><stop
         id="stop35"
         offset="1"
         stop-color="#5672a0"
         style="stop-color:#672a0f;stop-opacity:1;" /></linearGradient><linearGradient
       x1="48"
       y1="72"
       x2="48"
       gradientUnits="userSpaceOnUse"
       y2="24"
       id="linearGradient33"
       spreadMethod="pad"><stop
         id="stop31"
         offset="0"
         stop-color="#2b4777" /><stop
         id="stop33"
         offset="1"
         stop-color="#5672a0"
         style="stop-color:#672a0f;stop-opacity:1;" /></linearGradient><linearGradient
       x1="48"
       y1="72"
       x2="48"
       gradientUnits="userSpaceOnUse"
       y2="24"
       id="linearGradient29"
       spreadMethod="pad"><stop
         id="stop28"
         offset="0"
         stop-color="#2b4777" /><stop
         id="stop29"
         offset="1"
         stop-color="#5672a0"
         style="stop-color:#ffffff;stop-opacity:1;" /></linearGradient><linearGradient
       x1="48"
       y1="72"
       x2="48"
       gradientUnits="userSpaceOnUse"
       y2="24"
       id="linearGradient27"
       spreadMethod="pad"><stop
         id="stop25"
         offset="0"
         stop-color="#2b4777"
         style="stop-color:#2b477f;stop-opacity:1;" /><stop
         id="stop27"
         offset="1"
         stop-color="#5672a0" /></linearGradient><linearGradient
       x1="48"
       y1="72"
       x2="48"
       gradientUnits="userSpaceOnUse"
       y2="24"
       id="linearGradient23"
       spreadMethod="pad"><stop
         id="stop22"
         offset="0"
         stop-color="#2b4777"
         style="stop-color:#2b477f;stop-opacity:1;" /><stop
         id="stop23"
         offset="1"
         stop-color="#5672a0" /></linearGradient><linearGradient
       x1="48"
       y1="72"
       x2="48"
       gradientUnits="userSpaceOnUse"
       y2="24"
       id="linearGradient21"
       spreadMethod="pad"><stop
         id="stop20"
         offset="0"
         stop-color="#2b4777"
         style="stop-color:#22bb44;stop-opacity:0.46666667;" /><stop
         id="stop21"
         offset="1"
         stop-color="#5672a0" /></linearGradient><linearGradient
       x1="48"
       y1="72"
       x2="48"
       gradientUnits="userSpaceOnUse"
       y2="24"
       id="linearGradient19"><stop
         id="stop18"
         offset="0"
         stop-color="#2b4777"
         style="stop-color:#f35325;stop-opacity:1;" /><stop
         id="stop19"
         offset="1"
         stop-color="#5672a0" /></linearGradient><linearGradient
       x1="45.448"
       y1="92.54"
       gradientTransform="matrix(1.0059 0 0 .99417 100 0)"
       x2="45.448"
       gradientUnits="userSpaceOnUse"
       y2="7.0165"
       id="b"><stop
         id="stop2"
         offset="0" /><stop
         id="stop4"
         offset="1"
         stop-opacity=".58824" /></linearGradient><linearGradient
       id="a"><stop
         id="stop7"
         offset="0"
         stop-opacity="0"
         stop-color="#333" /><stop
         id="stop9"
         offset=".25" /><stop
         id="stop11"
         offset=".5" /><stop
         id="stop13"
         offset=".75" /><stop
         id="stop15"
         offset="1"
         stop-opacity="0"
         stop-color="#333" /></linearGradient><clipPath
       id="f"><rect
         id="rect18"
         fill="#fff"
         x="6"
         y="6"
         width="84"
         height="84"
         ry="6"
         rx="6" /></clipPath><filter
       x="-.192"
       y="-.192"
       color-interpolation-filters="sRGB"
       width="1.384"
       height="1.384"
       id="g"><feGaussianBlur
         id="feGaussianBlur21"
         stdDeviation="5.28" /></filter><linearGradient
       x1="48"
       y1="20.221"
       x2="48"
       gradientUnits="userSpaceOnUse"
       y2="138.66"
       stop-color="#fff"
       id="q"><stop
         id="stop24"
         offset="0" /><stop
         id="stop26"
         offset="1"
         stop-opacity="0" /></linearGradient><linearGradient
       x1="32.251"
       y1="90"
       gradientTransform="translate(0,1)"
       x2="32.251"
       gradientUnits="userSpaceOnUse"
       xlink:href="#b"
       y2="6"
       id="p" /><linearGradient
       x1="48"
       y1="72"
       x2="48"
       gradientUnits="userSpaceOnUse"
       y2="24"
       id="c"
       xlink:href="#linearGradient123"><stop
         id="stop30"
         offset="0"
         stop-color="#2b4777" /><stop
         id="stop32"
         offset="1"
         stop-color="#5672a0" /></linearGradient><linearGradient
       x1="16"
       y1="71"
       gradientTransform="matrix(1.25 0 0 .5 -12 -108)"
       x2="80"
       gradientUnits="userSpaceOnUse"
       xlink:href="#a"
       y2="71"
       id="o" /><linearGradient
       x1="16"
       y1="71"
       gradientTransform="matrix(.5 0 0 .5 40 -59)"
       x2="80"
       gradientUnits="userSpaceOnUse"
       xlink:href="#a"
       y2="71"
       id="n" /><linearGradient
       x1="16"
       y1="71"
       gradientTransform="matrix(.875 0 0 .5 18 -12)"
       x2="80"
       gradientUnits="userSpaceOnUse"
       xlink:href="#a"
       y2="71"
       id="m" /><linearGradient
       x1="16"
       y1="71"
       gradientTransform="matrix(1.125 0 0 .5 -10 36)"
       x2="80"
       gradientUnits="userSpaceOnUse"
       xlink:href="#a"
       y2="71"
       id="l" /><radialGradient
       r="42"
       gradientTransform="matrix(1.1573 0 0 .99591 -7.551 .19713)"
       cx="48"
       cy="90.172"
       gradientUnits="userSpaceOnUse"
       stop-color="#fff"
       id="d"><stop
         style="stop-color:#fefefe;stop-opacity:1"
         id="stop39"
         offset="0" /><stop
         style="stop-color:#fefefe;stop-opacity:0"
         id="stop41"
         offset="1"
         stop-opacity="0" /></radialGradient><linearGradient
       x1="36.357"
       y1="6"
       x2="36.357"
       gradientUnits="userSpaceOnUse"
       y2="63.893"
       stop-color="#fff"
       id="k"><stop
         style="stop-color:#fefefe;stop-opacity:1"
         id="stop44"
         offset="0" /><stop
         id="stop46"
         offset="1"
         stop-opacity="0" /></linearGradient><linearGradient
       x1="48"
       y1="90"
       x2="48"
       gradientUnits="userSpaceOnUse"
       y2="5.9877"
       id="j"><stop
         id="stop49"
         offset="0"
         stop-color="#ebebeb" /><stop
         id="stop51"
         offset="1"
         stop-color="#fafafa" /></linearGradient><linearGradient
       x1="32.251"
       y1="90"
       gradientTransform="matrix(1.0238 0 0 1.0119 -1.1429 .929)"
       x2="32.251"
       gradientUnits="userSpaceOnUse"
       xlink:href="#b"
       y2="5.9996"
       id="i" /><linearGradient
       x1="32.251"
       y1="6.1317"
       gradientTransform="matrix(1.0238,0,0,-1.0119,-1.1429,98.071)"
       x2="32.251"
       gradientUnits="userSpaceOnUse"
       xlink:href="#b"
       y2="90.239"
       id="h" /><linearGradient
       id="linearGradient899"><stop
         id="stop895"
         offset="0"
         style="stop-color:#c8c8c8;stop-opacity:1" /><stop
         id="stop897"
         offset="1"
         style="stop-color:#a0a0a0;stop-opacity:0.98823529" /></linearGradient><linearGradient
       id="linearGradient867"><stop
         style="stop-color:#a0a0a0;stop-opacity:1"
         offset="0"
         id="stop863" /><stop
         style="stop-color:#f0f0f0;stop-opacity:0.98823529"
         offset="1"
         id="stop865" /></linearGradient><linearGradient
       id="linearGradient4280"><stop
         id="stop4284"
         style="stop-color:#f0f0f0;stop-opacity:1"
         offset="0" /><stop
         id="stop4282"
         style="stop-color:#c6c6c6;stop-opacity:1"
         offset="1" /></linearGradient><linearGradient
       x1="45.447727"
       y1="92.539597"
       x2="45.447727"
       y2="7.0165396"
       id="ButtonShadow"
       gradientUnits="userSpaceOnUse"
       gradientTransform="scale(1.0058652,0.994169)"><stop
         id="stop3750"
         style="stop-color:#000000;stop-opacity:1"
         offset="0" /><stop
         id="stop3752"
         style="stop-color:#000000;stop-opacity:0.58823532"
         offset="1" /></linearGradient><linearGradient
       id="linearGradient3737"><stop
         id="stop3739"
         style="stop-color:#fefefe;stop-opacity:1"
         offset="0" /><stop
         id="stop3741"
         style="stop-color:#fefefe;stop-opacity:0"
         offset="1" /></linearGradient><filter
       color-interpolation-filters="sRGB"
       id="filter3174"
       x="-0.047720931"
       y="-0.048282354"
       width="1.0954419"
       height="1.0965647"><feGaussianBlur
         id="feGaussianBlur3176"
         stdDeviation="1.71" /></filter><linearGradient
       x1="36.357143"
       y1="6"
       x2="36.357143"
       y2="63.893143"
       id="linearGradient3188"
       xlink:href="#linearGradient3737"
       gradientUnits="userSpaceOnUse" /><radialGradient
       cx="48"
       cy="90.171875"
       r="42"
       fx="48"
       fy="90.171875"
       id="radialGradient3619"
       xlink:href="#linearGradient3737"
       gradientUnits="userSpaceOnUse"
       gradientTransform="matrix(1.1573129,0,0,0.99590774,-7.5510206,0.19713193)" /><linearGradient
       x1="48"
       y1="90"
       x2="48"
       y2="-32"
       id="linearGradient3617"
       xlink:href="#linearGradient4280"
       gradientUnits="userSpaceOnUse"
       gradientTransform="translate(0,-96)" /><linearGradient
       x1="45.447727"
       y1="92.539597"
       x2="45.447727"
       y2="7.0165396"
       id="ButtonShadow-0"
       gradientUnits="userSpaceOnUse"
       gradientTransform="matrix(1.0058652,0,0,0.994169,100,0)"><stop
         id="stop3750-8"
         style="stop-color:#000000;stop-opacity:1"
         offset="0" /><stop
         id="stop3752-5"
         style="stop-color:#000000;stop-opacity:0.58823532"
         offset="1" /></linearGradient><linearGradient
       x1="32.251034"
       y1="6.1317081"
       x2="32.251034"
       y2="90.238609"
       id="linearGradient3780"
       xlink:href="#ButtonShadow-0"
       gradientUnits="userSpaceOnUse"
       gradientTransform="matrix(1.0238095,0,0,-1.0119048,-1.1428571,98.071429)" /><linearGradient
       x1="32.251034"
       y1="6.1317081"
       x2="32.251034"
       y2="90.238609"
       id="linearGradient3725"
       xlink:href="#ButtonShadow-0"
       gradientUnits="userSpaceOnUse"
       gradientTransform="matrix(1.0238095,0,0,1.0119048,-1.1428571,-98.071429)" /><linearGradient
       x1="32.251034"
       y1="6.1317081"
       x2="32.251034"
       y2="90.238609"
       id="linearGradient3721"
       xlink:href="#ButtonShadow-0"
       gradientUnits="userSpaceOnUse"
       gradientTransform="translate(0,-97)" /><linearGradient
       id="linearGradient4776"><stop
         style="stop-color:#1d99f3;stop-opacity:1"
         offset="0"
         id="stop4778" /><stop
         id="stop4780"
         offset="1"
         style="stop-color:#2972a7;stop-opacity:1" /></linearGradient><linearGradient
       id="linearGradient5617"><stop
         id="stop5619"
         offset="0"
         style="stop-color:#9559b6;stop-opacity:1;" /><stop
         style="stop-color:#8e44ad;stop-opacity:1;"
         offset="1"
         id="stop5621" /></linearGradient><linearGradient
       xlink:href="#linearGradient867"
       id="linearGradient869"
       x1="68.934395"
       y1="24.340015"
       x2="68.9282"
       y2="61.965019"
       gradientUnits="userSpaceOnUse"
       gradientTransform="matrix(1.1625301,0,0,1.1389522,-14.194804,-8.637483)" /><linearGradient
       xlink:href="#linearGradient899"
       id="linearGradient869-3"
       x1="68.934395"
       y1="24.340015"
       x2="68.9282"
       y2="61.965019"
       gradientUnits="userSpaceOnUse"
       gradientTransform="matrix(1.2838771,0,0,1.2528475,-20.865473,-14.411732)" /><linearGradient
       y2="36"
       x2="24"
       y1="12"
       x1="24"
       gradientUnits="userSpaceOnUse"
       id="linearGradient3937"
       xlink:href="#linearGradient3912"
       gradientTransform="translate(-0.00275081,-1.0129998)" /><linearGradient
       id="linearGradient3912"><stop
         id="stop3914"
         offset="0"
         style="stop-color:#5d5d5d;stop-opacity:1;" /><stop
         id="stop3916"
         offset="1"
         style="stop-color:#989898;stop-opacity:1;" /></linearGradient><linearGradient
       inkscape:collect="always"
       xlink:href="#linearGradient64"
       id="linearGradient63"
       gradientUnits="userSpaceOnUse"
       x1="48"
       y1="72"
       x2="48.034473"
       y2="24.002384" /><linearGradient
       inkscape:collect="always"
       xlink:href="#linearGradient126"
       id="linearGradient124"
       gradientUnits="userSpaceOnUse"
       x1="48"
       y1="72"
       x2="48"
       y2="24" /><linearGradient
       inkscape:collect="always"
       xlink:href="#linearGradient128"
       id="linearGradient127"
       gradientUnits="userSpaceOnUse"
       x1="48"
       y1="72"
       x2="48"
       y2="24" /><linearGradient
       inkscape:collect="always"
       xlink:href="#linearGradient130"
       id="linearGradient129"
       gradientUnits="userSpaceOnUse"
       x1="48"
       y1="72"
       x2="48"
       y2="24" /><linearGradient
       inkscape:collect="always"
       xlink:href="#linearGradient132"
       id="linearGradient131"
       gradientUnits="userSpaceOnUse"
       x1="48"
       y1="72"
       x2="48"
       y2="24" /></defs><g
     id="g64"
     fill="url(#h)"><path
       id="path58"
       d="m12 95.031c-5.5111 0-10.031-4.52-10.031-10.031v-71c0-5.5111 4.5202-10.031 10.031-10.031h72c5.5111 0 10.031 4.5202 10.031 10.031v71c0 5.5111-4.5202 10.031-10.031 10.031h-72z"
       opacity="0.08" /><path
       id="path60"
       d="m12 94.031c-4.9716 0-9.0312-4.0596-9.0312-9.0312v-71c0-4.9718 4.0596-9.0314 9.0312-9.0314h72c4.9716 0 9.0312 4.0596 9.0312 9.0312v71c0 4.9716-4.0596 9.0312-9.0312 9.0312h-72z"
       opacity=".1" /><path
       id="path62"
       d="m12 93c-4.4091 0-8-3.591-8-8v-71c0-4.4091 3.5909-8 8-8h72c4.4091 0 8 3.5909 8 8v71c0 4.4091-3.5909 8-8 8h-72z"
       opacity=".2" /></g><rect
     id="rect66"
     fill="url(#i)"
     x="5"
     y="7"
     width="86"
     height="85"
     ry="7"
     rx="7"
     opacity=".3" /><rect
     id="rect68"
     fill="url(#p)"
     x="6"
     y="7"
     width="84"
     height="84"
     ry="6"
     rx="6"
     opacity=".45" /><rect
     id="rect70"
     fill="url(#j)"
     x="6"
     y="6"
     width="84"
     height="84"
     ry="6"
     rx="6" /><path
     id="path72"
     fill="url(#k)"
     d="m12 6c-3.324 0-6 2.676-6 6v72c0 0.33472 0.04135 0.6507 0.09375 0.96875 0.0487 0.2956 0.09704 0.59692 0.1875 0.875 0.0099 0.03038 0.02089 0.0636 0.03125 0.09375 0.09886 0.28777 0.23488 0.54745 0.375 0.8125 0.14459 0.27351 0.31562 0.53562 0.5 0.78125 0.18438 0.24564 0.37378 0.47347 0.59375 0.6875 0.43995 0.42806 0.94291 0.81453 1.5 1.0938 0.27854 0.13961 0.57347 0.24695 0.875 0.34375-0.2562-0.10022-0.48671-0.23627-0.71875-0.375-0.0074-0.0044-0.02387 0.0045-0.03125 0-0.0319-0.019-0.0622-0.042-0.0937-0.062-0.1204-0.077-0.231-0.164-0.3437-0.25-0.1062-0.081-0.2133-0.161-0.3126-0.25-0.1778-0.162-0.3473-0.346-0.4999-0.531-0.1075-0.131-0.2183-0.266-0.3124-0.407-0.0251-0.038-0.0385-0.086-0.0626-0.125-0.0647-0.103-0.1302-0.204-0.1874-0.312-0.1011-0.195-0.2057-0.416-0.2813-0.625-0.008-0.022-0.0236-0.041-0.0313-0.063-0.0318-0.092-0.0358-0.187-0.0624-0.281-0.0304-0.107-0.0704-0.203-0.0938-0.313-0.0729-0.341-0.125-0.698-0.125-1.062v-72c0-2.782 2.2182-5 5-5h72c2.7818 0 5 2.2182 5 5v72c0 0.3643-0.05212 0.72099-0.125 1.0625-0.04415 0.20689-0.08838 0.39766-0.15625 0.59375-0.0077 0.02195-0.0233 0.04069-0.03125 0.0625-0.06274 0.17374-0.13838 0.36745-0.21875 0.53125-0.04158 0.0828-0.07904 0.16995-0.125 0.25-0.0546 0.09721-0.12677 0.18835-0.1875 0.28125-0.09411 0.14096-0.20492 0.276-0.3125 0.40625-0.14317 0.17445-0.30314 0.347-0.46875 0.5-0.01117 0.0102-0.01998 0.02115-0.03125 0.03125-0.13839 0.12556-0.28509 0.23444-0.4375 0.34375-0.10257 0.07315-0.20432 0.15336-0.3125 0.21875-0.0074 0.0045-0.02384-0.0044-0.03125 0-0.23204 0.13873-0.46255 0.27478-0.71875 0.375 0.30153-0.0968 0.59646-0.20414 0.875-0.34375 0.55709-0.27922 1.0601-0.66569 1.5-1.0938 0.21997-0.21403 0.40937-0.44186 0.59375-0.6875s0.35541-0.50774 0.5-0.78125c0.14012-0.26505 0.27614-0.52473 0.375-0.8125 0.01041-0.03078 0.02133-0.06274 0.03125-0.09375 0.09046-0.27808 0.1388-0.5794 0.1875-0.875 0.053-0.318 0.094-0.634 0.094-0.969v-72c0-3.324-2.676-6-6-6h-72z"
     opacity=".5" /><path
     id="path74"
     fill="url(#d)"
     d="m12 90c-3.324 0-6-2.676-6-6v-72c0-0.33472 0.04135-0.6507 0.09375-0.96875 0.0487-0.2956 0.09704-0.59692 0.1875-0.875 0.0099-0.03 0.0209-0.063 0.0313-0.094 0.0989-0.2873 0.2349-0.547 0.375-0.812 0.1446-0.2735 0.3156-0.5356 0.5-0.7812 0.1844-0.2457 0.3738-0.4735 0.5937-0.6876 0.44-0.428 0.943-0.8145 1.5-1.0937 0.2786-0.1396 0.5735-0.2469 0.8748-0.3437-0.256 0.1002-0.4865 0.2362-0.7185 0.375-0.00741 0.0044-0.023866-0.0045-0.03125 0-0.031933 0.0193-0.062293 0.04251-0.09375 0.0625-0.1204 0.0767-0.23102 0.16351-0.34375 0.25-0.10617 0.0808-0.21328 0.16111-0.3125 0.25-0.1779 0.1614-0.3474 0.3453-0.5 0.5312-0.1075 0.1303-0.2183 0.2653-0.3124 0.4063-0.0251 0.0383-0.0385 0.0858-0.0626 0.125-0.0647 0.103-0.1302 0.2045-0.1874 0.3124-0.1011 0.1948-0.2057 0.4158-0.2813 0.625-0.008 0.0219-0.0236 0.0406-0.0313 0.0626-0.0318 0.0919-0.0358 0.1868-0.0624 0.2812-0.0304 0.1066-0.0704 0.203-0.0938 0.3125-0.0729 0.3415-0.125 0.6985-0.125 1.0625v72c0 2.7818 2.2182 5 5 5h72c2.7818 0 5-2.2182 5-5v-72c0-0.364-0.052-0.721-0.125-1.0625-0.044-0.2069-0.088-0.3977-0.156-0.5937-0.008-0.022-0.024-0.0407-0.031-0.0626-0.063-0.1737-0.139-0.3674-0.219-0.5312-0.042-0.0828-0.079-0.17-0.125-0.25-0.055-0.0972-0.127-0.1884-0.188-0.2812-0.094-0.141-0.205-0.276-0.312-0.4063-0.143-0.1745-0.303-0.347-0.469-0.5-0.011-0.0102-0.02-0.0211-0.031-0.0313-0.139-0.1255-0.285-0.2344-0.438-0.3437-0.102-0.0731-0.204-0.1534-0.312-0.2187-0.0074-0.0045-0.02384 0.0044-0.03125 0-0.23204-0.13873-0.46255-0.27478-0.71875-0.375 0.30153 0.0968 0.59646 0.20414 0.875 0.34375 0.55709 0.27922 1.0601 0.66569 1.5 1.0938 0.21997 0.21403 0.40937 0.44186 0.59375 0.6875s0.35541 0.50774 0.5 0.78125c0.14012 0.26505 0.27614 0.52473 0.375 0.8125 0.01041 0.03078 0.02133 0.06274 0.03125 0.09375 0.09046 0.27808 0.1388 0.5794 0.1875 0.875 0.053 0.318 0.094 0.634 0.094 0.969v72c0 3.324-2.676 6-6 6h-72z"
     opacity=".4" /><g
     id="g86"
     style="color:#000000"><rect
       id="rect78"
       fill="url(#l)"
       x="8"
       y="71"
       width="72"
       height="1"
       opacity=".2" /><rect
       id="rect80"
       fill="url(#m)"
       x="32"
       y="23"
       width="56"
       height="1"
       opacity="0.12" /><rect
       id="rect82"
       fill="url(#n)"
       x="48"
       y="-24"
       width="32"
       height="1"
       transform="rotate(90)"
       opacity=".15" /><rect
       id="rect84"
       fill="url(#o)"
       x="8"
       y="-73"
       width="80"
       height="1"
       transform="rotate(90)"
       opacity=".15" /></g><g
     id="text88"
     style="font-style:italic;font-size:65.83999634px;font-family:'DejaVu Serif';fill:url(#c)"
     aria-label="A"><path
       id="path902-3"
       style="font-style:italic;font-size:65.84px;font-family:'DejaVu Serif';display:inline;fill:url(#linearGradient131)"
       d="M 49.070312 32.634766 L 46.382812 37.283203 L 46.382812 44.240234 L 49.070312 39.609375 L 49.070312 32.634766 z M 40.806641 46.925781 L 39.253906 49.611328 L 43.265625 49.611328 L 44.824219 46.925781 L 40.806641 46.925781 z M 56.513672 46.925781 L 57.027344 49.611328 L 64.337891 49.611328 L 63.826172 46.925781 L 56.513672 46.925781 z M 46.382812 54.607422 L 46.382812 58.046875 L 49.070312 58.046875 L 49.070312 54.607422 L 46.382812 54.607422 z " /><path
       id="path902"
       style="font-style:italic;font-size:65.84px;font-family:'DejaVu Serif';display:inline;fill:url(#linearGradient129)"
       d="M 57.027344 49.611328 L 57.984375 54.607422 L 49.070312 54.607422 L 49.070312 58.046875 L 58.5625 58.046875 L 60.523438 68.591797 L 55.1875 68.591797 L 54.544922 72 L 72.001953 72 L 72.644531 68.591797 L 67.951172 68.591797 L 64.337891 49.611328 L 57.027344 49.611328 z " /><path
       id="path4"
       style="font-style:italic;font-size:65.84px;font-family:'DejaVu Serif';display:inline;fill:url(#linearGradient127)"
       d="M 39.253906 49.611328 L 28.279297 68.591797 L 24.068359 68.591797 L 23.425781 72 L 36.927734 72 L 37.570312 68.591797 L 32.296875 68.591797 L 38.373047 58.046875 L 46.382812 58.046875 L 46.382812 54.607422 L 40.367188 54.607422 L 43.265625 49.611328 L 39.253906 49.611328 z " /><path
       id="path5"
       style="font-style:italic;font-size:65.84px;font-family:'DejaVu Serif';display:inline;fill:url(#linearGradient124)"
       d="M 54.0625 24.001953 L 49.070312 32.634766 L 49.070312 39.609375 L 53.611328 31.783203 L 56.511719 46.925781 L 63.826172 46.925781 L 59.462891 24.001953 L 54.0625 24.001953 z " /><path
       id="path6"
       style="font-style:italic;font-size:65.84px;font-family:'DejaVu Serif';display:inline;fill:url(#linearGradient63)"
       d="M 46.382812 37.283203 L 40.806641 46.925781 L 44.824219 46.925781 L 46.382812 44.240234 L 46.382812 37.283203 z " /></g></svg>
