<?xml version="1.0" encoding="UTF-8" standalone="no"?>
<!-- Created with Inkscape (http://www.inkscape.org/) -->

<svg
   width="96"
   height="96"
   viewBox="0 0 96 96.000004"
   version="1.1"
   id="svg1"
   xml:space="preserve"
   sodipodi:docname="waterfox.svg"
   inkscape:version="1.4.3 (0d15f75042, 2025-12-25)"
   inkscape:export-filename="waterfox.png"
   inkscape:export-xdpi="96"
   inkscape:export-ydpi="96"
   xmlns:inkscape="http://www.inkscape.org/namespaces/inkscape"
   xmlns:sodipodi="http://sodipodi.sourceforge.net/DTD/sodipodi-0.dtd"
   xmlns:xlink="http://www.w3.org/1999/xlink"
   xmlns="http://www.w3.org/2000/svg"
   xmlns:svg="http://www.w3.org/2000/svg"
   xmlns:rdf="http://www.w3.org/1999/02/22-rdf-syntax-ns#"
   xmlns:cc="http://creativecommons.org/ns#"><sodipodi:namedview
     id="namedview1"
     pagecolor="#505050"
     bordercolor="#eeeeee"
     borderopacity="1"
     inkscape:showpageshadow="0"
     inkscape:pageopacity="0"
     inkscape:pagecheckerboard="0"
     inkscape:deskcolor="#505050"
     inkscape:document-units="px"
     inkscape:zoom="0.9792"
     inkscape:cx="34.211601"
     inkscape:cy="20.424837"
     inkscape:window-width="1920"
     inkscape:window-height="1020"
     inkscape:window-x="0"
     inkscape:window-y="32"
     inkscape:window-maximized="1"
     inkscape:current-layer="g16" /><defs
     id="defs1"><linearGradient
       id="linearGradient10"
       inkscape:collect="always"><stop
         style="stop-color:#00bfff;stop-opacity:1;"
         offset="0"
         id="stop1" /><stop
         style="stop-color:#0000cc;stop-opacity:1;"
         offset="1"
         id="stop2" /></linearGradient><linearGradient
       id="linearGradient13"
       inkscape:collect="always"><stop
         style="stop-color:#ffffff;stop-opacity:1;"
         offset="0"
         id="stop13" /><stop
         style="stop-color:#ffffff;stop-opacity:0;"
         offset="1"
         id="stop14" /></linearGradient><linearGradient
       id="linearGradient9"
       inkscape:collect="always"><stop
         style="stop-color:#000000;stop-opacity:1;"
         offset="0"
         id="stop3" /><stop
         style="stop-color:#000000;stop-opacity:0.58999997;"
         offset="1"
         id="stop4" /></linearGradient><linearGradient
       id="linearGradient7"
       inkscape:collect="always"><stop
         style="stop-color:#7d4698;stop-opacity:1;"
         offset="0"
         id="stop7" /><stop
         style="stop-color:#59316b;stop-opacity:1;"
         offset="1"
         id="stop8" /></linearGradient><linearGradient
       inkscape:collect="always"
       xlink:href="#linearGradient9"
       id="linearGradient2"
       x1="49"
       y1="93"
       x2="49"
       y2="7"
       gradientUnits="userSpaceOnUse"
       gradientTransform="translate(-1,-1)" /><linearGradient
       inkscape:collect="always"
       xlink:href="#linearGradient9"
       id="linearGradient3"
       gradientUnits="userSpaceOnUse"
       gradientTransform="matrix(1.0238095,0,0,1.0119048,-2.1666666,-1.0952381)"
       x1="49"
       y1="93"
       x2="49"
       y2="7" /><linearGradient
       inkscape:collect="always"
       xlink:href="#linearGradient9"
       id="linearGradient4"
       gradientUnits="userSpaceOnUse"
       gradientTransform="matrix(1.047619,0,0,1.0357143,-3.3333332,-2.2857148)"
       x1="49"
       y1="93"
       x2="49"
       y2="7" /><linearGradient
       inkscape:collect="always"
       xlink:href="#linearGradient9"
       id="linearGradient5"
       gradientUnits="userSpaceOnUse"
       gradientTransform="matrix(1.0714286,0,0,1.0714286,-4.5,-3.5714292)"
       x1="49"
       y1="93"
       x2="49"
       y2="7" /><linearGradient
       inkscape:collect="always"
       xlink:href="#linearGradient9"
       id="linearGradient6"
       gradientUnits="userSpaceOnUse"
       gradientTransform="matrix(1.0952381,0,0,1.0833334,-5.6666665,-4.6666672)"
       x1="49"
       y1="93"
       x2="49"
       y2="7" /><linearGradient
       inkscape:collect="always"
       xlink:href="#linearGradient7"
       id="linearGradient8"
       x1="48"
       y1="6"
       x2="48"
       y2="90"
       gradientUnits="userSpaceOnUse" /><linearGradient
       x1="198.26646"
       y1="346.52609"
       x2="198.26646"
       y2="20.550627"
       id="linearGradient-1"
       gradientTransform="scale(0.7086423,1.4111492)"
       gradientUnits="userSpaceOnUse"><stop
         stop-color="#420C5D"
         offset="0%"
         id="stop1-3" /><stop
         stop-color="#951AD1"
         offset="100%"
         id="stop2-6" /></linearGradient><path
       d="M25,29 C152.577777,29 256,131.974508 256,259 C256,386.025492 152.577777,489 25,489 L25,29 Z"
       id="path-2" /><filter
       x="-0.13852814"
       y="-0.052173913"
       width="1.2424242"
       height="1.1043478"
       filterUnits="objectBoundingBox"
       id="filter-3"><feOffset
         dx="-8"
         dy="0"
         in="SourceAlpha"
         result="shadowOffsetOuter1"
         id="feOffset2" /><feGaussianBlur
         stdDeviation="10"
         in="shadowOffsetOuter1"
         result="shadowBlurOuter1"
         id="feGaussianBlur2" /><feColorMatrix
         values="0 0 0 0 0.250980392   0 0 0 0 0.250980392   0 0 0 0 0.250980392  0 0 0 0.2 0"
         type="matrix"
         in="shadowBlurOuter1"
         id="feColorMatrix2" /></filter><linearGradient
       inkscape:collect="always"
       xlink:href="#linearGradient13"
       id="linearGradient12"
       x1="6"
       y1="6"
       x2="6"
       y2="64"
       gradientUnits="userSpaceOnUse" /><radialGradient
       inkscape:collect="always"
       xlink:href="#linearGradient13"
       id="radialGradient14"
       cx="48"
       cy="90"
       fx="48"
       fy="90"
       r="42"
       gradientUnits="userSpaceOnUse" /><path
       d="M25,29 C152.577777,29 256,131.974508 256,259 C256,386.025492 152.577777,489 25,489 L25,29 Z"
       id="path-2-5" /><filter
       x="-0.034633829"
       y="-9.0131971e-07"
       width="1.0346356"
       height="1.0000018"
       filterUnits="objectBoundingBox"
       id="filter-3-3"><feOffset
         dx="-8"
         dy="0"
         in="SourceAlpha"
         result="shadowOffsetOuter1"
         id="feOffset2-5" /><feGaussianBlur
         stdDeviation="0.00017274414"
         in="shadowOffsetOuter1"
         result="shadowBlurOuter1"
         id="feGaussianBlur2-6" /><feColorMatrix
         values="0 0 0 0 0.250980392   0 0 0 0 0.250980392   0 0 0 0 0.250980392  0 0 0 0.2 0"
         type="matrix"
         in="shadowBlurOuter1"
         id="feColorMatrix2-2" /></filter><clipPath
       clipPathUnits="userSpaceOnUse"
       id="clipPath22"><rect
         style="opacity:1;fill:url(#linearGradient8);stroke:none;stroke-width:2;stroke-linecap:round;stroke-linejoin:round;paint-order:stroke markers fill"
         id="rect23"
         width="84"
         height="84"
         x="6"
         y="6"
         rx="6"
         ry="6" /></clipPath><clipPath
       clipPathUnits="userSpaceOnUse"
       id="clipPath26"><rect
         style="display:inline;opacity:1;fill:url(#linearGradient8);stroke:none;stroke-width:2;stroke-linecap:round;stroke-linejoin:round;paint-order:stroke markers fill"
         id="rect27"
         width="84"
         height="84"
         x="6"
         y="6"
         rx="6"
         ry="6" /></clipPath><linearGradient
       inkscape:collect="always"
       xlink:href="#linearGradient10"
       id="linearGradient1"
       gradientUnits="userSpaceOnUse"
       x1="48"
       y1="6"
       x2="48"
       y2="90" /><linearGradient
       x1="45.447727"
       y1="92.539597"
       x2="45.447727"
       y2="7.0165396"
       id="ButtonShadow"
       gradientUnits="userSpaceOnUse"
       gradientTransform="scale(1.0058652,0.994169)"><stop
         id="stop3750"
         style="stop-color:#000000;stop-opacity:1"
         offset="0" /><stop
         id="stop3752"
         style="stop-color:#000000;stop-opacity:0.58823532"
         offset="1" /></linearGradient><linearGradient
       id="linearGradient3700"><stop
         id="stop3702"
         style="stop-color:#2295c5;stop-opacity:1"
         offset="0" /><stop
         id="stop3704"
         style="stop-color:#68d8f4;stop-opacity:1"
         offset="1" /></linearGradient><filter
       color-interpolation-filters="sRGB"
       id="filter3174"
       x="-0.047720931"
       y="-0.048282354"
       width="1.0954419"
       height="1.0965647"><feGaussianBlur
         id="feGaussianBlur3176"
         stdDeviation="1.71" /></filter><linearGradient
       x1="36.357143"
       y1="6"
       x2="36.357143"
       y2="63.893143"
       id="linearGradient3188"
       xlink:href="#linearGradient13"
       gradientUnits="userSpaceOnUse" /><filter
       x="-0.19578789"
       y="-0.19578789"
       width="1.3915758"
       height="1.3915758"
       color-interpolation-filters="sRGB"
       id="filter3794"><feGaussianBlur
         id="feGaussianBlur3796"
         stdDeviation="5.28" /></filter><linearGradient
       x1="48"
       y1="20.220806"
       x2="48"
       y2="138.66119"
       id="linearGradient3613"
       xlink:href="#linearGradient13"
       gradientUnits="userSpaceOnUse" /><radialGradient
       cx="48"
       cy="90.171875"
       r="42"
       fx="48"
       fy="90.171875"
       id="radialGradient3619"
       xlink:href="#linearGradient13"
       gradientUnits="userSpaceOnUse"
       gradientTransform="matrix(1.1573129,0,0,0.99590774,-7.5510206,0.19713193)" /><clipPath
       id="clipPath3613"><rect
         width="84"
         height="84"
         rx="6"
         ry="6"
         x="6"
         y="6"
         id="rect3615"
         style="fill:#ffffff;fill-opacity:1;fill-rule:nonzero;stroke:none" /></clipPath><linearGradient
       x1="48"
       y1="90"
       x2="48"
       y2="5.9877172"
       id="linearGradient3617"
       xlink:href="#linearGradient3700"
       gradientUnits="userSpaceOnUse" /><linearGradient
       x1="45.447727"
       y1="92.539597"
       x2="45.447727"
       y2="7.0165396"
       id="ButtonShadow-0"
       gradientUnits="userSpaceOnUse"
       gradientTransform="matrix(1.0058652,0,0,0.994169,100,0)"><stop
         id="stop3750-8"
         style="stop-color:#000000;stop-opacity:1"
         offset="0" /><stop
         id="stop3752-5"
         style="stop-color:#000000;stop-opacity:0.58823532"
         offset="1" /></linearGradient><linearGradient
       x1="32.251034"
       y1="6.1317081"
       x2="32.251034"
       y2="90.238609"
       id="linearGradient3780"
       xlink:href="#ButtonShadow-0"
       gradientUnits="userSpaceOnUse"
       gradientTransform="matrix(1.0238095,0,0,1.0119048,-1.1428571,-98.071429)" /><linearGradient
       x1="32.251034"
       y1="6.1317081"
       x2="32.251034"
       y2="90.238609"
       id="linearGradient3721"
       xlink:href="#ButtonShadow-0"
       gradientUnits="userSpaceOnUse"
       gradientTransform="translate(0,-97)" /><linearGradient
       id="e"
       x1="1082.197"
       x2="1323.2209"
       y1="1014.341"
       y2="449.013"
       gradientUnits="userSpaceOnUse"
       gradientTransform="translate(0,-5.3008205e-5)"><stop
         offset=".00001"
         stop-color="#2f76eb"
         id="stop9" /><stop
         offset="1"
         stop-color="#7e94f3"
         id="stop10" /></linearGradient><linearGradient
       id="d"
       x1="369.77802"
       x2="49.933998"
       y1="984.82098"
       y2="474.81"
       gradientUnits="userSpaceOnUse"
       gradientTransform="translate(0,-5.3008205e-5)"><stop
         offset=".00001"
         stop-color="#008aed"
         id="stop7-2" /><stop
         offset="1"
         stop-color="#05d1ea"
         id="stop8-6" /></linearGradient><linearGradient
       id="c"
       x1="782.06"
       x2="1178.071"
       y1="1081.194"
       y2="878.104"
       gradientUnits="userSpaceOnUse"
       gradientTransform="translate(0,-5.3008205e-5)"><stop
         offset=".00001"
         stop-color="#08a9f8"
         id="stop5" /><stop
         offset="1"
         stop-color="#0cdbfe"
         id="stop6" /></linearGradient><linearGradient
       id="b"
       x1="729.81702"
       x2="432.83401"
       y1="1172.043"
       y2="591.96002"
       gradientUnits="userSpaceOnUse"
       gradientTransform="translate(0,-5.3008205e-5)"><stop
         offset=".00001"
         stop-color="#10b8f7"
         id="stop3-1" /><stop
         offset="1"
         stop-color="#2bffff"
         id="stop4-8" /></linearGradient><linearGradient
       id="a"
       x1="427.14099"
       x2="406.314"
       y1="596.23199"
       y2="384.08099"
       gradientUnits="userSpaceOnUse"
       gradientTransform="translate(0,-5.3008205e-5)"><stop
         offset=".00001"
         stop-color="#00dffe"
         id="stop1-7" /><stop
         offset="1"
         stop-color="#62fefa"
         id="stop2-9" /></linearGradient><filter
       inkscape:collect="always"
       style="color-interpolation-filters:sRGB"
       id="filter14"
       x="-0.10800025"
       y="-0.10799974"
       width="1.2160005"
       height="1.2159995"><feGaussianBlur
         inkscape:collect="always"
         stdDeviation="42.523809"
         id="feGaussianBlur14" /></filter><clipPath
       clipPathUnits="userSpaceOnUse"
       id="clipPath14"><rect
         style="display:inline;opacity:1;fill:url(#linearGradient15);stroke:none;stroke-width:22.4994;stroke-linecap:round;stroke-linejoin:round;paint-order:stroke markers fill"
         id="rect15"
         width="944.97131"
         height="944.97577"
         x="236.99422"
         y="236.5795"
         rx="67.497948"
         ry="67.498268" /></clipPath><linearGradient
       inkscape:collect="always"
       xlink:href="#linearGradient10"
       id="linearGradient15"
       gradientUnits="userSpaceOnUse"
       x1="48"
       y1="6"
       x2="48"
       y2="90"
       gradientTransform="matrix(11.249658,0,0,11.249711,169.49627,169.08124)" /><clipPath
       clipPathUnits="userSpaceOnUse"
       id="clipPath5483"><path
         d="M -373.66291,-286.55714 H 418.33711 V 172.44285 H -373.66291 Z"
         id="path5483" /></clipPath><clipPath
       clipPathUnits="userSpaceOnUse"
       id="clipPath5485"><path
         d="M -375.36211,-286.55714 H 416.63791 V 172.44285 H -375.36211 Z"
         id="path5485" /></clipPath><clipPath
       clipPathUnits="userSpaceOnUse"
       id="clipPath5490"><path
         d="M -361.18721,-291.48922 H 430.81281 V 167.51077 H -361.18721 Z"
         id="path5490" /></clipPath><clipPath
       clipPathUnits="userSpaceOnUse"
       id="clipPath17"><rect
         style="display:inline;opacity:1;fill:url(#linearGradient18);stroke:none;stroke-width:22.4994;stroke-linecap:round;stroke-linejoin:round;paint-order:stroke markers fill"
         id="rect18"
         width="503.99814"
         height="503.99945"
         x="275.63858"
         y="164.70129"
         rx="67.497948"
         ry="67.498268" /></clipPath><linearGradient
       inkscape:collect="always"
       xlink:href="#linearGradient10"
       id="linearGradient18"
       gradientUnits="userSpaceOnUse"
       x1="48"
       y1="6"
       x2="48"
       y2="90"
       gradientTransform="matrix(5.9999779,0,0,5.9999934,239.63871,128.70134)" /></defs><g
     inkscape:label="Layer 1"
     inkscape:groupmode="layer"
     id="layer1"><g
       id="layer2"
       style="display:none"
       transform="translate(1.1040001,1.104)"><rect
         width="86"
         height="85"
         rx="6"
         ry="6"
         x="5"
         y="7"
         id="rect3745"
         style="opacity:0.9;fill:url(#ButtonShadow);fill-opacity:1;fill-rule:nonzero;stroke:none;filter:url(#filter3174)" /></g><g
       id="g6"
       inkscape:label="layer3"
       style="display:inline"><rect
         style="display:inline;opacity:0.08;fill:url(#linearGradient6);stroke:none;stroke-width:2;stroke-linecap:round;stroke-linejoin:round;paint-order:stroke markers fill"
         id="rect5"
         width="92"
         height="91"
         x="2"
         y="4"
         rx="10"
         ry="10" /><rect
         style="display:inline;opacity:0.1;fill:url(#linearGradient5);stroke:none;stroke-width:2;stroke-linecap:round;stroke-linejoin:round;paint-order:stroke markers fill"
         id="rect4"
         width="90"
         height="89"
         x="3"
         y="5"
         rx="9"
         ry="9" /><rect
         style="display:inline;opacity:0.2;fill:url(#linearGradient4);stroke:none;stroke-width:2;stroke-linecap:round;stroke-linejoin:round;paint-order:stroke markers fill"
         id="rect3"
         width="88"
         height="87"
         x="4"
         y="6"
         rx="8"
         ry="8" /><rect
         style="display:inline;opacity:0.3;fill:url(#linearGradient3);stroke:none;stroke-width:2;stroke-linecap:round;stroke-linejoin:round;paint-order:stroke markers fill"
         id="rect2"
         width="86"
         height="85"
         x="5"
         y="7.0000005"
         rx="7"
         ry="7" /><rect
         style="display:inline;opacity:0.45;fill:url(#linearGradient2);stroke:none;stroke-width:2;stroke-linecap:round;stroke-linejoin:round;paint-order:stroke markers fill"
         id="rect1"
         width="84"
         height="84"
         x="6"
         y="7"
         rx="6"
         ry="6" /></g><g
       id="g26"
       style="display:inline"
       inkscape:label="layer1"><rect
         style="display:inline;opacity:1;fill:url(#linearGradient1);stroke:none;stroke-width:2;stroke-linecap:round;stroke-linejoin:round;paint-order:stroke markers fill"
         id="rect6"
         width="84"
         height="84"
         x="6"
         y="6"
         rx="6"
         ry="6" /><g
         id="layer5"
         style="display:inline"><rect
           width="66"
           height="66"
           rx="12"
           ry="12"
           x="15"
           y="15"
           clip-path="url(#clipPath3613)"
           id="rect3171"
           style="display:inline;opacity:0.1;fill:url(#linearGradient3613);fill-opacity:1;fill-rule:nonzero;stroke:#ffffff;stroke-width:0.5;stroke-linecap:round;stroke-linejoin:miter;stroke-miterlimit:4;stroke-dasharray:none;stroke-dashoffset:0;stroke-opacity:1;filter:url(#filter3794)" /></g><g
         id="g16"
         inkscape:label="Layer4"
         transform="matrix(0.08889159,0,0,0.08889117,-15.066793,-15.029829)"
         style="display:inline;stroke-width:11.2497"><path
           id="path3"
           style="display:inline;fill:#000000;fill-opacity:1;stroke-width:11.2497;filter:url(#filter14);opacity:0.9"
           d="M 575.29693 236.57951 C 556.60793 264.57837 544.05064 296.34523 538.58173 329.80709 C 532.27375 366.64401 533.04917 407.20909 543.70121 443.20506 C 545.82017 450.36607 548.32667 458.69566 552.77564 464.80363 C 554.34467 466.95768 557.03159 470.08149 559.85062 470.42848 C 562.10758 470.70649 565.24298 467.68787 566.63996 466.18787 C 572.95099 459.41089 577.58757 450.54697 583.40459 443.22703 C 596.7556 426.426 614.77468 412.58066 632.73171 400.9747 C 651.44314 389.07675 671.03241 378.63297 691.331 369.70841 C 707.344 362.51944 723.82415 356.49531 739.84515 349.36226 C 774.22314 334.05732 809.25443 311.66277 829.02945 278.85381 C 836.81055 265.94429 841.88557 251.5336 842.98166 236.57951 L 575.29693 236.57951 z M 935.22007 373.33381 C 921.4341 373.08278 907.66324 374.15261 893.95668 375.8606 C 891.94654 376.111 889.94273 376.25295 887.93635 376.54173 C 875.93557 378.26921 864.07608 380.8769 852.27582 383.85844 C 841.61683 386.55064 831.19783 389.92575 820.78996 393.48222 C 815.82349 395.17924 810.78828 396.53552 805.89295 398.40397 C 790.7498 404.18234 775.90523 410.59699 761.61939 417.69546 C 745.54737 425.68142 727.90936 434.66978 713.78637 445.79777 C 695.98002 456.16863 679.00705 470.11134 663.4046 483.52385 C 628.65576 513.37609 598.03872 547.73204 572.39663 585.69408 C 548.3666 621.24511 527.84779 659.79376 506.3708 696.93878 L 427.09586 834.68183 L 331.47377 619.3773 L 304.11864 557.8115 C 294.85264 536.9625 286.6456 515.2718 272.76462 496.9488 C 262.36755 483.2254 250.3475 472.01585 236.99422 463.11178 L 236.99422 1042.9553 L 236.99422 1114.057 C 236.99422 1151.451 267.09831 1181.5553 304.49217 1181.5553 L 575.64848 1181.5553 L 590.0621 1155.9138 L 709.50183 942.56481 L 825.97535 1151.4535 L 842.718 1181.5553 L 1114.4676 1181.5553 C 1151.8614 1181.5553 1181.9655 1151.451 1181.9655 1114.057 L 1181.9655 1042.9992 L 1181.9655 463.26558 C 1168.0601 472.74064 1155.7695 484.5159 1145.6678 498.17924 C 1132.9279 515.4702 1125.0672 535.5241 1116.3571 554.99907 L 1090.1226 613.90625 L 993.75345 831.18827 L 928.01326 712.9125 C 916.47524 692.14449 905.35582 670.94064 893.05583 650.62161 C 906.2705 633.99159 920.4636 618.12538 934.62683 602.30498 L 934.6488 602.28301 C 940.65679 597.29796 946.04422 590.50715 951.54526 584.85914 C 962.47226 573.63081 973.69872 562.68732 985.20635 552.05481 C 1000.1634 538.47144 1015.4043 525.19713 1030.9081 512.24138 C 1036.7439 507.27297 1042.7372 502.30579 1048.5296 497.14655 L 1048.5516 497.14655 C 1054.3428 491.98922 1059.9331 486.62341 1064.9647 480.82128 C 1067.5547 477.8363 1069.9933 474.61196 1071.8858 471.13159 C 1072.8339 469.39147 1073.6454 467.57517 1074.2808 465.70448 C 1074.9127 463.83999 1075.3699 461.90247 1075.5991 459.90385 C 1075.9691 456.68809 1075.7422 453.50119 1075.0718 450.38994 C 1073.0622 441.0598 1067.0757 432.34604 1061.3832 425.12203 C 1059.4828 422.70804 1057.4965 420.39957 1055.4288 418.17885 C 1049.2253 411.51644 1042.2964 405.70709 1034.8411 400.68906 C 1013.1502 386.08642 986.97351 378.14251 960.97124 375.0696 C 952.40187 374.05673 943.81124 373.49025 935.22007 373.33381 z M 419.95497 382.0787 C 401.48796 383.31063 386.08089 390.58826 373.74788 404.53418 C 356.00288 424.59821 349.04624 452.10937 350.72123 478.42633 C 353.01624 514.50836 370.34135 550.33677 397.67537 574.09282 C 403.82506 579.44462 410.47823 584.18242 417.56002 588.22087 C 423.44002 591.35387 431.98592 596.85335 438.82891 596.50435 C 441.14391 594.60835 441.29739 591.45841 441.59738 588.5944 C 442.35138 581.40342 442.03456 573.94719 442.25654 566.71019 C 442.70256 552.15624 444.09682 537.17171 447.50784 523.0077 C 450.42388 510.8213 454.38059 498.92499 459.32877 487.41291 C 463.33377 478.11091 468.43166 469.19908 471.96267 459.7061 C 479.11767 440.4641 478.61635 418.85387 465.15135 402.44683 C 456.20335 391.54289 442.63903 383.9781 428.54602 382.54011 C 425.73504 382.25313 422.78196 382.0548 419.95497 382.0787 z "
           clip-path="url(#clipPath14)" /><path
           id="path1"
           style="fill:#68edfc;fill-opacity:1;stroke-width:11.2497"
           d="m 575.29693,236.57951 c -18.689,27.99886 -31.24629,59.76572 -36.7152,93.22758 -6.30798,36.83692 -5.53256,77.402 5.11948,113.39797 2.11896,7.16101 4.62546,15.4906 9.07443,21.59857 1.56903,2.15405 4.25595,5.27786 7.07498,5.62485 2.25696,0.27801 5.39236,-2.74061 6.78934,-4.24061 6.31103,-6.77698 10.94761,-15.6409 16.76463,-22.96084 13.35101,-16.80103 31.37009,-30.64637 49.32712,-42.25233 18.71143,-11.89795 38.3007,-22.34173 58.59929,-31.26629 16.013,-7.18897 32.49315,-13.2131 48.51415,-20.34615 34.37799,-15.30494 69.40928,-37.69949 89.1843,-70.50845 7.7811,-12.90952 12.85612,-27.32021 13.95221,-42.2743 z" /><path
           fill="url(#a)"
           d="m 419.952,382.07295 c 2.82699,-0.0239 5.77801,0.19104 8.58899,0.47802 14.09301,1.43799 27.669,9 36.617,19.90394 13.465,16.40704 13.96201,38.01904 6.80701,57.26104 -3.53101,9.49298 -8.62699,18.38398 -12.63199,27.68598 -4.94818,11.51208 -8.90195,23.42663 -11.81799,35.61303 -3.41102,14.16401 -4.80701,29.15101 -5.25303,43.70496 -0.22198,7.237 0.081,14.69104 -0.673,21.88202 -0.29999,2.86401 -0.448,5.99902 -2.763,7.89502 -6.84299,0.349 -15.38498,-5.15399 -21.26498,-8.28699 -7.08179,-4.03845 -13.74631,-8.76819 -19.896,-14.11999 -27.33402,-23.75605 -44.638,-59.57904 -46.93301,-95.66107 -1.67499,-26.31696 5.277,-53.82697 23.022,-73.891 12.33301,-13.94592 27.73099,-21.23303 46.198,-22.46496"
           id="path2"
           style="fill:url(#a);stroke-width:11.2497" /><path
           id="path4"
           style="fill:url(#b);stroke-width:11.2497"
           d="m 935.22007,373.33381 c -60.13818,-1.09507 -120.31583,17.88499 -173.60068,44.36165 -16.07202,7.98596 -33.71003,16.97432 -47.83302,28.10231 -17.80701,10.37097 -34.7788,24.31312 -50.38177,37.72608 -34.74884,29.85224 -65.36588,64.20819 -91.00797,102.17023 -24.03003,35.55103 -44.54884,74.09968 -66.02583,111.2447 l -79.27494,137.74305 c -9.315,15.193 -17.88688,30.93509 -26.73991,46.40506 l -40.75803,70.81605 c -11.44,19.92999 -24.22608,46.91987 -39.94508,63.14776 -12.65454,12.9484 -28.71249,22.05 -46.31695,26.2787 -12.01891,2.8692 -24.35275,3.3871 -36.34167,1.6259 v 71.1017 c 0,37.394 30.10409,67.4983 67.49795,67.4983 h 271.15631 l 14.41362,-25.6415 119.43973,-213.34899 c 55.807,-100.33599 109.16405,-203.59921 183.554,-291.9432 13.22101,-16.638 27.42298,-32.51066 41.59297,-48.3386 6.00799,-4.98505 11.39542,-11.77586 16.89646,-17.42387 10.927,-11.22833 22.15346,-22.17182 33.66109,-32.80433 14.95705,-13.58337 30.19795,-26.85768 45.70175,-39.81343 11.68,-9.94397 23.9866,-19.80804 34.0566,-31.4201 5.18,-5.96997 9.7144,-12.89442 10.6344,-20.91743 1.4799,-12.86304 -6.6259,-25.1498 -14.2159,-34.78182 -24.1901,-30.72699 -62.49399,-45.57135 -100.41196,-50.05243 -8.56937,-1.01287 -17.16,-1.57935 -25.75117,-1.73579 z" /><path
           fill="#bafafc"
           d="m 713.78601,445.79695 c 14.12299,-11.12799 31.75397,-20.11304 47.82599,-28.099 60.89697,-30.25904 130.79602,-50.73706 199.35101,-42.63404 37.91797,4.48108 76.22689,19.33606 100.41699,50.06305 7.59,9.63202 15.6899,21.90595 14.21,34.76899 -0.92,8.02301 -5.44,14.94799 -10.62,20.91796 -10.07,11.61206 -22.38,21.48706 -34.06,31.43103 -15.5038,12.95575 -30.739,26.22962 -45.69601,39.81299 -11.50763,10.63251 -22.73096,21.56867 -33.65796,32.797 -5.50104,5.64801 -10.89203,12.453 -16.90002,17.43805 -20.93799,9.70996 -40.30799,20.14197 -63.18103,25.06 -15.88099,3.414 -34.82197,4.52099 -48.91596,-5.04401 -10.35101,-7.02405 -14.43402,-17.14404 -16.893,-28.86401 -21.508,20.16296 -50.904,43.35797 -80.58802,47.79901 -12.46002,1.86499 -24.974,0.017 -35.19897,-7.77405 -14.22205,-10.83795 -20.47705,-30.06299 -22.69306,-47.11798 -4.91296,-37.81897 5.82703,-78.07697 25.22901,-110.51495 6.34704,-10.61005 13.84204,-20.26703 21.37103,-30.04004"
           id="path5"
           style="stroke-width:11.2497" /><path
           id="path6"
           style="fill:url(#c);stroke-width:11.2497"
           d="m 893.05583,650.62161 c -74.38995,88.34399 -127.747,191.6072 -183.554,291.9432 l 116.47352,208.88869 16.74265,30.1018 h 271.7496 c 37.3938,0 67.4979,-30.1043 67.4979,-67.4983 v -71.0578 c -13.7023,2.0098 -27.8196,1.0334 -41.3513,-3.0101 -15.37,-4.55 -31.1805,-13.6456 -42.0104,-25.5756 -9.75,-10.75 -16.1046,-23.65094 -23.1146,-36.23193 L 1054.7257,940.85098 993.75345,831.18827 928.01326,712.9125 c -11.53802,-20.76801 -22.65744,-41.97186 -34.95743,-62.29089 z" /><path
           id="path8"
           style="fill:url(#d);stroke-width:11.2497"
           d="m 236.99422,463.11178 v 579.84352 c 11.98892,1.7612 24.32276,1.2433 36.34167,-1.6259 17.60446,-4.2287 33.66241,-13.3303 46.31695,-26.2787 15.719,-16.22789 28.50508,-43.21777 39.94508,-63.14776 l 40.75803,-70.81605 c 8.85303,-15.46997 17.42491,-31.21206 26.73991,-46.40506 L 331.47377,619.3773 304.11864,557.8115 c -9.266,-20.849 -17.47304,-42.5397 -31.35402,-60.8627 -10.39707,-13.7234 -22.41712,-24.93295 -35.7704,-33.83702 z" /><path
           id="path10"
           style="fill:url(#e);stroke-width:11.2497"
           d="m 1181.9655,463.26558 c -13.9054,9.47506 -26.196,21.25032 -36.2977,34.91366 -12.7399,17.29096 -20.6006,37.34486 -29.3107,56.81983 l -26.2345,58.90718 -96.36915,217.28202 60.97225,109.66271 20.7635,37.33059 c 7.01,12.58099 13.3646,25.48193 23.1146,36.23193 10.8299,11.93 26.6404,21.0256 42.0104,25.5756 13.5317,4.0435 27.649,5.0199 41.3513,3.0101 z" /><g
           id="g1"
           inkscape:label="1"
           transform="matrix(1.8749499,0,0,1.8749539,-279.81431,-72.227843)"
           style="stroke-width:67.498" /></g><path
         id="rect9"
         style="display:inline;opacity:0.4;fill:url(#linearGradient12);stroke-width:1.99999;stroke-linecap:round;stroke-linejoin:round;paint-order:stroke markers fill"
         d="M 12,6 C 8.676,6 6,8.676 6,12 V 64 H 7 V 14 C 7,10.676 9.676,8 13,8 h 70 c 3.324,0 6,2.676 6,6 v 50 h 1 V 12 C 90,8.676 87.324,6 84,6 Z" /><path
         id="rect12"
         style="display:inline;opacity:0.2;fill:url(#radialGradient14);fill-opacity:1;stroke-width:2;stroke-linecap:round;stroke-linejoin:round;paint-order:stroke markers fill"
         d="M 12,6 C 8.676,6 6,8.676 6,12 v 72 c 0,3.324 2.676,6 6,6 h 72 c 3.324,0 6,-2.676 6,-6 V 12 C 90,8.676 87.324,6 84,6 h -1 c 3.324,0 6,2.676 6,6 v 70 c 0,3.324 -2.676,6 -6,6 H 13 C 9.676,88 7,85.324 7,82 V 12 C 7,8.676 9.676,6 13,6 Z" /></g></g><metadata
     id="metadata1"><rdf:RDF><cc:Work
         rdf:about="" /></rdf:RDF></metadata></svg>
