<?xml version="1.0" encoding="UTF-8" standalone="no"?>
<!-- Created with Inkscape (http://www.inkscape.org/) -->

<svg
   width="96"
   height="96"
   viewBox="0 0 96 96.000004"
   version="1.1"
   id="svg1"
   xml:space="preserve"
   sodipodi:docname="waterfox.svg"
   inkscape:version="1.4.3 (0d15f75042, 2025-12-25)"
   inkscape:export-filename="waterfox.png"
   inkscape:export-xdpi="96"
   inkscape:export-ydpi="96"
   xmlns:inkscape="http://www.inkscape.org/namespaces/inkscape"
   xmlns:sodipodi="http://sodipodi.sourceforge.net/DTD/sodipodi-0.dtd"
   xmlns:xlink="http://www.w3.org/1999/xlink"
   xmlns="http://www.w3.org/2000/svg"
   xmlns:svg="http://www.w3.org/2000/svg"
   xmlns:rdf="http://www.w3.org/1999/02/22-rdf-syntax-ns#"
   xmlns:cc="http://creativecommons.org/ns#"><sodipodi:namedview
     id="namedview1"
     pagecolor="#505050"
     bordercolor="#eeeeee"
     borderopacity="1"
     inkscape:showpageshadow="0"
     inkscape:pageopacity="0"
     inkscape:pagecheckerboard="0"
     inkscape:deskcolor="#505050"
     inkscape:document-units="px"
     inkscape:zoom="0.9792"
     inkscape:cx="34.211601"
     inkscape:cy="20.424837"
     inkscape:window-width="1920"
     inkscape:window-height="1020"
     inkscape:window-x="0"
     inkscape:window-y="32"
     inkscape:window-maximized="1"
     inkscape:current-layer="g16" /><defs
     id="defs1"><linearGradient
       id="linearGradient14"
       inkscape:collect="always"><stop
         style="stop-color:#0000ff;stop-opacity:1;"
         offset="0"
         id="stop11" /><stop
         style="stop-color:#000080;stop-opacity:1;"
         offset="1"
         id="stop12" /></linearGradient><linearGradient
       id="linearGradient13"
       inkscape:collect="always"><stop
         style="stop-color:#ffffff;stop-opacity:1;"
         offset="0"
         id="stop13" /><stop
         style="stop-color:#ffffff;stop-opacity:0;"
         offset="1"
         id="stop14" /></linearGradient><linearGradient
       id="linearGradient9"
       inkscape:collect="always"><stop
         style="stop-color:#000000;stop-opacity:1;"
         offset="0"
         id="stop3" /><stop
         style="stop-color:#000000;stop-opacity:0.58999997;"
         offset="1"
         id="stop4" /></linearGradient><linearGradient
       inkscape:collect="always"
       xlink:href="#linearGradient9"
       id="linearGradient2"
       x1="49"
       y1="93"
       x2="49"
       y2="7"
       gradientUnits="userSpaceOnUse"
       gradientTransform="translate(-1,-1)" /><linearGradient
       inkscape:collect="always"
       xlink:href="#linearGradient9"
       id="linearGradient3"
       gradientUnits="userSpaceOnUse"
       gradientTransform="matrix(1.0238095,0,0,1.0119048,-2.1666666,-1.0952381)"
       x1="49"
       y1="93"
       x2="49"
       y2="7" /><linearGradient
       inkscape:collect="always"
       xlink:href="#linearGradient9"
       id="linearGradient4"
       gradientUnits="userSpaceOnUse"
       gradientTransform="matrix(1.047619,0,0,1.0357143,-3.3333332,-2.2857148)"
       x1="49"
       y1="93"
       x2="49"
       y2="7" /><linearGradient
       inkscape:collect="always"
       xlink:href="#linearGradient9"
       id="linearGradient5"
       gradientUnits="userSpaceOnUse"
       gradientTransform="matrix(1.0714286,0,0,1.0714286,-4.5,-3.5714292)"
       x1="49"
       y1="93"
       x2="49"
       y2="7" /><linearGradient
       inkscape:collect="always"
       xlink:href="#linearGradient9"
       id="linearGradient6"
       gradientUnits="userSpaceOnUse"
       gradientTransform="matrix(1.0952381,0,0,1.0833334,-5.6666665,-4.6666672)"
       x1="49"
       y1="93"
       x2="49"
       y2="7" /><linearGradient
       inkscape:collect="always"
       xlink:href="#linearGradient13"
       id="linearGradient12"
       x1="6"
       y1="6"
       x2="6"
       y2="64"
       gradientUnits="userSpaceOnUse" /><radialGradient
       inkscape:collect="always"
       xlink:href="#linearGradient13"
       id="radialGradient14"
       cx="48"
       cy="90"
       fx="48"
       fy="90"
       r="42"
       gradientUnits="userSpaceOnUse" /><linearGradient
       inkscape:collect="always"
       xlink:href="#linearGradient14"
       id="linearGradient1"
       gradientUnits="userSpaceOnUse"
       x1="48"
       y1="6"
       x2="48"
       y2="90" /><linearGradient
       x1="45.447727"
       y1="92.539597"
       x2="45.447727"
       y2="7.0165396"
       id="ButtonShadow"
       gradientUnits="userSpaceOnUse"
       gradientTransform="scale(1.0058652,0.994169)"><stop
         id="stop3750"
         style="stop-color:#000000;stop-opacity:1"
         offset="0" /><stop
         id="stop3752"
         style="stop-color:#000000;stop-opacity:0.58823532"
         offset="1" /></linearGradient><filter
       color-interpolation-filters="sRGB"
       id="filter3174"
       x="-0.047720931"
       y="-0.048282354"
       width="1.0954419"
       height="1.0965647"><feGaussianBlur
         id="feGaussianBlur3176"
         stdDeviation="1.71" /></filter><filter
       x="-0.19578789"
       y="-0.19578789"
       width="1.3915758"
       height="1.3915758"
       color-interpolation-filters="sRGB"
       id="filter3794"><feGaussianBlur
         id="feGaussianBlur3796"
         stdDeviation="5.28" /></filter><linearGradient
       x1="48"
       y1="20.220806"
       x2="48"
       y2="138.66119"
       id="linearGradient3613"
       xlink:href="#linearGradient13"
       gradientUnits="userSpaceOnUse" /><clipPath
       id="clipPath3613"><rect
         width="84"
         height="84"
         rx="6"
         ry="6"
         x="6"
         y="6"
         id="rect3615"
         style="fill:#ffffff;fill-opacity:1;fill-rule:nonzero;stroke:none" /></clipPath><linearGradient
       id="e"
       x1="1082.197"
       x2="1323.2209"
       y1="1014.341"
       y2="449.013"
       gradientUnits="userSpaceOnUse"
       gradientTransform="translate(0,-5.3008205e-5)"><stop
         offset=".00001"
         stop-color="#2f76eb"
         id="stop9" /><stop
         offset="1"
         stop-color="#7e94f3"
         id="stop10" /></linearGradient><linearGradient
       id="d"
       x1="369.77802"
       x2="49.933998"
       y1="984.82098"
       y2="474.81"
       gradientUnits="userSpaceOnUse"
       gradientTransform="translate(0,-5.3008205e-5)"><stop
         offset=".00001"
         stop-color="#008aed"
         id="stop7-2" /><stop
         offset="1"
         stop-color="#05d1ea"
         id="stop8-6" /></linearGradient><linearGradient
       id="c"
       x1="782.06"
       x2="1178.071"
       y1="1081.194"
       y2="878.104"
       gradientUnits="userSpaceOnUse"
       gradientTransform="translate(0,-5.3008205e-5)"><stop
         offset=".00001"
         stop-color="#08a9f8"
         id="stop5" /><stop
         offset="1"
         stop-color="#0cdbfe"
         id="stop6" /></linearGradient><linearGradient
       id="b"
       x1="729.81702"
       x2="432.83401"
       y1="1172.043"
       y2="591.96002"
       gradientUnits="userSpaceOnUse"
       gradientTransform="translate(0,-5.3008205e-5)"><stop
         offset=".00001"
         stop-color="#10b8f7"
         id="stop3-1" /><stop
         offset="1"
         stop-color="#2bffff"
         id="stop4-8" /></linearGradient><linearGradient
       id="a"
       x1="427.14099"
       x2="406.314"
       y1="596.23199"
       y2="384.08099"
       gradientUnits="userSpaceOnUse"
       gradientTransform="translate(0,-5.3008205e-5)"><stop
         offset=".00001"
         stop-color="#00dffe"
         id="stop1-7" /><stop
         offset="1"
         stop-color="#62fefa"
         id="stop2-9" /></linearGradient><filter
       inkscape:collect="always"
       style="color-interpolation-filters:sRGB"
       id="filter39"
       x="-0.10800025"
       y="-0.10799974"
       width="1.2160005"
       height="1.2159995"><feGaussianBlur
         inkscape:collect="always"
         stdDeviation="42.523809"
         id="feGaussianBlur39" /></filter><clipPath
       clipPathUnits="userSpaceOnUse"
       id="clipPath39"><rect
         style="display:inline;opacity:1;fill:url(#linearGradient40);stroke:none;stroke-width:2;stroke-linecap:round;stroke-linejoin:round;paint-order:stroke markers fill"
         id="rect40"
         width="944.97131"
         height="944.97577"
         x="236.99422"
         y="236.5795"
         rx="5.9999995"
         ry="6" /></clipPath><linearGradient
       inkscape:collect="always"
       xlink:href="#linearGradient14"
       id="linearGradient40"
       gradientUnits="userSpaceOnUse"
       x1="48"
       y1="6"
       x2="48"
       y2="90"
       gradientTransform="matrix(11.249658,0,0,11.249711,169.49627,169.08124)" /></defs><g
     inkscape:label="Layer 1"
     inkscape:groupmode="layer"
     id="layer1"><g
       id="layer2"
       style="display:none"
       transform="translate(1.1040001,1.104)"><rect
         width="86"
         height="85"
         rx="6"
         ry="6"
         x="5"
         y="7"
         id="rect3745"
         style="opacity:0.9;fill:url(#ButtonShadow);fill-opacity:1;fill-rule:nonzero;stroke:none;filter:url(#filter3174)" /></g><g
       id="g6"
       inkscape:label="layer3"
       style="display:none"><rect
         style="display:inline;opacity:0.08;fill:url(#linearGradient6);stroke:none;stroke-width:2;stroke-linecap:round;stroke-linejoin:round;paint-order:stroke markers fill"
         id="rect5"
         width="92"
         height="91"
         x="2"
         y="4"
         rx="10"
         ry="10" /><rect
         style="display:inline;opacity:0.1;fill:url(#linearGradient5);stroke:none;stroke-width:2;stroke-linecap:round;stroke-linejoin:round;paint-order:stroke markers fill"
         id="rect4"
         width="90"
         height="89"
         x="3"
         y="5"
         rx="9"
         ry="9" /><rect
         style="display:inline;opacity:0.2;fill:url(#linearGradient4);stroke:none;stroke-width:2;stroke-linecap:round;stroke-linejoin:round;paint-order:stroke markers fill"
         id="rect3"
         width="88"
         height="87"
         x="4"
         y="6"
         rx="8"
         ry="8" /><rect
         style="display:inline;opacity:0.3;fill:url(#linearGradient3);stroke:none;stroke-width:2;stroke-linecap:round;stroke-linejoin:round;paint-order:stroke markers fill"
         id="rect2"
         width="86"
         height="85"
         x="5"
         y="7.0000005"
         rx="7"
         ry="7" /><rect
         style="display:inline;opacity:0.45;fill:url(#linearGradient2);stroke:none;stroke-width:2;stroke-linecap:round;stroke-linejoin:round;paint-order:stroke markers fill"
         id="rect1"
         width="84"
         height="84"
         x="6"
         y="7"
         rx="6"
         ry="6" /></g><g
       id="g26"
       style="display:inline"
       inkscape:label="layer1"><rect
         style="display:inline;opacity:1;fill:url(#linearGradient1);stroke:none;stroke-width:2;stroke-linecap:round;stroke-linejoin:round;paint-order:stroke markers fill"
         id="rect6"
         width="84"
         height="84"
         x="6"
         y="6"
         rx="6"
         ry="6" /><g
         id="layer5"
         style="display:inline"><rect
           width="66"
           height="66"
           rx="12"
           ry="12"
           x="15"
           y="15"
           clip-path="url(#clipPath3613)"
           id="rect3171"
           style="display:inline;opacity:0.1;fill:url(#linearGradient3613);fill-opacity:1;fill-rule:nonzero;stroke:#ffffff;stroke-width:0.5;stroke-linecap:round;stroke-linejoin:miter;stroke-miterlimit:4;stroke-dasharray:none;stroke-dashoffset:0;stroke-opacity:1;filter:url(#filter3794)" /></g><g
         id="g16"
         inkscape:label="Layer4"
         transform="matrix(0.08889159,0,0,0.08889117,-15.066793,-15.029829)"
         style="display:inline;stroke-width:11.2497"><path
           id="path10"
           style="display:inline;stroke-width:11.2497;fill:url(#e)"
           d="m 1181.9655,463.26558 c -13.9054,9.47506 -26.196,21.25032 -36.2977,34.91366 -12.7399,17.29096 -20.6006,37.34486 -29.3107,56.81983 l -26.2345,58.90718 -96.36915,217.28202 60.97225,109.66271 20.7635,37.33059 c 7.01,12.58099 13.3646,25.48193 23.1146,36.23193 10.8299,11.93 26.6404,21.0256 42.0104,25.5756 13.5317,4.0435 27.649,5.0199 41.3513,3.0101 z" /><path
           id="path32"
           style="fill:#68edfc;fill-opacity:1;stroke-width:11.2497"
           d="m 575.29693,236.57951 c -18.689,27.99886 -31.24629,59.76572 -36.7152,93.22758 -6.30798,36.83692 -5.53256,77.402 5.11948,113.39797 2.11896,7.16101 4.62546,15.4906 9.07443,21.59857 1.56903,2.15405 4.25595,5.27786 7.07498,5.62485 2.25696,0.27801 5.39236,-2.74061 6.78934,-4.24061 6.31103,-6.77698 10.94761,-15.6409 16.76463,-22.96084 13.35101,-16.80103 31.37009,-30.64637 49.32712,-42.25233 18.71143,-11.89795 38.3007,-22.34173 58.59929,-31.26629 16.013,-7.18897 32.49315,-13.2131 48.51415,-20.34615 34.37799,-15.30494 69.40928,-37.69949 89.1843,-70.50845 7.7811,-12.90952 12.85612,-27.32021 13.95221,-42.2743 z" /><path
           fill="url(#a)"
           d="m 419.952,382.07295 c 2.82699,-0.0239 5.77801,0.19104 8.58899,0.47802 14.09301,1.43799 27.669,9 36.617,19.90394 13.465,16.40704 13.96201,38.01904 6.80701,57.26104 -3.53101,9.49298 -8.62699,18.38398 -12.63199,27.68598 -4.94818,11.51208 -8.90195,23.42663 -11.81799,35.61303 -3.41102,14.16401 -4.80701,29.15101 -5.25303,43.70496 -0.22198,7.237 0.081,14.69104 -0.673,21.88202 -0.29999,2.86401 -0.448,5.99902 -2.763,7.89502 -6.84299,0.349 -15.38498,-5.15399 -21.26498,-8.28699 -7.08179,-4.03845 -13.74631,-8.76819 -19.896,-14.11999 -27.33402,-23.75605 -44.638,-59.57904 -46.93301,-95.66107 -1.67499,-26.31696 5.277,-53.82697 23.022,-73.891 12.33301,-13.94592 27.73099,-21.23303 46.198,-22.46496"
           id="path2"
           style="fill:url(#a);stroke-width:11.2497" /><path
           id="path6"
           style="display:inline;stroke-width:11.2497;fill:url(#c)"
           d="m 893.05583,650.62161 c -74.38995,88.34399 -127.747,191.6072 -183.554,291.9432 l 116.47352,208.88869 16.74265,30.1018 h 271.7496 c 37.3938,0 67.4979,-30.1043 67.4979,-67.4983 v -71.0578 c -13.7023,2.0098 -27.8196,1.0334 -41.3513,-3.0101 -15.37,-4.55 -31.1805,-13.6456 -42.0104,-25.5756 -9.75,-10.75 -16.1046,-23.65094 -23.1146,-36.23193 L 1054.7257,940.85098 993.75345,831.18827 928.01326,712.9125 c -11.53802,-20.76801 -22.65744,-41.97186 -34.95743,-62.29089 z" /><path
           id="path8"
           style="display:inline;stroke-width:11.2497;fill:url(#d)"
           d="m 236.99422,463.11178 v 579.84352 c 11.98892,1.7612 24.32276,1.2433 36.34167,-1.6259 17.60446,-4.2287 33.66241,-13.3303 46.31695,-26.2787 15.719,-16.22789 28.50508,-43.21777 39.94508,-63.14776 l 40.75803,-70.81605 c 8.85303,-15.46997 17.42491,-31.21206 26.73991,-46.40506 L 331.47377,619.3773 304.11864,557.8115 c -9.266,-20.849 -17.47304,-42.5397 -31.35402,-60.8627 -10.39707,-13.7234 -22.41712,-24.93295 -35.7704,-33.83702 z" /><path
           id="path4"
           style="display:inline;fill:url(#b);stroke-width:11.2497"
           d="m 935.22007,373.33381 c -60.13818,-1.09507 -120.31583,17.88499 -173.60068,44.36165 -16.07202,7.98596 -33.71003,16.97432 -47.83302,28.10231 -17.80701,10.37097 -34.7788,24.31312 -50.38177,37.72608 -34.74884,29.85224 -65.36588,64.20819 -91.00797,102.17023 -24.03003,35.55103 -44.54884,74.09968 -66.02583,111.2447 l -79.27494,137.74305 c -9.315,15.193 -17.88688,30.93509 -26.73991,46.40506 l -40.75803,70.81605 c -11.44,19.92999 -24.22608,46.91987 -39.94508,63.14776 -12.65454,12.9484 -28.71249,22.05 -46.31695,26.2787 -12.01891,2.8692 -24.35275,3.3871 -36.34167,1.6259 v 71.1017 c 0,37.394 30.10409,67.4983 67.49795,67.4983 h 271.15631 l 14.41362,-25.6415 119.43973,-213.34899 c 55.807,-100.33599 109.16405,-203.59921 183.554,-291.9432 13.22101,-16.638 27.42298,-32.51066 41.59297,-48.3386 6.00799,-4.98505 11.39542,-11.77586 16.89646,-17.42387 10.927,-11.22833 22.15346,-22.17182 33.66109,-32.80433 14.95705,-13.58337 30.19795,-26.85768 45.70175,-39.81343 11.68,-9.94397 23.9866,-19.80804 34.0566,-31.4201 5.18,-5.96997 9.7144,-12.89442 10.6344,-20.91743 1.4799,-12.86304 -6.6259,-25.1498 -14.2159,-34.78182 -24.1901,-30.72699 -62.49399,-45.57135 -100.41196,-50.05243 -8.56937,-1.01287 -17.16,-1.57935 -25.75117,-1.73579 z" /><path
           fill="#bafafc"
           d="m 713.78601,445.79695 c 14.12299,-11.12799 31.75397,-20.11304 47.82599,-28.099 60.89697,-30.25904 130.79602,-50.73706 199.35101,-42.63404 37.91797,4.48108 76.22689,19.33606 100.41699,50.06305 7.59,9.63202 15.6899,21.90595 14.21,34.76899 -0.92,8.02301 -5.44,14.94799 -10.62,20.91796 -10.07,11.61206 -22.38,21.48706 -34.06,31.43103 -15.5038,12.95575 -30.739,26.22962 -45.69601,39.81299 -11.50763,10.63251 -22.73096,21.56867 -33.65796,32.797 -5.50104,5.64801 -10.89203,12.453 -16.90002,17.43805 -20.93799,9.70996 -40.30799,20.14197 -63.18103,25.06 -15.88099,3.414 -34.82197,4.52099 -48.91596,-5.04401 -10.35101,-7.02405 -14.43402,-17.14404 -16.893,-28.86401 -21.508,20.16296 -50.904,43.35797 -80.58802,47.79901 -12.46002,1.86499 -24.974,0.017 -35.19897,-7.77405 -14.22205,-10.83795 -20.47705,-30.06299 -22.69306,-47.11798 -4.91296,-37.81897 5.82703,-78.07697 25.22901,-110.51495 6.34704,-10.61005 13.84204,-20.26703 21.37103,-30.04004"
           id="path5"
           style="stroke-width:11.2497" /><path
           id="path33"
           style="display:none;mix-blend-mode:normal;fill:#000000;fill-opacity:1;stroke-width:11.2497;filter:url(#filter39)"
           d="m 575.29693,236.57951 c -18.689,27.99886 -31.24629,59.76572 -36.7152,93.22758 -6.30798,36.83692 -5.53256,77.402 5.11948,113.39797 2.11896,7.16101 4.62546,15.4906 9.07443,21.59857 1.56903,2.15405 4.25595,5.27786 7.07498,5.62485 2.25696,0.27801 5.39236,-2.74061 6.78934,-4.24061 6.31103,-6.77698 10.94761,-15.6409 16.76463,-22.96084 13.35101,-16.80103 31.37009,-30.64637 49.32712,-42.25233 18.71143,-11.89795 38.3007,-22.34173 58.59929,-31.26629 16.013,-7.18897 32.49315,-13.2131 48.51415,-20.34615 34.37799,-15.30494 69.40928,-37.69949 89.1843,-70.50845 7.7811,-12.90952 12.85612,-27.32021 13.95221,-42.2743 z m 359.92314,136.7543 c -13.78597,-0.25103 -27.55683,0.8188 -41.26339,2.52679 -2.01014,0.2504 -4.01395,0.39235 -6.02033,0.68113 -12.00078,1.72748 -23.86027,4.33517 -35.66053,7.31671 -10.65899,2.6922 -21.07799,6.06731 -31.48586,9.62378 -4.96647,1.69702 -10.00168,3.0533 -14.89701,4.92175 -15.14315,5.77837 -29.98772,12.19302 -44.27356,19.29149 -16.07202,7.98596 -33.71003,16.97432 -47.83302,28.10231 -17.80635,10.37086 -34.77932,24.31357 -50.38177,37.72608 -34.74884,29.85224 -65.36588,64.20819 -91.00797,102.17023 -24.03003,35.55103 -44.54884,74.09968 -66.02583,111.2447 L 427.09586,834.68183 331.47377,619.3773 304.11864,557.8115 c -9.266,-20.849 -17.47304,-42.5397 -31.35402,-60.8627 -10.39707,-13.7234 -22.41712,-24.93295 -35.7704,-33.83702 v 579.84352 71.1017 c 0,37.394 30.10409,67.4983 67.49795,67.4983 h 271.15631 l 14.41362,-25.6415 119.43973,-213.34899 116.47352,208.88869 16.74265,30.1018 h 271.7496 c 37.3938,0 67.4979,-30.1043 67.4979,-67.4983 v -71.0578 -579.73362 c -13.9054,9.47506 -26.196,21.25032 -36.2977,34.91366 -12.7399,17.29096 -20.6006,37.34486 -29.3107,56.81983 l -26.2345,58.90718 -96.36915,217.28202 -65.74019,-118.27577 c -11.53802,-20.76801 -22.65744,-41.97186 -34.95743,-62.29089 13.21467,-16.63002 27.40777,-32.49623 41.571,-48.31663 l 0.022,-0.022 c 6.00799,-4.98505 11.39542,-11.77586 16.89646,-17.42387 10.927,-11.22833 22.15346,-22.17182 33.66109,-32.80433 14.95702,-13.58337 30.19792,-26.85768 45.70172,-39.81343 5.8358,-4.96841 11.8291,-9.93559 17.6215,-15.09483 h 0.022 c 5.7912,-5.15733 11.3815,-10.52314 16.4131,-16.32527 2.59,-2.98498 5.0286,-6.20932 6.9211,-9.68969 0.9481,-1.74012 1.7596,-3.55642 2.395,-5.42711 0.6319,-1.86449 1.0891,-3.80201 1.3183,-5.80063 0.37,-3.21576 0.1431,-6.40266 -0.5273,-9.51391 -2.0096,-9.33014 -7.9961,-18.0439 -13.6886,-25.26791 -1.9004,-2.41399 -3.8867,-4.72246 -5.9544,-6.94318 -6.2035,-6.66241 -13.1324,-12.47176 -20.5877,-17.48979 -21.6909,-14.60264 -47.86756,-22.54655 -73.86983,-25.61946 -8.56937,-1.01287 -17.16,-1.57935 -25.75117,-1.73579 z m -515.2651,8.74489 c -18.46701,1.23193 -33.87408,8.50956 -46.20709,22.45548 -17.745,20.06403 -24.70164,47.57519 -23.02665,73.89215 2.29501,36.08203 19.62012,71.91044 46.95414,95.66649 6.14969,5.3518 12.80286,10.0896 19.88465,14.12805 5.88,3.133 14.4259,8.63248 21.26889,8.28348 2.315,-1.896 2.46848,-5.04594 2.76847,-7.90995 0.754,-7.19098 0.43718,-14.64721 0.65916,-21.88421 0.44602,-14.55395 1.84028,-29.53848 5.2513,-43.70249 2.91604,-12.1864 6.87275,-24.08271 11.82093,-35.59479 4.005,-9.302 9.10289,-18.21383 12.6339,-27.70681 7.155,-19.242 6.65368,-40.85223 -6.81132,-57.25927 -8.948,-10.90394 -22.51232,-18.46873 -36.60533,-19.90672 -2.81098,-0.28698 -5.76406,-0.48531 -8.59105,-0.46141 z"
           clip-path="url(#clipPath39)" /></g><path
         id="rect9"
         style="display:inline;opacity:0.4;fill:url(#linearGradient12);stroke-width:1.99999;stroke-linecap:round;stroke-linejoin:round;paint-order:stroke markers fill"
         d="M 12,6 C 8.676,6 6,8.676 6,12 V 64 H 7 V 14 C 7,10.676 9.676,8 13,8 h 70 c 3.324,0 6,2.676 6,6 v 50 h 1 V 12 C 90,8.676 87.324,6 84,6 Z" /><path
         id="rect12"
         style="display:inline;opacity:0.2;fill:url(#radialGradient14);fill-opacity:1;stroke-width:2;stroke-linecap:round;stroke-linejoin:round;paint-order:stroke markers fill"
         d="M 12,6 C 8.676,6 6,8.676 6,12 v 72 c 0,3.324 2.676,6 6,6 h 72 c 3.324,0 6,-2.676 6,-6 V 12 C 90,8.676 87.324,6 84,6 h -1 c 3.324,0 6,2.676 6,6 v 70 c 0,3.324 -2.676,6 -6,6 H 13 C 9.676,88 7,85.324 7,82 V 12 C 7,8.676 9.676,6 13,6 Z" /></g></g><metadata
     id="metadata1"><rdf:RDF><cc:Work
         rdf:about="" /></rdf:RDF></metadata></svg>
